SplineFontDB: 1.0
FontName: NimbusRomNo9L-ReguItal
FullName: Nimbus Roman No9 L Regular Italic
FamilyName: Nimbus Roman No9 L
Weight: Regular
Copyright: Copyright (URW)++,Copyright 1999 by (URW)++ Design & Development; Cyrillic glyphs added by Valek Filippov (C) 2001
Version: 1.06
ItalicAngle: -15.5
UnderlinePosition: -100
UnderlineWidth: 50
Ascent: 800
Descent: 200
NeedsXUIDChange: 1
UniqueID: 4039617
FSType: 0
OS2WinAscent: 0
OS2WinAOffset: 1
OS2WinDescent: 0
OS2WinDOffset: 1
HheadAscent: 0
HheadAOffset: 1
HheadDescent: 0
HheadDOffset: 1
ScriptLang: 2
 1 latn 1 dflt 
 1 DFLT 1 dflt 
Encoding: adobestandard
UnicodeInterp: none
DisplaySize: -36
AntiAlias: 1
FitToEm: 1
WinInfo: 300 30 14
BeginPrivate: 7
BlueValues 23 [-20 0 432 452 653 673]
BlueScale 8 0.039625
StdHW 4 [23]
StdVW 4 [78]
StemSnapH 206 [19 23 32 38 43 47 53 69] 
systemdict /internaldict known
{1183615869 systemdict /internaldict get exec
/StemSnapLength 2 copy known { get 8 lt } { pop pop true } ifelse }
{ true } ifelse { pop [23 32] } if
StemSnapV 2 []
ForceBold 5 false
EndPrivate
BeginChars: 768 661
StartChar: exclam
Encoding: 33 33 2
Width: 333
Flags: W
HStem: -11 106<86 93> 647 20G<243.5 275>
Fore
137 177 m 1
 120 181 l 1
 161 370 168 407 192 551 c 0
 206 634 225 667 262 667 c 0
 288 667 302 649 302 616 c 0
 302 587 292 555 264 493 c 0
 217 391 194 332 137 177 c 1
91 95 m 0
 120 95 145 70 145 41 c 0
 145 13 120 -11 90 -11 c 0
 61 -11 39 12 39 43 c 0
 39 70 64 95 91 95 c 0
EndSplineSet
EndChar
StartChar: quotedbl
Encoding: 34 34 3
Width: 420
Flags: W
HStem: 646 20G<209.5 230.5 388 409>
Fore
344 421 m 1
 323 421 l 1
 331 523 340 600 346 625 c 0
 351 647 376 666 400 666 c 0
 418 666 432 653 432 637 c 0
 432 621 401 545 344 421 c 1
165 421 m 1
 144 421 l 1
 152 523 161 600 167 625 c 0
 172 647 197 666 222 666 c 0
 239 666 253 653 253 637 c 0
 253 621 223 547 165 421 c 1
EndSplineSet
EndChar
StartChar: numbersign
Encoding: 35 35 4
Width: 500
Flags: W
HStem: 0 21G<17 79 208 270> 213 54<12 97 179 288 370 454> 213 251<87 288 253 454> 410 54<86 172 253 363 444 529>
DStem: 97 213 158 213 17 0 79 0 172 410 233 410 118 267 179 267 272 676 333 676 192 464 253 464 288 213 349 213 208 0 270 0 363 410 424 410 309 267 370 267 463 676 524 676 383 464 444 464
Fore
465 267 m 1xd0
 454 213 l 1xd0
 349 213 l 1xa0
 270 0 l 1
 208 0 l 1
 288 213 l 1xc0
 158 213 l 1xa0
 79 0 l 1
 17 0 l 1
 97 213 l 1xc0
 2 213 l 1xa0
 13 267 l 1
 118 267 l 1
 172 410 l 1
 76 410 l 1xd0
 87 464 l 1
 192 464 l 1
 272 676 l 1
 333 676 l 1
 253 464 l 1
 383 464 l 1
 463 676 l 1
 524 676 l 1
 444 464 l 1xa0
 540 464 l 1
 529 410 l 1
 424 410 l 1
 370 267 l 1
 465 267 l 1xd0
363 410 m 1
 233 410 l 1
 179 267 l 1
 309 267 l 1
 363 410 l 1
EndSplineSet
EndChar
StartChar: dollar
Encoding: 36 36 5
Width: 500
Flags: W
HStem: 641 27<302 341>
VStem: 123 78<513 538> 380 75<162 190>
DStem: 181 2 215 0 159 -89 194 -89 258 329 289 306 189 32 221 25 336 641 369 633 282 420 313 396 358 731 392 731 341 668 376 663
Fore
497 612 m 1
 469 498 l 1
 454 500 l 1
 452 574 430 609 369 633 c 1
 313 396 l 1
 430 305 455 269 455 190 c 0
 455 120 420 60 361 30 c 0
 322 10 288 3 215 0 c 1
 194 -89 l 1
 159 -89 l 1
 181 2 l 1
 119 14 67 37 31 67 c 1
 58 190 l 1
 74 193 l 1
 85 88 111 51 189 32 c 1
 258 329 l 1
 206 366 186 383 165 410 c 0
 135 446 123 476 123 513 c 0
 123 565 151 612 198 639 c 0
 239 663 266 668 341 668 c 1
 358 731 l 1
 392 731 l 1
 376 663 l 1
 423 652 465 635 497 612 c 1
282 420 m 1
 336 641 l 1
 296 641 287 640 268 633 c 0
 226 618 201 583 201 538 c 0
 201 493 220 465 282 420 c 1
289 306 m 1
 221 25 l 1
 327 33 380 79 380 162 c 0
 380 216 363 245 295 301 c 2
 289 306 l 1
EndSplineSet
EndChar
StartChar: percent
Encoding: 37 37 6
Width: 833
Flags: W
HStem: 0 30<588 605> 289 34<198 216> 339 32<681 696> 583 25<446 470> 632 30<295 303>
VStem: 79 76<386 419> 377 26<530 551> 468 76<101 136> 765 25<242 265>
DStem: 570 613 653 676 220 -13 267 -13
Fore
683 371 m 0
 750 371 790 330 790 263 c 0
 790 187 758 108 704 51 c 0
 672 18 632 0 588 0 c 0
 512 0 468 50 468 136 c 0
 468 252 577 371 683 371 c 0
694 339 m 0
 662 339 634 320 607 280 c 0
 573 232 544 149 544 101 c 0
 544 54 564 30 605 30 c 0
 634 30 663 44 685 68 c 0
 733 119 765 196 765 259 c 0
 765 303 733 339 694 339 c 0
653 676 m 1
 267 -13 l 1
 220 -13 l 1
 570 613 l 1
 528 590 504 583 458 583 c 0
 431 583 416 585 396 593 c 1
 397 590 397 590 397 587 c 0
 401 570 403 554 403 541 c 0
 403 489 374 413 335 363 c 0
 297 315 249 289 198 289 c 0
 131 289 79 346 79 419 c 0
 79 542 187 662 297 662 c 0
 323 662 351 653 365 641 c 2
 383 625 l 2
 395 614 420 608 452 608 c 0
 519 608 563 627 613 676 c 1
 653 676 l 1
368 600 m 1
 341 607 332 611 316 624 c 0
 309 630 305 632 301 632 c 0
 238 632 155 493 155 386 c 0
 155 347 178 323 214 323 c 0
 296 323 377 436 377 549 c 0
 377 565 375 578 368 600 c 1
EndSplineSet
EndChar
StartChar: ampersand
Encoding: 38 38 7
Width: 778
Flags: W
HStem: -18 49<594 642> 331 19<530 543> 634 32<470 484>
VStem: 76 94<140 164> 324 81<460 504> 517 69<570 579>
Fore
530 350 m 1
 715 350 l 1
 715 333 l 1
 665 328 658 322 607 247 c 0
 596 230 558 177 520 125 c 1
 560 58 595 31 642 31 c 0
 665 31 683 39 712 61 c 1
 723 50 l 1
 680 1 644 -18 594 -18 c 0
 541 -18 502 4 457 61 c 1
 354 -5 321 -18 258 -18 c 0
 147 -18 76 43 76 140 c 0
 76 194 100 240 148 280 c 0
 184 309 228 333 331 378 c 1
 330 393 329 403 328 409 c 0
 325 435 324 451 324 460 c 0
 324 581 390 666 484 666 c 0
 542 666 586 625 586 572 c 0
 586 538 567 503 532 471 c 0
 505 447 476 428 414 397 c 1
 438 295 469 209 501 160 c 1
 564 236 580 265 580 299 c 0
 580 321 569 328 530 331 c 1
 530 350 l 1
333 345 m 1
 233 307 170 236 170 164 c 0
 170 91 225 34 298 34 c 0
 348 34 391 51 438 90 c 1
 404 133 369 218 333 345 c 1
410 428 m 1
 454 456 456 458 473 473 c 0
 504 502 517 532 517 577 c 0
 517 617 504 634 472 634 c 0
 427 634 405 592 405 504 c 0
 405 478 406 458 410 428 c 1
EndSplineSet
EndChar
StartChar: quoteright
Encoding: 39 8217 8
Width: 333
Flags: W
HStem: 646 20G<217.5 248.5>
Fore
160 436 m 1
 151 453 l 1
 203 488 226 515 226 541 c 0
 226 551 220 560 206 574 c 0
 187 591 181 602 181 619 c 0
 181 646 203 666 232 666 c 0
 265 666 290 635 290 595 c 0
 290 539 244 482 160 436 c 1
EndSplineSet
KernsSLIF: 65 -87 1 0 225 -140 1 0 257 -87 1 0 256 -87 1 0 262 -87 1 0 44 -73 1 0 100 -79 1 0 111 -78 1 0 46 -78 1 0 114 -57 1 0 115 -63 1 0 116 -49 1 0 118 -28 1 0 119 -26 1 0 121 -28 1 0
EndChar
StartChar: parenleft
Encoding: 40 40 9
Width: 333
Flags: W
VStem: 42 69<85 180>
Fore
159 -175 m 1
 141 -181 l 1
 105 -115 90 -84 76 -41 c 0
 54 28 42 103 42 180 c 0
 42 256 53 318 79 381 c 0
 121 485 172 551 302 669 c 1
 315 654 l 1
 250 586 218 539 186 460 c 0
 140 349 111 205 111 85 c 0
 111 -11 123 -74 159 -175 c 1
EndSplineSet
EndChar
StartChar: parenright
Encoding: 41 41 10
Width: 333
Flags: W
VStem: 220 69<304 402>
Fore
29 -180 m 1
 16 -165 l 1
 77 -101 107 -59 136 6 c 0
 186 113 220 275 220 402 c 0
 220 502 205 583 171 664 c 1
 190 669 l 1
 235 589 250 553 267 485 c 0
 281 425 289 361 289 304 c 0
 289 230 277 167 249 101 c 0
 204 -8 153 -72 29 -180 c 1
EndSplineSet
EndChar
StartChar: asterisk
Encoding: 42 42 11
Width: 500
Flags: W
HStem: 646 20G<299 320.5>
VStem: 302 17<417 446 476 504>
Fore
319 500 m 2
 319 473 l 1
 362 502 367 506 418 561 c 0
 433 578 441 582 454 582 c 0
 476 582 492 567 492 545 c 0
 492 519 477 508 435 501 c 0
 388 493 371 486 328 459 c 1
 365 440 l 2
 380 432 403 425 431 420 c 0
 475 413 492 401 492 378 c 0
 492 356 475 339 454 339 c 0
 439 339 427 347 408 371 c 0
 382 403 359 423 326 442 c 2
 319 446 l 1
 320 393 324 371 339 329 c 0
 345 311 347 303 347 295 c 0
 347 272 331 255 308 255 c 0
 288 255 273 271 273 293 c 0
 273 302 276 314 283 334 c 0
 297 371 302 395 302 417 c 0
 302 422 302 429 300 446 c 1
 297 443 294 441 285 436 c 0
 254 417 240 405 213 371 c 0
 197 351 180 340 163 340 c 0
 144 340 128 357 128 377 c 0
 128 400 145 413 187 420 c 0
 233 428 251 435 294 461 c 1
 282 468 l 2
 258 483 226 493 189 500 c 0
 143 508 128 519 128 546 c 0
 128 566 143 581 163 581 c 0
 179 581 190 574 210 551 c 0
 242 515 262 498 301 476 c 1
 301 519 297 542 284 587 c 0
 277 608 275 617 275 626 c 0
 275 651 288 666 310 666 c 0
 331 666 346 650 346 627 c 0
 346 616 343 603 335 577 c 0
 323 543 319 522 319 500 c 2
EndSplineSet
EndChar
StartChar: plus
Encoding: 43 43 12
Width: 675
Flags: W
HStem: 0 21G<305 371> 220 66<86 305 371 590>
VStem: 305 66<0 220 286 506>
Fore
305 286 m 1
 305 506 l 1
 371 506 l 1
 371 286 l 1
 590 286 l 1
 590 220 l 1
 371 220 l 1
 371 0 l 1
 305 0 l 1
 305 220 l 1
 86 220 l 1
 86 286 l 1
 305 286 l 1
EndSplineSet
EndChar
StartChar: comma
Encoding: 44 44 13
Width: 250
Flags: W
Fore
5 -129 m 1
 -4 -112 l 1
 48 -77 71 -50 71 -23 c 0
 71 -13 66 -5 51 9 c 0
 32 26 26 37 26 54 c 0
 26 81 48 101 77 101 c 0
 110 101 135 70 135 30 c 0
 135 -26 89 -82 5 -129 c 1
EndSplineSet
KernsSLIF: 49 -40 1 0 186 -39 1 0 39 -39 1 0
EndChar
StartChar: hyphen
Encoding: 45 45 14
Width: 333
Flags: W
HStem: 192 63<62 269>
Fore
282 255 m 1
 269 192 l 1
 49 192 l 1
 63 255 l 1
 282 255 l 1
EndSplineSet
KernsSLIF: 65 3 1 0 225 -23 1 0 257 3 1 0 256 3 1 0 262 3 1 0 84 -46 1 0 86 -43 1 0 87 -34 1 0 89 -53 1 0
EndChar
StartChar: period
Encoding: 46 46 15
Width: 250
Flags: W
HStem: -11 21G<66 96>
Fore
82 100 m 0
 112 100 138 74 138 43 c 0
 138 13 112 -11 80 -11 c 0
 52 -11 27 14 27 43 c 0
 27 74 52 100 82 100 c 0
EndSplineSet
KernsSLIF: 49 -39 1 0 186 -38 1 0 39 -38 1 0
EndChar
StartChar: slash
Encoding: 47 47 16
Width: 278
Flags: W
HStem: -18 21G<-65 8> 646 20G<313 386>
DStem: 313 666 386 666 -65 -18 8 -18
Fore
313 666 m 1
 386 666 l 1
 8 -18 l 1
 -65 -18 l 1
 313 666 l 1
EndSplineSet
EndChar
StartChar: zero
Encoding: 48 48 17
Width: 500
Flags: W
HStem: -7 28<191 209> 648 28<322 343>
VStem: 32 79<156 213> 418 79<423 522>
Fore
341 676 m 0
 438 676 497 581 497 423 c 0
 497 279 420 113 320 39 c 0
 278 8 236 -7 193 -7 c 0
 96 -7 32 81 32 213 c 0
 32 448 184 676 341 676 c 0
334 648 m 0
 290 648 251 617 215 553 c 0
 163 461 111 262 111 156 c 0
 111 71 143 21 197 21 c 0
 242 21 283 55 321 121 c 0
 378 223 418 388 418 522 c 0
 418 602 388 648 334 648 c 0
EndSplineSet
KernsSLIF: 52 14 1 0 49 -50 1 0 55 -3 1 0
EndChar
StartChar: one
Encoding: 49 49 18
Width: 500
Flags: W
HStem: 0 14<49 60.2857>
DStem: 299 560 403 640 161 68 260 121
Fore
49 0 m 1
 49 14 l 1
 128 21 149 31 161 68 c 1
 299 560 l 2
 304 578 306 588 306 594 c 0
 306 614 291 626 268 625 c 2
 211 623 l 1
 211 638 l 1
 222 640 230 642 232 642 c 2
 322 660 l 1
 401 675 l 2
 402 676 404 676 404 676 c 2
 407 676 409 673 409 669 c 0
 409 664 407 655 403 640 c 2
 260 121 l 1
 259 116 l 1
 258 113 256 107 254 99 c 0
 246 74 242 56 242 47 c 0
 242 25 263 15 312 15 c 2
 328 15 l 1
 328 0 l 1
 49 0 l 1
EndSplineSet
KernsSLIF: 44 -52 1 0 56 -57 1 0 53 -55 1 0 52 -69 1 0 57 -61 1 0 49 -69 1 0 46 -56 1 0 55 -60 1 0 54 -50 1 0 51 -55 1 0 50 -50 1 0 48 -41 1 0
EndChar
StartChar: two
Encoding: 50 50 19
Width: 500
Flags: W
HStem: 0 76<111 367> 603 73<241 290>
VStem: 366 86<481 506>
Fore
400 139 m 1
 417 132 l 1
 367 0 l 1
 12 0 l 1
 12 17 l 1
 222 241 l 2
 288 311 333 374 357 428 c 0
 363 441 366 460 366 481 c 0
 366 551 312 603 241 603 c 0
 181 603 138 574 101 509 c 1
 80 516 l 1
 109 588 136 622 187 650 c 0
 217 666 255 676 290 676 c 0
 381 676 452 602 452 506 c 0
 452 440 420 390 303 273 c 2
 111 81 l 1
 111 76 l 1
 301 76 l 2
 355 76 376 89 400 139 c 1
EndSplineSet
KernsSLIF: 52 -12 1 0 49 -45 1 0 55 -22 1 0
EndChar
StartChar: three
Encoding: 51 51 20
Width: 500
Flags: W
HStem: -7 98<59 127> 634 42<290 326>
VStem: 326 80<195 249> 379 87<536 554>
Fore
178 567 m 1xd0
 162 572 l 1
 195 636 257 676 326 676 c 0xe0
 406 676 466 622 466 549 c 0xd0
 466 481 431 448 310 401 c 1
 310 398 l 1
 377 367 406 321 406 249 c 0
 406 160 356 76 277 30 c 0
 234 5 184 -7 127 -7 c 0
 56 -7 15 14 15 52 c 0
 15 77 31 91 59 91 c 0
 78 91 94 84 123 63 c 0
 153 41 176 31 195 31 c 0
 235 31 281 59 304 99 c 0
 318 123 326 159 326 195 c 0xe0
 326 274 293 329 232 350 c 0
 206 360 193 361 140 361 c 1
 140 377 l 1
 229 392 272 407 314 436 c 0
 358 465 379 501 379 543 c 0
 379 597 343 634 290 634 c 0
 248 634 213 613 178 567 c 1xd0
EndSplineSet
KernsSLIF: 52 -9 1 0 49 -76 1 0 55 -15 1 0
EndChar
StartChar: four
Encoding: 52 52 21
Width: 500
Flags: W
HStem: 0 21G<214 293> 178 63<65 263 358 439>
DStem: 263 178 339 176 214 0 293 0 373 563 479 676 277 241 358 241 438 676 369 563 21 245 65 245
Fore
453 241 m 1
 439 176 l 1
 339 176 l 1
 293 0 l 1
 214 0 l 1
 263 178 l 1
 1 178 l 1
 21 245 l 1
 438 676 l 1
 479 676 l 1
 358 241 l 1
 453 241 l 1
277 241 m 1
 373 563 l 1
 369 563 l 1
 65 245 l 1
 65 241 l 1
 277 241 l 1
EndSplineSet
KernsSLIF: 52 12 1 0 49 -69 1 0 55 -27 1 0
EndChar
StartChar: five
Encoding: 53 53 22
Width: 500
Flags: W
HStem: -7 42<121 179> 595 71<235 468>
VStem: 350 69<242 280>
DStem: 235 666 238 595 131 448 199 507
Fore
238 595 m 1
 199 507 l 1
 280 487 316 471 353 436 c 0
 396 395 419 342 419 280 c 0
 419 121 286 -7 121 -7 c 0
 55 -7 15 15 15 50 c 0
 15 74 32 90 56 90 c 0
 71 90 86 83 111 64 c 0
 140 43 158 35 179 35 c 0
 269 35 350 133 350 242 c 0
 350 295 329 345 297 371 c 0
 261 400 228 412 131 433 c 1
 131 448 l 1
 235 666 l 1
 491 666 l 1
 468 595 l 1
 238 595 l 1
EndSplineSet
KernsSLIF: 52 -5 1 0 49 -71 1 0 55 -28 1 0
EndChar
StartChar: six
Encoding: 54 54 23
Width: 500
Flags: W
HStem: -7 26<197 215> 411 36<259 292>
VStem: 30 76<150 204> 373 89<264 286>
Fore
521 686 m 1
 521 670 l 1
 403 656 269 555 199 428 c 1
 203 426 l 1
 231 439 264 447 292 447 c 0
 391 447 462 373 462 271 c 0
 462 120 348 -7 213 -7 c 0
 102 -7 30 76 30 204 c 0
 30 347 107 489 234 583 c 0
 320 646 387 671 521 686 c 1
259 411 m 0
 212 411 180 391 152 345 c 0
 126 301 106 217 106 150 c 0
 106 68 142 19 203 19 c 0
 246 19 281 40 312 85 c 0
 349 137 373 216 373 284 c 0
 373 361 329 411 259 411 c 0
EndSplineSet
KernsSLIF: 52 17 1 0 49 -64 1 0 55 -37 1 0
EndChar
StartChar: seven
Encoding: 55 55 24
Width: 500
Flags: W
HStem: -8 21G<79 149> 593 73<156 444>
Fore
537 656 m 1
 149 -8 l 1
 79 -8 l 1
 446 590 l 1
 444 593 l 1
 222 593 l 2
 164 593 137 578 89 521 c 1
 75 530 l 1
 156 666 l 1
 531 666 l 1
 537 656 l 1
EndSplineSet
KernsSLIF: 58 -88 1 0 44 -79 1 0 56 -32 1 0 53 -53 1 0 52 -65 1 0 49 -47 1 0 46 -83 1 0 55 -11 1 0 54 -37 1 0 51 -42 1 0 50 -13 1 0
EndChar
StartChar: eight
Encoding: 56 56 25
Width: 500
Flags: W
HStem: -7 22<215 249> 653 23<318 331>
VStem: 30 68<152 173> 138 78<524 542> 369 75<154 175> 425 68<535 542>
Fore
329 382 m 1xf4
 414 294 444 240 444 173 c 0xf8
 444 70 352 -7 229 -7 c 0
 146 -7 86 22 53 79 c 0
 38 104 30 134 30 161 c 0
 30 249 99 319 225 360 c 1
 159 433 138 472 138 526 c 0
 138 615 211 676 318 676 c 0
 420 676 493 617 493 535 c 0
 493 464 447 421 329 382 c 1xf4
247 344 m 1
 229 337 229 337 225 335 c 0
 148 300 98 230 98 155 c 0
 98 74 154 15 233 15 c 0
 311 15 369 74 369 155 c 0
 369 211 357 229 247 344 c 1
311 399 m 1
 344 415 l 2
 400 444 425 482 425 535 c 0xf4
 425 605 382 653 318 653 c 0
 255 653 216 610 216 540 c 0
 216 498 233 472 311 399 c 1
EndSplineSet
KernsSLIF: 52 13 1 0 49 -50 1 0 55 -1 1 0
EndChar
StartChar: nine
Encoding: 57 57 26
Width: 500
Flags: W
HStem: 229 46<219 257> 650 26<306 328>
VStem: 69 88<398 416> 417 75<458 518>
Fore
23 -17 m 1
 23 1 l 1
 102 18 152 44 224 105 c 1
 286 162 336 227 352 272 c 1
 348 274 l 1
 296 241 260 229 219 229 c 0
 131 229 69 304 69 408 c 0
 69 548 185 676 311 676 c 0
 420 676 492 589 492 458 c 0
 492 323 424 189 308 98 c 0
 225 33 158 6 23 -17 c 1
318 650 m 0
 284 650 253 637 229 612 c 0
 186 568 157 488 157 414 c 0
 157 326 194 275 257 275 c 0
 295 275 336 292 362 318 c 0
 392 347 417 440 417 518 c 0
 417 601 380 650 318 650 c 0
EndSplineSet
KernsSLIF: 52 2 1 0 49 -64 1 0 55 -5 1 0
EndChar
StartChar: colon
Encoding: 58 58 27
Width: 333
Flags: W
HStem: -11 111<97 115> 330 111<202 211>
Fore
106 100 m 0
 136 100 161 74 161 43 c 0
 161 13 136 -11 104 -11 c 0
 75 -11 50 14 50 43 c 0
 50 74 75 100 106 100 c 0
205 441 m 0
 236 441 261 416 261 384 c 0
 261 354 236 330 204 330 c 0
 174 330 150 354 150 384 c 0
 150 416 174 441 205 441 c 0
EndSplineSet
EndChar
StartChar: semicolon
Encoding: 59 59 28
Width: 333
Flags: W
HStem: 330 111<202 207>
Fore
36 -129 m 1
 27 -112 l 1
 79 -77 102 -50 102 -23 c 0
 102 -13 97 -5 82 9 c 0
 63 26 57 37 57 54 c 0
 57 81 79 101 108 101 c 0
 141 101 166 70 166 30 c 0
 166 -26 120 -82 36 -129 c 1
205 441 m 0
 236 441 261 416 261 384 c 0
 261 354 236 330 204 330 c 0
 174 330 150 354 150 384 c 0
 150 416 174 441 205 441 c 0
EndSplineSet
EndChar
StartChar: less
Encoding: 60 60 29
Width: 675
Flags: W
DStem: 84 220 172 253 592 -10 592 62 592 516 592 444 84 286 172 253
Fore
592 -10 m 1
 84 220 l 1
 84 286 l 1
 592 516 l 1
 592 444 l 1
 172 253 l 1
 592 62 l 1
 592 -10 l 1
EndSplineSet
EndChar
StartChar: equal
Encoding: 61 61 30
Width: 675
Flags: W
HStem: 120 66<86 590> 320 66<86 590>
Fore
590 386 m 1
 590 320 l 1
 86 320 l 1
 86 386 l 1
 590 386 l 1
590 186 m 1
 590 120 l 1
 86 120 l 1
 86 186 l 1
 590 186 l 1
EndSplineSet
EndChar
StartChar: greater
Encoding: 62 62 31
Width: 675
Flags: W
DStem: 84 444 84 516 504 253 592 286 504 253 592 220 84 62 84 -10
Fore
84 -10 m 1
 84 62 l 1
 504 253 l 1
 84 444 l 1
 84 516 l 1
 592 286 l 1
 592 220 l 1
 84 -10 l 1
EndSplineSet
EndChar
StartChar: question
Encoding: 63 63 32
Width: 500
Flags: W
HStem: -12 105<179 187> 642 22<307 326>
VStem: 132 105<40 42> 184 79<542 555> 398 74<535 557>
Fore
216 174 m 1xd8
 199 176 l 1
 216 275 228 297 311 392 c 1
 376 463 398 505 398 557 c 0
 398 611 369 642 318 642 c 0
 275 642 248 624 248 594 c 0
 248 586 250 580 256 567 c 0
 261 555 263 549 263 542 c 0
 263 522 246 507 223 507 c 0
 199 507 184 525 184 555 c 0
 184 619 242 664 324 664 c 0
 413 664 472 613 472 535 c 0
 472 474 452 447 338 354 c 0
 267 297 237 259 223 203 c 2
 216 174 l 1xd8
184 93 m 0
 213 93 237 69 237 40 c 0
 237 13 212 -12 185 -12 c 0
 155 -12 132 11 132 40 c 0xe8
 132 69 155 93 184 93 c 0
EndSplineSet
EndChar
StartChar: at
Encoding: 64 64 33
Width: 920
Flags: W
HStem: -18 39<469 503> 139 42<410 451> 635 31<481 503>
VStem: 118 83<301 335> 321 71<248 271> 766 40<365 383>
Fore
587 449 m 1
 597 486 l 1
 666 486 l 1
 601 234 l 2
 599 227 598 218 598 213 c 0
 598 186 611 171 635 171 c 0
 660 171 685 183 704 202 c 0
 741 241 766 307 766 367 c 0
 766 513 637 635 481 635 c 0
 318 635 201 500 201 313 c 0
 201 142 323 21 494 21 c 0
 559 21 608 33 686 68 c 1
 698 39 l 1
 604 -5 553 -18 482 -18 c 0
 278 -18 118 130 118 319 c 0
 118 512 278 666 481 666 c 0
 664 666 806 539 806 376 c 0
 806 248 721 138 622 138 c 0
 575 138 539 167 533 210 c 1
 497 165 452 139 410 139 c 0
 360 139 321 187 321 250 c 0
 321 321 352 398 403 450 c 0
 433 482 474 500 516 500 c 0
 551 500 565 490 587 449 c 1
530 456 m 0
 506 458 471 438 443 406 c 0
 410 368 392 318 392 265 c 0
 392 213 414 181 451 181 c 0
 507 181 564 281 570 394 c 0
 572 431 557 454 530 456 c 0
EndSplineSet
EndChar
StartChar: A
Encoding: 65 65 34
Width: 611
Flags: W
HStem: 0 16<125.8 136 318 328.667 552.6 564> 226 36<175 374> 648 20G<368 394>
DStem: 325 522 394 668 369 262 488 102 368 668 325 522 78 168 175 262 368 668 154 226 78 168 97 113 374 226 394 668 394 95 488 102
Fore
564 16 m 1
 564 0 l 1
 318 0 l 1
 318 16 l 1
 382 22 396 31 396 69 c 0
 396 77 395 86 394 95 c 1
 374 226 l 1
 154 226 l 1
 97 113 l 2
 80 79 77 70 77 51 c 0
 77 26 85 21 136 16 c 1
 136 0 l 1
 -51 0 l 1
 -51 16 l 1
 -11 24 -1 35 78 168 c 1
 368 668 l 1
 394 668 l 1
 488 102 l 1
 501 29 507 21 564 16 c 1
175 262 m 1
 369 262 l 1
 325 522 l 1
 175 262 l 1
EndSplineSet
KernsSLIF: 67 -50 0 0 264 -50 0 0 71 -44 0 0 79 -45 0 0 286 -45 0 0 81 -44 0 0 84 -14 0 0 85 -57 0 0 299 -57 0 0 301 -57 0 0 298 -57 0 0 300 -57 0 0 86 -81 0 0 87 -75 0 0 89 -21 0 0 97 -4 0 0 99 -18 0 0 332 -28 0 0 44 8 0 0 100 -4 0 0 101 -17 0 0 103 -25 0 0 171 -44 0 0 172 -43 0 0 45 -13 0 0 111 -17 0 0 46 8 0 0 113 -12 0 0 186 -92 0 0 39 -92 0 0 116 -6 0 0 117 -9 0 0 118 -50 0 0 119 -44 0 0 121 -57 0 0
EndChar
StartChar: B
Encoding: 66 66 35
Width: 611
Flags: W
HStem: 0 30<217.316 250> 331 32<238 289.408> 623 30<130 393> 637 16<130 142.4>
VStem: 431 108<191 214> 487 101<495 517>
DStem: 196 532 313 595 73 90 248 363
Fore
-8 0 m 1xe8
 -8 16 l 1
 48 26 55 32 73 90 c 1
 196 532 l 1
 203 556 207 581 207 596 c 0
 207 624 192 632 130 637 c 1xd8
 130 653 l 1
 388 653 l 2
 517 653 588 601 588 506 c 0xe4
 588 466 573 432 545 408 c 0
 513 380 484 368 413 351 c 1
 465 329 485 317 505 294 c 1
 527 272 539 237 539 200 c 0
 539 82 431 0 274 0 c 2
 -8 0 l 1xe8
238 331 m 1
 225 280 219 257 206 212 c 0
 183 132 171 84 171 72 c 0
 171 45 193 30 235 30 c 0
 357 30 431 96 431 204 c 0
 431 258 406 302 365 319 c 0
 345 327 303 331 238 331 c 1
313 595 m 2
 248 363 l 1
 338 363 386 370 420 390 c 0
 463 414 487 458 487 515 c 0
 487 589 450 623 370 623 c 0xe4
 331 623 319 617 313 595 c 2
EndSplineSet
KernsSLIF: 65 -23 0 0 225 -35 0 0 257 -23 0 0 259 -23 0 0 256 -23 0 0 262 -23 0 0 261 -23 0 0 79 -14 0 0 234 -6 0 0 287 -14 0 0 289 -14 0 0 286 -14 0 0 288 -14 0 0 233 -14 0 0 86 -32 0 0 87 -29 0 0 89 -39 0 0
EndChar
StartChar: C
Encoding: 67 67 36
Width: 667
Flags: W
HStem: -18 45<327 353> 630 36<465 483>
VStem: 66 112<221 255>
Fore
652 465 m 1
 634 468 l 1
 624 576 573 630 481 630 c 0
 415 630 352 602 304 553 c 0
 226 472 178 351 178 232 c 0
 178 103 242 27 353 27 c 0
 435 27 493 57 583 145 c 1
 600 131 l 1
 510 26 430 -18 327 -18 c 0
 174 -18 66 90 66 243 c 0
 66 465 259 666 472 666 c 0
 504 666 544 660 589 649 c 0
 610 644 622 642 630 642 c 0
 650 642 660 648 668 664 c 1
 689 664 l 1
 652 465 l 1
EndSplineSet
KernsSLIF: 65 -14 0 0 225 -30 0 0 257 -14 0 0 256 -14 0 0 262 -14 0 0 72 -13 0 0 75 -21 0 0 79 -19 0 0 287 -19 0 0 286 -19 0 0
EndChar
StartChar: D
Encoding: 68 68 37
Width: 722
Flags: W
HStem: 0 30<215 265> 623 30<130 393> 637 16<130 140.333>
VStem: 589 111<382 410>
DStem: 196 532 313 594 73 90 192 162
Fore
130 637 m 1xb0
 130 653 l 1xd0
 408 653 l 2
 586 653 700 548 700 384 c 0
 700 268 643 158 546 87 c 0
 469 31 362 0 245 0 c 2
 -8 0 l 1
 -8 16 l 1
 48 26 55 32 73 90 c 1
 196 532 l 2
 203 557 207 581 207 596 c 0
 207 623 192 631 130 637 c 1xb0
313 594 m 2
 192 162 l 2
 175 102 170 80 170 67 c 0
 170 41 189 30 235 30 c 0
 339 30 420 60 479 120 c 0
 547 188 589 300 589 408 c 0
 589 487 562 550 513 586 c 0
 481 610 431 623 374 623 c 0
 334 623 319 616 313 594 c 2
EndSplineSet
KernsSLIF: 65 -36 0 0 257 -36 0 0 259 -36 0 0 256 -36 0 0 258 -36 0 0 262 -36 0 0 261 -36 0 0 74 -32 0 0 84 -9 0 0 86 -42 0 0 87 -36 0 0 88 -40 0 0 89 -50 0 0
EndChar
StartChar: E
Encoding: 69 69 38
Width: 604
Flags: W
HStem: 0 33<231 499> 325 38<295 325> 620 33<130 441> 637 16<130 140.333>
DStem: 196 532 312 594 73 90 246 361
Fore
627 653 m 1xd0
 596 500 l 1
 575 502 l 1
 576 519 577 534 577 547 c 0
 577 607 542 620 385 620 c 0xe0
 329 620 318 616 312 594 c 2
 246 361 l 1
 281 362 313 363 325 363 c 0
 416 367 425 373 463 458 c 1
 481 454 l 1
 413 222 l 1
 393 227 l 1
 398 249 400 262 400 279 c 0
 400 296 398 305 393 310 c 0
 382 320 354 326 315 325 c 0
 303 325 272 326 237 328 c 1
 227 290 218 257 205 213 c 0
 180 125 169 78 169 67 c 0
 169 43 193 33 249 33 c 0
 324 33 392 43 429 60 c 0
 472 80 498 106 545 170 c 1
 561 162 l 1
 499 0 l 1
 -8 0 l 1
 -8 16 l 1
 48 26 56 33 73 90 c 1
 196 532 l 2
 201 550 207 585 207 596 c 0
 207 623 192 631 130 637 c 1xd0
 130 653 l 1xe0
 627 653 l 1xd0
EndSplineSet
EndChar
StartChar: F
Encoding: 70 70 39
Width: 611
Flags: W
HStem: 0 16<-8 -0.875 224.667 244> 325 36<248 320> 620 33<131 441> 637 16<131 141.833>
DStem: 197 532 314 594 74 90 248 361 197 532 239 328 74 90 177 105
Fore
629 653 m 1xd0
 597 500 l 1
 576 502 l 1
 577 514 577 515 578 521 c 0
 579 534 579 539 579 545 c 0
 579 607 543 620 375 620 c 0xe0
 334 620 320 614 314 594 c 1
 248 361 l 1
 416 363 419 364 464 454 c 1
 482 449 l 1
 406 215 l 1
 389 220 l 1
 395 251 397 263 397 279 c 0
 397 299 390 312 375 320 c 0
 366 324 359 325 320 325 c 0
 298 325 276 326 239 328 c 1
 177 105 l 2
 171 83 168 68 168 60 c 0
 168 30 186 19 244 16 c 1
 244 0 l 1
 -8 0 l 1
 -8 16 l 1
 49 24 56 30 74 90 c 1
 197 532 l 1
 204 556 208 581 208 596 c 0
 208 625 196 631 131 637 c 1xd0
 131 653 l 1xe0
 629 653 l 1xd0
EndSplineSet
KernsSLIF: 65 -72 0 0 257 -72 0 0 259 -72 0 0 256 -72 0 0 258 -72 0 0 262 -72 0 0 261 -72 0 0 74 -60 0 0 79 -40 0 0 286 -40 0 0 97 -77 0 0 323 -78 0 0 322 -52 0 0 241 -82 0 0 328 -70 0 0 44 -95 0 0 101 -83 0 0 335 -83 0 0 45 -45 0 0 105 -36 0 0 106 -41 0 0 111 -79 0 0 352 -79 0 0 351 -52 0 0 250 -75 0 0 249 -80 0 0 46 -99 0 0 114 -52 0 0 117 -50 0 0
EndChar
StartChar: G
Encoding: 71 71 40
Width: 722
Flags: W
HStem: -18 37<338 373> 300 19<456 485> 632 34<451 471>
VStem: 52 110<223 255>
Fore
708 662 m 1
 659 465 l 1
 641 468 l 1
 636 512 629 533 613 559 c 0
 583 605 528 632 463 632 c 0
 397 632 335 605 290 558 c 0
 211 474 162 347 162 224 c 0
 162 93 235 19 364 19 c 0
 409 19 447 31 469 53 c 0
 481 65 484 73 506 145 c 0
 528 219 534 247 534 269 c 0
 534 287 518 297 485 300 c 0
 481 300 468 302 456 303 c 1
 456 319 l 1
 722 319 l 1
 722 303 l 1
 657 299 641 287 625 231 c 1
 576 44 l 1
 499 1 427 -18 339 -18 c 0
 252 -18 179 9 128 60 c 0
 81 108 52 178 52 246 c 0
 52 466 244 666 455 666 c 0
 496 666 539 658 589 642 c 0
 611 635 623 632 633 632 c 0
 659 632 676 642 693 666 c 1
 708 662 l 1
EndSplineSet
KernsSLIF: 65 -17 0 0 225 -29 0 0 257 -17 0 0 259 -17 0 0 256 -17 0 0 258 -17 0 0 262 -17 0 0 261 -17 0 0 84 -13 0 0 86 -5 0 0 87 -2 0 0 89 -12 0 0
EndChar
StartChar: H
Encoding: 72 72 41
Width: 722
Flags: W
HStem: 0 16<230.5 238 355 364.286 617.333 628> 326 42<248 521> 637 16<130 140.333 388 403 520 528.286>
DStem: 196 532 302 563 73 90 248 368 196 532 236 326 73 90 170 82 521 326 685 563 456 90 553 82 579 532 685 563 533 368 553 82
Fore
767 653 m 1
 767 637 l 1
 710 627 702 621 685 563 c 1
 553 82 l 2
 551 74 550 68 550 58 c 0
 550 30 564 22 628 16 c 1
 628 0 l 1
 355 0 l 1
 355 16 l 1
 420 23 440 38 456 90 c 1
 521 326 l 1
 236 326 l 1
 170 82 l 2
 168 75 167 67 167 60 c 0
 167 31 178 24 238 16 c 1
 238 0 l 1
 -8 0 l 1
 -8 16 l 1
 48 26 55 32 73 90 c 1
 196 532 l 2
 203 557 207 580 207 594 c 0
 207 623 192 631 130 637 c 1
 130 653 l 1
 403 653 l 1
 403 637 l 1
 343 633 317 614 302 563 c 1
 248 368 l 1
 533 368 l 1
 579 532 l 2
 586 557 590 580 590 594 c 0
 590 622 578 630 520 637 c 1
 520 653 l 1
 767 653 l 1
EndSplineSet
EndChar
StartChar: I
Encoding: 73 73 42
Width: 339
Flags: W
HStem: 0 16<227.857 236> 637 16<137 145.286>
DStem: 196 532 302 563 73 90 179 120
Fore
-8 0 m 1
 -8 16 l 1
 48 26 55 32 73 90 c 1
 196 532 l 2
 203 557 207 580 207 594 c 0
 207 622 195 630 137 637 c 1
 137 653 l 1
 384 653 l 1
 384 637 l 1
 327 627 320 621 302 563 c 1
 179 120 l 2
 170 88 168 76 168 57 c 0
 168 29 179 23 236 16 c 1
 236 0 l 1
 -8 0 l 1
EndSplineSet
EndChar
StartChar: J
Encoding: 74 74 43
Width: 444
Flags: W
HStem: -18 31<111 124> 637 16<237 247.5 483.875 491>
VStem: -6 93<53 79>
DStem: 302 532 409 563 171 67 306 192
Fore
491 653 m 1
 491 637 l 1
 434 629 427 623 409 563 c 1
 306 192 l 2
 285 116 265 71 238 39 c 0
 207 2 162 -18 111 -18 c 0
 41 -18 -6 18 -6 70 c 0
 -6 102 13 124 40 124 c 0
 65 124 88 102 88 77 c 2
 88 68 l 1
 87 62 87 58 87 53 c 0
 87 26 98 13 122 13 c 0
 146 13 160 28 171 67 c 2
 302 532 l 2
 310 560 314 582 314 596 c 0
 314 623 300 631 237 637 c 1
 237 653 l 1
 491 653 l 1
EndSplineSet
KernsSLIF: 65 -40 0 0 225 -52 0 0 256 -40 0 0 262 -40 0 0
EndChar
StartChar: K
Encoding: 75 75 44
Width: 652
Flags: W
HStem: 0 16<231 240 592.5 603> 634 19<485 512>
DStem: 197 532 303 563 74 90 250 369 197 532 244 348 74 90 182 120 244 348 332 375 365 140 506 72
Fore
707 653 m 1
 707 637 l 1
 683 633 660 622 632 601 c 2
 332 375 l 1
 506 72 l 1
 534 25 540 22 603 16 c 1
 603 0 l 1
 328 0 l 1
 328 16 l 1
 341 18 352 19 357 19 c 0
 389 22 403 30 403 45 c 0
 403 64 389 99 365 140 c 2
 244 348 l 1
 182 120 l 1
 176 99 l 2
 170 79 168 70 168 60 c 0
 168 29 177 23 240 16 c 1
 240 0 l 1
 -8 0 l 1
 -8 16 l 1
 51 25 56 30 74 90 c 1
 197 532 l 2
 204 557 208 580 208 594 c 0
 208 623 193 631 131 637 c 1
 131 653 l 1
 404 653 l 1
 404 637 l 1
 345 633 318 613 303 563 c 1
 250 369 l 1
 402 475 l 2
 491 537 546 591 546 615 c 0
 546 626 536 632 512 634 c 0
 508 634 497 636 485 637 c 1
 485 653 l 1
 707 653 l 1
EndSplineSet
KernsSLIF: 67 -55 0 0 71 -53 0 0 79 -46 0 0 234 -45 0 0 287 -46 0 0 286 -46 0 0 83 6 0 0 84 21 0 0 97 -5 0 0 322 -5 0 0 241 -5 0 0 328 -5 0 0 101 -18 0 0 45 -57 0 0 111 -18 0 0 352 -18 0 0 351 -18 0 0 117 -10 0 0 362 -10 0 0 121 -89 0 0
EndChar
StartChar: L
Encoding: 76 76 45
Width: 556
Flags: W
HStem: 0 36<231 501> 637 16<130 140.333 388 403>
DStem: 196 532 302 563 73 90 179 120
Fore
403 653 m 1
 403 637 l 1
 343 633 317 614 302 563 c 1
 179 120 l 2
 174 101 169 77 169 70 c 0
 169 44 194 36 270 36 c 0
 357 36 398 42 433 59 c 0
 477 81 504 113 539 185 c 1
 559 179 l 1
 501 0 l 1
 -8 0 l 1
 -8 16 l 1
 48 26 55 32 73 90 c 1
 196 532 l 2
 203 557 207 580 207 594 c 0
 207 623 192 631 130 637 c 1
 130 653 l 1
 403 653 l 1
EndSplineSet
KernsSLIF: 65 44 0 0 225 32 0 0 257 44 0 0 256 44 0 0 262 44 0 0 67 6 0 0 264 4 0 0 71 11 0 0 79 10 0 0 287 10 0 0 289 10 0 0 286 10 0 0 288 10 0 0 290 10 0 0 83 20 0 0 84 -13 0 0 85 -8 0 0 298 -8 0 0 86 -55 0 0 87 -48 0 0 89 -20 0 0 45 47 0 0 186 -92 0 0 39 -92 0 0 117 12 0 0 362 10 0 0 121 -26 0 0
EndChar
StartChar: M
Encoding: 77 77 46
Width: 828
Flags: W
HStem: 0 16<-18 -9.33333 167.25 180 461 470.286 722.667 734> 637 16<134 150.667>
DStem: 186 518 236 546 80 146 118 113 236 546 315 653 297 0 370 160 691 561 791 563 562 91 668 120 706 653 691 561 370 160 314 0
Fore
873 653 m 1
 873 637 l 1
 814 628 809 623 791 563 c 1
 668 120 l 1
 659 89 657 76 657 59 c 0
 657 28 666 22 734 16 c 1
 734 0 l 1
 461 0 l 1
 461 16 l 1
 526 23 546 38 562 91 c 1
 691 561 l 1
 314 0 l 1
 297 0 l 1
 236 546 l 1
 118 113 l 1
 113 96 109 70 109 60 c 0
 109 32 129 20 180 16 c 1
 180 0 l 1
 -18 0 l 1
 -18 16 l 1
 34 22 49 42 80 146 c 1
 186 518 l 2
 187 522 188 526 189 529 c 0
 193 544 196 555 198 559 c 0
 204 577 208 592 208 600 c 0
 208 623 184 634 134 637 c 1
 134 653 l 1
 315 653 l 1
 370 160 l 1
 706 653 l 1
 873 653 l 1
EndSplineSet
EndChar
StartChar: N
Encoding: 78 78 47
Width: 657
Flags: W
HStem: 0 16<-18 -10.875 167.25 180> 637 16<118 129.75 530 541.4>
DStem: 204 581 233 535 85 164 119 113 233 535 279 653 463 -15 487 154 589 534 625 488 487 154 481 -15
Fore
729 653 m 1
 729 637 l 1
 666 623 662 617 625 488 c 2
 481 -15 l 1
 463 -15 l 1
 233 535 l 1
 119 113 l 1
 113 92 110 72 110 59 c 0
 110 31 129 20 180 16 c 1
 180 0 l 1
 -18 0 l 1
 -18 16 l 1
 39 24 47 36 85 164 c 1
 204 581 l 1
 186 620 165 633 118 637 c 1
 118 653 l 1
 279 653 l 1
 487 154 l 1
 589 534 l 1
 589 535 590 539 591 542 c 0
 598 562 600 574 600 586 c 0
 600 622 587 632 530 637 c 1
 530 653 l 1
 729 653 l 1
EndSplineSet
KernsSLIF: 65 -20 0 0 225 -32 0 0 257 -20 0 0 256 -20 0 0 262 -20 0 0 67 -21 0 0 264 -20 0 0 71 -14 0 0 79 -20 0 0 287 -20 0 0 286 -20 0 0 97 -22 0 0 323 -23 0 0 322 -23 0 0 241 -27 0 0 328 -23 0 0 44 -13 0 0 101 -28 0 0 335 -30 0 0 111 -25 0 0 352 -27 0 0 351 -27 0 0 249 -27 0 0 46 -16 0 0 117 -24 0 0 362 -25 0 0
EndChar
StartChar: O
Encoding: 79 79 48
Width: 722
Flags: W
HStem: -18 33<276 301> 633 33<459 482>
VStem: 60 105<184 221>
Fore
474 666 m 0
 608 666 706 559 699 418 c 0
 688 192 486 -18 278 -18 c 0
 151 -18 60 81 60 221 c 0
 60 338 119 460 220 553 c 0
 300 626 390 666 474 666 c 0
465 633 m 0
 392 633 331 595 275 514 c 0
 215 427 165 278 165 184 c 0
 165 76 211 15 295 15 c 0
 365 15 427 54 482 133 c 0
 547 227 594 373 594 481 c 0
 594 575 544 633 465 633 c 0
EndSplineSet
KernsSLIF: 65 -38 0 0 225 -70 0 0 257 -38 0 0 256 -38 0 0 262 -38 0 0 84 -3 0 0 86 -45 0 0 87 -39 0 0 88 -41 0 0 89 -51 0 0
EndChar
StartChar: P
Encoding: 80 80 49
Width: 603
Flags: W
HStem: 0 16<-8 -0.875> 305 37<293 328> 623 30<138 377> 637 16<138 146.143>
VStem: 494 103<504 517>
DStem: 192 515 314 595 74 90 243 347 192 515 234 313 74 90 181 120
Fore
138 637 m 1xd8
 138 653 l 1xe8
 386 653 l 2
 522 653 597 600 597 504 c 0
 597 445 568 390 518 353 c 0
 475 322 408 305 326 305 c 0
 285 305 259 307 234 313 c 1
 181 120 l 2
 171 84 169 74 169 62 c 0
 169 28 174 25 237 16 c 1
 237 0 l 1
 -8 0 l 1
 -8 16 l 1
 49 24 56 30 74 90 c 1
 192 515 l 1
 205 560 209 581 209 595 c 0
 209 621 195 630 138 637 c 1xd8
314 595 m 2
 243 347 l 1
 270 343 278 342 295 342 c 0
 357 342 396 350 427 367 c 0
 471 393 494 439 494 504 c 0
 494 551 483 581 457 599 c 0
 437 613 399 623 360 623 c 0
 332 623 320 616 314 595 c 2
EndSplineSet
KernsSLIF: 65 -79 0 0 225 -116 0 0 257 -79 0 0 256 -79 0 0 262 -79 0 0 74 -89 0 0 97 -74 0 0 323 -74 0 0 322 -64 0 0 241 -80 0 0 328 -74 0 0 44 -118 0 0 101 -79 0 0 335 -79 0 0 45 -64 0 0 111 -73 0 0 352 -73 0 0 351 -64 0 0 250 -67 0 0 249 -74 0 0 46 -121 0 0
EndChar
StartChar: Q
Encoding: 81 81 50
Width: 722
Flags: W
HStem: -183 68<429 484> 633 33<448 483>
VStem: 60 105<183 221> 594 105<433 480>
Fore
279 -16 m 1
 225 -73 l 1
 250 -73 l 1
 250 -73 252 -73 256 -72 c 0
 262 -71 309 -80 361 -93 c 0
 437 -111 458 -115 484 -115 c 0
 556 -115 597 -96 653 -38 c 1
 668 -49 l 1
 642 -85 629 -99 605 -117 c 0
 554 -157 484 -183 429 -183 c 0
 392 -183 338 -173 277 -156 c 0
 233 -144 204 -138 184 -138 c 0
 145 -138 107 -148 69 -169 c 1
 59 -154 l 1
 136 -100 145 -92 236 -12 c 1
 192 -2 170 8 144 29 c 0
 90 71 60 139 60 221 c 0
 60 338 119 459 220 553 c 1
 300 625 390 666 470 666 c 0
 603 666 699 568 699 433 c 0
 699 275 598 113 450 30 c 0
 394 -1 356 -11 279 -16 c 1
465 633 m 0
 392 633 331 595 275 514 c 0
 214 427 165 278 165 183 c 0
 165 78 212 17 293 17 c 0
 366 17 428 56 483 135 c 0
 547 227 594 374 594 480 c 0
 594 575 545 633 465 633 c 0
EndSplineSet
EndChar
StartChar: R
Encoding: 82 82 51
Width: 616
Flags: W
HStem: 0 16<228.375 236 557.333 572> 623 30<137 387>
VStem: 488 105<495 513>
DStem: 196 532 313 595 73 90 248 366 196 532 236 329 73 90 180 120 301 324 396 333 424 0 489 88
Fore
572 16 m 1
 572 0 l 1
 424 0 l 1
 301 324 l 1
 236 329 l 1
 180 120 l 1
 171 85 168 72 168 62 c 0
 168 29 175 24 236 16 c 1
 236 0 l 1
 -8 0 l 1
 -8 16 l 1
 48 25 55 31 73 90 c 1
 196 532 l 1
 203 559 208 583 208 595 c 0
 208 606 202 618 194 623 c 0
 184 630 179 631 137 637 c 1
 137 653 l 1
 385 653 l 2
 519 653 593 602 593 509 c 0
 593 464 575 425 542 396 c 0
 506 364 473 350 396 333 c 1
 489 88 l 1
 508 36 528 19 572 16 c 1
313 595 m 2
 248 366 l 1
 272 362 283 361 299 361 c 0
 424 361 488 412 488 511 c 0
 488 585 447 623 364 623 c 0
 332 623 319 616 313 595 c 2
EndSplineSet
KernsSLIF: 67 -26 0 0 264 -25 0 0 71 -20 0 0 79 -26 0 0 234 -18 0 0 287 -26 0 0 286 -26 0 0 85 -36 0 0 298 -36 0 0 86 -31 0 0 87 -28 0 0 89 -19 0 0 97 -3 0 0 323 -3 0 0 322 -3 0 0 241 -3 0 0 328 -3 0 0 101 -15 0 0 335 -15 0 0 45 -29 0 0 111 -15 0 0 352 -15 0 0 351 -15 0 0 250 -15 0 0 117 -7 0 0 363 -7 0 0 362 -7 0 0
EndChar
StartChar: S
Encoding: 83 83 52
Width: 500
Flags: W
HStem: -18 35<208 231> 633 33<309 331>
VStem: 131 88<499 531> 344 87<150 182>
Fore
468 468 m 1
 450 471 l 1
 448 537 440 571 418 596 c 0
 397 620 366 633 329 633 c 0
 261 633 219 594 219 531 c 0
 219 482 228 468 318 377 c 0
 408 286 431 247 431 182 c 0
 431 69 344 -18 229 -18 c 0
 198 -18 171 -12 125 5 c 0
 99 14 84 18 73 18 c 0
 53 18 42 8 35 -15 c 1
 17 -15 l 1
 51 208 l 1
 71 206 l 1
 70 199 69 191 69 183 c 0
 69 88 132 17 215 17 c 0
 288 17 344 75 344 150 c 0
 344 193 331 219 284 268 c 0
 277 276 263 291 245 310 c 0
 228 329 215 343 206 352 c 0
 146 416 131 445 131 499 c 0
 131 597 205 666 309 666 c 0
 340 666 372 661 394 652 c 0
 417 644 428 641 440 641 c 0
 462 641 471 646 485 667 c 1
 508 667 l 1
 468 468 l 1
EndSplineSet
KernsSLIF: 65 -2 0 0 225 -14 0 0 257 -2 0 0 256 -2 0 0 262 -2 0 0 84 1 0 0 86 5 0 0 87 8 0 0 89 -1 0 0 116 -13 0 0
EndChar
StartChar: T
Encoding: 84 84 53
Width: 556
Flags: W
HStem: 0 16<65 78.2 338 355> 618 35<101 315 101 492>
DStem: 315 618 416 618 171 90 277 120
Fore
633 653 m 1
 589 490 l 1
 572 492 l 1
 574 509 575 524 575 537 c 0
 575 593 543 618 471 618 c 2
 416 618 l 1
 277 120 l 1
 268 86 265 74 265 61 c 0
 265 31 277 22 317 19 c 0
 323 19 338 17 355 16 c 1
 355 0 l 1
 65 0 l 1
 65 16 l 1
 131 21 155 37 171 90 c 1
 315 618 l 1
 162 620 130 603 77 495 c 1
 59 499 l 1
 101 653 l 1
 633 653 l 1
EndSplineSet
KernsSLIF: 65 -33 0 0 225 -45 0 0 257 -33 0 0 259 -33 0 0 256 -33 0 0 258 -33 0 0 262 -33 0 0 261 -33 0 0 67 -15 0 0 71 -7 0 0 74 -39 0 0 79 -20 0 0 234 -8 0 0 287 -20 0 0 289 -20 0 0 286 -20 0 0 288 -20 0 0 233 -20 0 0 290 -20 0 0 83 -2 0 0 86 41 0 0 87 43 0 0 89 33 0 0 97 -81 0 0 241 -81 0 0 99 -86 0 0 58 -84 0 0 44 -70 0 0 101 -90 0 0 103 -102 0 0 171 -102 0 0 172 -101 0 0 45 -68 0 0 105 -16 0 0 106 -20 0 0 111 -87 0 0 249 -89 0 0 46 -71 0 0 114 -87 0 0 115 -74 0 0 59 -92 0 0 117 -86 0 0 118 -72 0 0 119 -69 0 0 121 -70 0 0
EndChar
StartChar: U
Encoding: 85 85 54
Width: 722
Flags: W
HStem: -18 41<318 343> 637 16<127 138.167 390.286 400 566 576.667>
VStem: 102 90<139 149>
Fore
765 653 m 1
 765 637 l 1
 703 623 699 618 661 488 c 2
 578 203 l 2
 534 53 451 -18 320 -18 c 0
 194 -18 102 51 102 147 c 0
 102 187 115 251 145 359 c 2
 198 551 l 1
 202 568 205 584 205 596 c 0
 205 625 194 631 127 637 c 1
 127 653 l 1
 400 653 l 1
 400 637 l 1
 332 630 316 616 295 546 c 0
 294 541 292 534 290 527 c 0
 223 296 192 175 192 141 c 0
 192 71 249 23 332 23 c 0
 402 23 456 54 495 116 c 0
 517 150 532 190 550 255 c 0
 555 274 559 291 563 304 c 0
 611 473 637 575 637 591 c 0
 637 604 630 618 620 624 c 0
 608 632 598 634 566 637 c 1
 566 653 l 1
 765 653 l 1
EndSplineSet
KernsSLIF: 65 -50 0 0 225 -69 0 0 257 -50 0 0 259 -50 0 0 256 -50 0 0 262 -50 0 0 261 -50 0 0 44 -35 0 0 109 -28 0 0 110 -29 0 0 112 -32 0 0 46 -39 0 0 114 -41 0 0
EndChar
StartChar: V
Encoding: 86 86 55
Width: 611
Flags: W
HStem: -18 21G<240 259> 637 16<76 84 308 317 502 511 665 688>
DStem: 155 502 241 571 240 -18 307 128
Fore
688 653 m 1
 688 637 l 1
 665 636 649 624 632 597 c 2
 259 -18 l 1
 240 -18 l 1
 155 502 l 1
 134 627 132 630 76 637 c 1
 76 653 l 1
 317 653 l 1
 317 637 l 1
 254 630 240 620 240 586 c 0
 240 580 240 576 241 571 c 1
 307 128 l 1
 513 484 l 2
 546 541 565 584 565 603 c 0
 565 622 547 632 502 637 c 1
 502 653 l 1
 688 653 l 1
EndSplineSet
KernsSLIF: 65 -66 0 0 225 -102 0 0 257 -66 0 0 259 -66 0 0 256 -66 0 0 258 -66 0 0 262 -66 0 0 261 -66 0 0 67 -48 0 0 71 -42 0 0 79 -48 0 0 287 -48 0 0 289 -48 0 0 286 -48 0 0 288 -48 0 0 233 -48 0 0 290 -48 0 0 83 -15 0 0 84 32 0 0 97 -67 0 0 241 -72 0 0 58 -82 0 0 44 -76 0 0 101 -74 0 0 103 -84 0 0 171 -82 0 0 172 -81 0 0 45 -45 0 0 105 -16 0 0 111 -70 0 0 249 -72 0 0 46 -80 0 0 114 -45 0 0 59 -79 0 0 117 -40 0 0 121 -16 0 0
EndChar
StartChar: W
Encoding: 87 87 56
Width: 833
Flags: W
HStem: -18 21G<212 231 508 528> 416 20G<453 458> 637 16<71 79.25 298.286 307 367 396 594.2 605 721 731.8>
DStem: 150 499 235 568 212 -18 279 162 451 510 453 436 279 162 231 -18 458 436 538 564 508 -18 578 162 765 530 831 565 578 162 528 -18
Fore
906 653 m 1
 906 637 l 1
 868 625 858 616 831 565 c 2
 528 -18 l 1
 508 -18 l 1
 458 436 l 1
 453 436 l 1
 231 -18 l 1
 212 -18 l 1
 150 499 l 1
 138 591 134 610 122 621 c 0
 113 630 104 633 71 637 c 1
 71 653 l 1
 307 653 l 1
 307 637 l 1
 246 630 234 621 234 582 c 0
 234 580 234 573 235 568 c 1
 279 162 l 1
 451 510 l 1
 442 579 l 1
 435 628 425 635 367 637 c 1
 367 653 l 1
 605 653 l 1
 605 637 l 1
 551 632 537 619 537 578 c 1
 538 564 l 1
 578 162 l 1
 765 530 l 2
 778 556 786 581 786 597 c 0
 786 625 775 632 721 637 c 1
 721 653 l 1
 906 653 l 1
EndSplineSet
KernsSLIF: 65 -57 0 0 225 -85 0 0 257 -57 0 0 259 -57 0 0 256 -57 0 0 258 -57 0 0 262 -57 0 0 261 -57 0 0 67 -39 0 0 71 -33 0 0 79 -39 0 0 287 -39 0 0 289 -39 0 0 286 -39 0 0 288 -39 0 0 233 -39 0 0 290 -39 0 0 83 -17 0 0 84 30 0 0 97 -53 0 0 241 -58 0 0 58 -77 0 0 44 -58 0 0 101 -60 0 0 103 -75 0 0 171 -68 0 0 172 -67 0 0 45 -32 0 0 105 -18 0 0 111 -56 0 0 249 -58 0 0 46 -62 0 0 114 -40 0 0 59 -74 0 0 117 -35 0 0 121 -11 0 0
EndChar
StartChar: X
Encoding: 88 88 57
Width: 611
Flags: W
HStem: 0 16<185 185 294 307.2 558.25 567> 637 16<76 87.6 332.143 340 447 455.167>
DStem: 168 576 284 540 274 313 343 393 292 269 361 348 359 104 463 90 488 560 530 542 343 393 361 348
Fore
655 653 m 1
 655 637 l 1
 612 623 582 600 530 542 c 1
 361 348 l 1
 463 90 l 1
 488 30 497 24 567 16 c 1
 567 0 l 1
 294 0 l 1
 294 16 l 1
 360 21 370 26 370 55 c 0
 370 70 366 86 359 104 c 2
 292 269 l 1
 141 97 l 2
 128 82 120 65 120 50 c 0
 120 25 137 16 185 16 c 1
 185 0 l 1
 -29 0 l 1
 -29 16 l 1
 24 27 52 52 191 216 c 0
 204 232 237 271 274 313 c 1
 168 576 l 2
 149 622 134 632 76 637 c 1
 76 653 l 1
 340 653 l 1
 340 637 l 1
 285 630 269 621 269 596 c 0
 269 583 273 566 284 540 c 1
 343 393 l 1
 488 560 l 2
 502 576 508 588 508 601 c 0
 508 624 496 631 447 637 c 1
 447 653 l 1
 655 653 l 1
EndSplineSet
KernsSLIF: 67 -50 0 0 79 -44 0 0 286 -44 0 0 81 -42 0 0 97 -3 0 0 101 -15 0 0 45 -41 0 0 111 -15 0 0 117 -7 0 0 121 -67 0 0
EndChar
StartChar: Y
Encoding: 89 89 58
Width: 556
Flags: W
HStem: 0 16<78 94.5 351 367> 637 16<320 330 444 456>
DStem: 244 302 344 306 183 90 315 205 363 393 563 576 325 347 344 306
Fore
91 637 m 1
 91 653 l 1
 330 653 l 1
 330 637 l 1
 270 631 258 625 258 601 c 0
 258 586 269 543 294 457 c 0
 310 404 313 391 325 347 c 1
 363 393 l 1
 467 514 513 579 513 606 c 0
 513 623 500 631 471 634 c 0
 467 635 456 636 444 637 c 1
 444 653 l 1
 633 653 l 1
 633 637 l 1
 603 623 595 616 563 576 c 2
 344 306 l 1
 315 205 l 2
 314 201 312 194 309 185 c 0
 285 107 278 77 278 56 c 0
 278 31 292 21 331 19 c 0
 337 18 351 17 367 16 c 1
 367 0 l 1
 78 0 l 1
 78 16 l 1
 144 20 166 36 183 90 c 1
 244 302 l 1
 167 571 l 1
 150 626 147 629 91 637 c 1
EndSplineSet
KernsSLIF: 65 -27 0 0 225 -39 0 0 257 -27 0 0 259 -27 0 0 256 -27 0 0 258 -27 0 0 262 -27 0 0 261 -27 0 0 67 -52 0 0 71 -45 0 0 79 -52 0 0 287 -52 0 0 289 -52 0 0 286 -52 0 0 288 -52 0 0 233 -52 0 0 290 -52 0 0 83 -15 0 0 84 32 0 0 97 -72 0 0 241 -75 0 0 58 -78 0 0 44 -64 0 0 101 -78 0 0 103 -94 0 0 171 -93 0 0 172 -92 0 0 45 -60 0 0 105 -16 0 0 111 -75 0 0 249 -77 0 0 112 -52 0 0 46 -65 0 0 59 -86 0 0 117 -58 0 0 118 -32 0 0
EndChar
StartChar: Z
Encoding: 90 90 59
Width: 556
Flags: W
HStem: 0 36<123 499> 617 36<120 473>
DStem: 473 617 606 639 -6 14 123 36
Fore
606 653 m 1
 606 639 l 1
 123 36 l 1
 284 36 l 2
 366 36 416 44 450 64 c 0
 484 83 502 107 534 171 c 1
 553 168 l 1
 499 0 l 1
 -6 0 l 1
 -6 14 l 1
 473 617 l 1
 302 617 l 2
 227 617 174 604 145 580 c 0
 126 563 114 546 93 502 c 1
 74 507 l 1
 120 653 l 1
 606 653 l 1
EndSplineSet
KernsSLIF: 118 -12 0 0 121 -28 0 0
EndChar
StartChar: bracketleft
Encoding: 91 91 60
Width: 389
Flags: W
HStem: -153 27<148 209> 636 27<218 384>
DStem: 218 663 275 601 21 -153 115 -77
Fore
384 636 m 1
 322 636 l 2
 293 636 281 627 275 601 c 2
 115 -77 l 2
 111 -93 111 -93 111 -98 c 0
 111 -117 128 -126 160 -126 c 2
 216 -126 l 1
 209 -153 l 1
 21 -153 l 1
 218 663 l 1
 391 663 l 1
 384 636 l 1
EndSplineSet
EndChar
StartChar: backslash
Encoding: 92 92 61
Width: 278
Flags: W
HStem: -18 21G<248 319> 646 20G<-41 31>
DStem: -41 666 31 666 248 -18 319 -18
Fore
-41 666 m 1
 31 666 l 1
 319 -18 l 1
 248 -18 l 1
 -41 666 l 1
EndSplineSet
EndChar
StartChar: bracketright
Encoding: 93 93 62
Width: 389
Flags: W
HStem: -153 27<18 185> 636 27<192 253>
DStem: 288 588 382 663 127 -90 185 -153
Fore
19 -126 m 1
 81 -126 l 2
 111 -126 120 -119 127 -90 c 2
 288 588 l 2
 292 604 292 605 292 609 c 0
 292 627 275 636 243 636 c 2
 186 636 l 1
 193 663 l 1
 382 663 l 1
 185 -153 l 1
 12 -153 l 1
 19 -126 l 1
EndSplineSet
EndChar
StartChar: asciicircum
Encoding: 94 94 63
Width: 422
Flags: W
HStem: 646 20G<181 241>
DStem: 181 666 211 590 0 301 68 301 211 590 241 666 354 301 422 301
Fore
68 301 m 1
 0 301 l 1
 181 666 l 1
 241 666 l 1
 422 301 l 1
 354 301 l 1
 211 590 l 1
 68 301 l 1
EndSplineSet
EndChar
StartChar: underscore
Encoding: 95 95 64
Width: 500
Flags: W
HStem: -125 50<0 500>
Fore
500 -125 m 1
 0 -125 l 1
 0 -75 l 1
 500 -75 l 1
 500 -125 l 1
EndSplineSet
EndChar
StartChar: quoteleft
Encoding: 96 8216 65
Width: 333
Flags: W
HStem: 436 21G<212.5 243.5>
Fore
301 666 m 1
 310 649 l 1
 258 614 235 587 235 560 c 0
 235 550 240 542 255 528 c 0
 274 511 280 500 280 483 c 0
 280 456 258 436 229 436 c 0
 196 436 171 467 171 507 c 0
 171 563 217 619 301 666 c 1
EndSplineSet
KernsSLIF: 65 -78 1 0 225 -131 1 0 257 -78 1 0 256 -78 1 0 262 -78 1 0 84 -9 1 0 86 -8 1 0 87 -5 1 0 89 -15 1 0
EndChar
StartChar: a
Encoding: 97 97 66
Width: 500
Flags: W
HStem: -11 49<119 159> 421 20G<237 324.5>
VStem: 17 84<98 118> 297 73<31 54>
DStem: 458 441 458 441 397 434 465 438
Fore
464 110 m 1
 476 100 l 1
 402 9 377 -10 337 -10 c 0
 309 -10 297 2 297 31 c 0
 297 55 300 68 320 146 c 1
 232 22 189 -11 119 -11 c 0
 55 -11 17 30 17 100 c 0
 17 258 171 441 303 441 c 0
 346 441 375 420 383 383 c 1
 394 431 l 1
 397 434 l 1
 458 441 l 1
 465 438 l 1
 463 429 462 427 459 417 c 0
 412 245 370 74 370 54 c 0
 370 47 376 41 384 41 c 0
 393 41 406 51 436 82 c 0
 443 90 449 95 464 110 c 1
309 419 m 0
 269 422 222 390 182 332 c 0
 139 270 101 167 101 113 c 0
 101 67 124 38 159 38 c 0
 188 38 222 55 246 82 c 0
 315 156 365 274 365 358 c 0
 365 393 343 417 309 419 c 0
EndSplineSet
KernsSLIF: 106 -22 0 0 39 -28 0 0 118 1 0 0 119 4 0 0 121 2 0 0
EndChar
StartChar: b
Encoding: 98 98 67
Width: 500
Flags: W
HStem: -11 23<150 168> 392 49<318 357>
VStem: 23 86<40 46> 388 85<304 323>
DStem: 159 547 268 678 23 46 164 290
Fore
110 643 m 1
 110 660 l 1
 177 668 213 674 263 683 c 1
 268 678 l 1
 164 290 l 1
 235 400 287 441 357 441 c 0
 424 441 473 391 473 321 c 0
 473 164 307 -11 156 -11 c 0
 100 -11 23 19 23 42 c 2
 23 46 l 1
 159 547 l 1
 161 554 l 1
 162 559 164 566 166 573 c 0
 172 595 175 607 175 616 c 0
 175 638 169 641 110 643 c 1
318 392 m 0
 270 392 225 354 181 277 c 0
 139 203 109 106 109 46 c 0
 109 23 124 12 155 12 c 0
 198 12 241 33 278 71 c 0
 337 133 388 240 388 306 c 0
 388 359 361 392 318 392 c 0
EndSplineSet
KernsSLIF: 118 -10 0 0 119 -7 0 0 121 -3 0 0
EndChar
StartChar: c
Encoding: 99 99 68
Width: 444
Flags: W
HStem: -11 36<177 207> 420 21<301 322>
VStem: 30 86<139 150> 338 87<350 362>
Fore
350 106 m 1
 366 96 l 1
 306 20 251 -11 177 -11 c 0
 84 -11 30 44 30 139 c 0
 30 295 170 441 320 441 c 0
 380 441 425 406 425 360 c 0
 425 334 404 314 377 314 c 0
 353 314 338 328 338 352 c 0
 338 361 340 368 347 381 c 0
 351 390 353 395 353 400 c 0
 353 412 338 420 315 420 c 0
 276 420 236 402 207 372 c 0
 151 313 116 224 116 139 c 0
 116 68 150 25 207 25 c 0
 256 25 295 47 350 106 c 1
EndSplineSet
KernsSLIF: 104 -30 0 0 107 -29 0 0
EndChar
StartChar: d
Encoding: 100 100 69
Width: 500
Flags: W
HStem: -11 48<120 160> 421 20G<242 326.5>
VStem: 15 87<103 123> 287 76<32 60>
Fore
463 111 m 1
 475 101 l 1
 423 28 371 -13 329 -13 c 0
 304 -13 287 5 287 32 c 0
 287 55 289 70 300 121 c 1
 232 21 188 -11 120 -11 c 0
 55 -11 15 32 15 103 c 0
 15 253 177 441 307 441 c 0
 346 441 364 425 372 383 c 1
 416 547 l 2
 430 598 431 604 431 617 c 0
 431 638 424 641 369 643 c 1
 369 660 l 1
 433 666 469 672 522 683 c 1
 527 678 l 1
 476 478 455 398 428 306 c 0
 395 196 363 74 363 60 c 0
 363 49 371 40 381 40 c 0
 398 40 409 49 463 111 c 1
311 418 m 0
 283 420 246 401 218 372 c 0
 152 302 102 186 102 103 c 0
 102 64 126 37 160 37 c 0
 252 37 356 209 356 361 c 0
 356 397 341 416 311 418 c 0
EndSplineSet
EndChar
StartChar: e
Encoding: 101 101 70
Width: 444
Flags: W
HStem: -11 45<163 212> 418 23<311 332>
VStem: 31 87<109 134> 346 66<371 381>
Fore
358 109 m 1
 370 97 l 1
 311 30 234 -11 163 -11 c 0
 85 -11 31 45 31 126 c 0
 31 276 188 441 332 441 c 0
 382 441 412 415 412 373 c 0
 412 287 306 211 156 190 c 2
 128 186 l 1
 120 154 118 139 118 124 c 0
 118 70 155 34 212 34 c 0
 255 34 286 50 358 109 c 1
152 252 m 2
 135 208 l 1
 221 229 259 247 296 282 c 0
 327 312 346 348 346 379 c 0
 346 402 332 418 311 418 c 0
 260 418 186 341 152 252 c 2
EndSplineSet
KernsSLIF: 39 -21 0 0 116 -16 0 0 119 2 0 0 120 -10 0 0 121 4 0 0
EndChar
StartChar: f
Encoding: 102 102 71
Width: 278
Flags: W
HStem: -207 21<-68 -58> 396 32<41 125 211 313> 656 22<331 340>
VStem: -147 67<-170 -146> -147 76<-148 -141> 355 69<613 644>
DStem: 125 396 204 396 37 -24 132 76
Fore
35 396 m 1xf4
 42 428 l 1
 134 428 l 1
 164 524 184 570 214 609 c 0
 250 656 289 678 338 678 c 0
 387 678 424 650 424 613 c 0
 424 591 405 573 382 573 c 0
 360 573 345 589 345 613 c 0
 345 620 347 625 351 634 c 0
 354 639 355 641 355 644 c 0
 355 651 346 656 333 656 c 0
 277 656 240 585 211 428 c 1
 319 428 l 1
 313 396 l 1
 204 396 l 1
 132 76 l 1
 91 -108 21 -207 -68 -207 c 0
 -112 -207 -147 -180 -147 -146 c 0xf4
 -147 -123 -131 -105 -110 -105 c 0
 -89 -105 -71 -122 -71 -143 c 0xec
 -71 -149 -72 -153 -76 -159 c 0
 -79 -164 -80 -167 -80 -170 c 0
 -80 -179 -72 -186 -60 -186 c 0
 -18 -186 15 -131 37 -24 c 1
 125 396 l 1
 35 396 l 1xf4
EndSplineSet
KernsSLIF: 97 -26 0 0 323 -27 0 0 322 -2 0 0 241 -30 0 0 328 -17 0 0 101 -32 0 0 335 -34 0 0 102 30 0 0 105 17 0 0 106 13 0 0 108 42 0 0 111 -29 0 0 352 -30 0 0 351 -2 0 0 250 -24 0 0 249 -31 0 0 39 18 0 0 115 -20 0 0 116 18 0 0
EndChar
StartChar: g
Encoding: 103 103 72
Width: 500
Flags: W
HStem: -206 22<170 201> 151 21<231 246> 366 39<411 472> 419 22<283.463 299>
VStem: 8 55<-95 -77> 98 74<78 114 247 270> 325 60<-90 -60> 352 79<310 348>
Fore
472 405 m 1xfe
 472 366 l 1
 422 366 l 1
 428 346 431 326 431 310 c 0xfd
 431 232 337 151 246 151 c 0
 237 151 223 152 215 154 c 0
 212 155 210 155 208 155 c 0
 195 155 172 129 172 114 c 0
 172 99 198 83 242 72 c 0
 337 47 385 3 385 -60 c 0
 385 -147 301 -206 175 -206 c 0
 74 -206 8 -161 8 -92 c 0
 8 -46 26 -26 125 39 c 1
 106 53 98 65 98 78 c 0
 98 102 116 122 175 162 c 1
 118 188 96 218 96 270 c 0
 96 364 186 441 297 441 c 0
 335 441 368 431 395 413 c 0
 403 407 408 405 411 405 c 2
 472 405 l 1xfe
148 28 m 0
 140 28 98 -5 85 -22 c 0
 69 -41 63 -58 63 -82 c 0
 63 -146 110 -184 190 -184 c 0
 267 -184 325 -144 325 -90 c 0xfe
 325 -44 288 -16 182 17 c 0
 166 22 156 25 153 26 c 0
 151 27 149 28 148 28 c 0
296 419 m 0
 231 419 174 339 174 247 c 0
 174 200 196 172 234 172 c 0
 268 172 299 194 321 235 c 0
 340 269 352 313 352 348 c 0xfd
 352 395 333 419 296 419 c 0
EndSplineSet
KernsSLIF: 97 -41 0 0 322 -42 0 0 241 -46 0 0 328 -42 0 0 101 -45 0 0 335 -45 0 0 108 -46 0 0 352 -41 0 0 351 -41 0 0 114 -21 0 0
EndChar
StartChar: h
Encoding: 104 104 73
Width: 500
Flags: W
HStem: -9 47<332 383> 390 51<342 382> 641 15<111 119.571>
VStem: 288 79<33 56> 370 78<363 374>
DStem: 154 512 273 678 19 0 153 230
Fore
465 117 m 1
 478 105 l 1
 418 18 383 -9 332 -9 c 0
 305 -9 288 7 288 33 c 0
 288 45 295 76 308 125 c 2
 363 332 l 2
 367 348 370 361 370 365 c 0
 370 378 357 390 342 390 c 0
 307 390 239 328 187 249 c 0
 147 188 134 154 94 0 c 1
 19 0 l 1
 154 512 l 2
 160 534 163 548 164 549 c 0
 173 578 178 603 178 617 c 0
 178 631 154 648 140 642 c 0
 139 641 138 641 137 641 c 2
 111 641 l 1
 111 656 l 1
 171 663 210 670 268 683 c 1
 273 678 l 1
 153 230 l 1
 246 375 317 441 382 441 c 0
 421 441 448 414 448 374 c 0
 448 350 429 276 400 181 c 0
 383 129 367 66 367 56 c 0
 367 47 374 38 383 38 c 0
 399 38 411 49 465 117 c 1
EndSplineSet
KernsSLIF: 39 -31 0 0 121 -4 0 0
EndChar
StartChar: i
Encoding: 105 105 74
Width: 278
Flags: W
HStem: -11 47<95 140> 548 106<208 224>
VStem: 49 75<46 53>
DStem: 119 332 228 439 71 155 140 117
Fore
222 114 m 1
 235 103 l 1
 178 19 141 -11 95 -11 c 0
 65 -11 49 9 49 46 c 0
 49 66 55 97 71 155 c 2
 119 332 l 1
 125 352 128 368 128 376 c 0
 128 396 118 399 65 400 c 1
 65 416 l 1
 104 419 124 422 225 441 c 1
 228 439 l 1
 140 117 l 1
 139 115 l 1
 139 113 l 1
 137 105 134 98 134 95 c 0
 127 76 124 61 124 51 c 0
 124 44 132 36 140 36 c 0
 149 36 164 46 181 63 c 0
 191 74 198 82 222 114 c 1
214 654 m 0
 241 654 264 628 264 599 c 0
 264 571 241 548 215 548 c 0
 186 548 167 569 167 601 c 0
 167 631 187 654 214 654 c 0
EndSplineSet
KernsSLIF: 84 -10 0 0 106 -31 0 0
EndChar
StartChar: j
Encoding: 106 106 75
Width: 278
Flags: W
HStem: -207 23<-47 -36> 400 16<73 104> 548 106<224 229>
VStem: -124 68<-173 -146> -124 81<-148 -139> 179 97<592 610>
DStem: 131 289 246 439 59 -3 142 28
Fore
246 439 m 1xf4
 142 28 l 2
 102 -131 42 -207 -45 -207 c 0
 -91 -207 -124 -181 -124 -146 c 0xf4
 -124 -122 -107 -104 -84 -104 c 0
 -61 -104 -43 -120 -43 -141 c 0xec
 -43 -149 -45 -154 -51 -162 c 0
 -55 -167 -56 -169 -56 -173 c 0
 -56 -180 -50 -184 -38 -184 c 0
 2 -184 25 -140 59 -3 c 2
 131 289 l 1
 142 332 147 359 147 369 c 0
 147 379 144 388 140 392 c 0
 135 396 115 402 107 401 c 2
 100 400 l 1
 73 400 l 1
 73 416 l 1
 104 417 154 425 243 441 c 1
 246 439 l 1xf4
226 654 m 0
 253 654 276 628 276 599 c 0
 276 571 253 548 227 548 c 0
 198 548 179 569 179 601 c 0
 179 632 199 654 226 654 c 0
EndSplineSet
EndChar
StartChar: k
Encoding: 107 107 76
Width: 444
Flags: W
HStem: -11 52<318 354> 412 16<278 303 445.333 461>
DStem: 141 483 267 678 14 0 147 221 141 483 137 180 14 0 89 0
Fore
414 109 m 1
 429 98 l 1
 384 14 358 -11 318 -11 c 0
 289 -11 271 8 239 71 c 0
 221 107 195 168 179 212 c 1
 137 180 l 1
 89 0 l 1
 14 0 l 1
 141 483 l 1
 143 492 l 2
 145 500 148 511 152 525 c 0
 165 571 172 598 174 615 c 1
 173 634 154 641 106 640 c 1
 106 656 l 1
 165 663 203 670 262 683 c 1
 267 678 l 1
 147 221 l 1
 164 233 176 243 190 254 c 0
 283 325 333 374 333 394 c 0
 333 405 319 412 294 412 c 2
 278 412 l 1
 278 428 l 1
 461 428 l 1
 461 412 l 1
 414 409 383 389 236 258 c 1
 253 219 268 183 273 170 c 0
 312 74 333 41 354 41 c 0
 369 41 381 52 399 83 c 2
 414 109 l 1
EndSplineSet
KernsSLIF: 97 12 0 0 323 12 0 0 322 12 0 0 241 9 0 0 328 12 0 0 44 27 0 0 101 5 0 0 335 5 0 0 103 -27 0 0 45 -27 0 0 111 6 0 0 352 6 0 0 351 6 0 0 46 26 0 0 115 7 0 0 117 8 0 0 362 8 0 0
EndChar
StartChar: l
Encoding: 108 108 77
Width: 278
Flags: W
HStem: -11 43<89 132> 640 16<118 126.429>
VStem: 40 77<43 54>
DStem: 182 599 279 678 45 71 128 99
Fore
228 123 m 1
 241 114 l 1
 176 18 141 -11 89 -11 c 0
 57 -11 40 9 40 45 c 0
 40 50 42 60 45 71 c 2
 182 599 l 1
 185 608 186 614 186 617 c 0
 186 633 166 640 118 640 c 1
 118 656 l 1
 177 663 215 670 274 683 c 1
 279 678 l 1
 128 99 l 1
 127 97 126 92 125 89 c 0
 120 69 117 57 117 50 c 0
 117 39 122 32 132 32 c 0
 150 32 169 47 201 89 c 0
 210 101 219 112 228 123 c 1
EndSplineSet
KernsSLIF: 118 -12 0 0 121 -11 0 0
EndChar
StartChar: m
Encoding: 109 109 78
Width: 722
Flags: W
HStem: -9 47<555 604> 389 52<334 374>
VStem: 354 77<364 381> 515 76<37 54> 593 79<364 378>
DStem: 586 333 669 350 528 103 601 99
Fore
689 117 m 1
 704 105 l 1
 699 98 l 2
 646 24 602 -9 555 -9 c 0
 529 -9 515 7 515 37 c 0
 515 47 519 66 528 103 c 1
 586 333 l 1
 591 351 593 363 593 368 c 0
 593 379 584 389 573 389 c 0
 544 389 494 345 445 277 c 0
 394 206 374 156 334 0 c 1
 259 0 l 1
 322 234 354 355 354 364 c 0
 354 380 347 389 334 389 c 0
 300 389 240 333 184 248 c 0
 150 196 135 159 87 0 c 1
 12 0 l 1
 25 51 28 61 51 143 c 0
 87 270 110 361 110 372 c 0
 110 387 97 394 71 394 c 2
 46 394 l 1
 46 410 l 1
 129 425 150 429 206 441 c 1
 209 439 l 1
 151 230 l 1
 243 375 313 441 374 441 c 0
 408 441 431 416 431 381 c 0
 431 362 416 305 391 229 c 1
 460 339 501 387 550 419 c 0
 574 434 594 441 613 441 c 0
 647 441 672 414 672 378 c 0
 672 372 670 354 669 350 c 2
 601 99 l 1
 595 75 591 59 591 54 c 0
 591 44 596 38 604 38 c 0
 619 38 640 55 668 91 c 0
 671 95 679 105 689 117 c 1
EndSplineSet
KernsSLIF: 112 -4 0 0 118 -6 0 0 119 -4 0 0 121 -3 0 0
EndChar
StartChar: n
Encoding: 110 110 79
Width: 500
Flags: W
HStem: 0 21G<14 89> 390 51<337 376>
VStem: 287 75<45 56> 361 81<361 380>
DStem: 110 350 213 439 14 0 146 221 347 285 433 323 303 120 376 117
Fore
460 117 m 1xe0
 474 104 l 1
 405 12 379 -9 334 -9 c 0
 301 -9 287 7 287 45 c 0xe0
 287 55 290 69 303 120 c 1
 347 285 l 2
 355 316 361 349 361 361 c 0
 361 379 352 390 337 390 c 0
 300 390 249 340 189 248 c 0
 145 180 136 158 89 0 c 1
 14 0 l 1
 110 350 l 1
 111 355 112 361 112 367 c 0
 112 387 99 393 48 394 c 1
 48 410 l 1
 135 426 156 430 210 441 c 1
 213 439 l 1
 146 221 l 1
 249 381 312 441 376 441 c 0
 415 441 442 416 442 380 c 0xd0
 442 366 438 344 433 323 c 1
 376 117 l 1
 362 61 362 61 362 54 c 0
 362 46 370 38 378 38 c 0
 392 38 410 54 439 91 c 2
 460 117 l 1xe0
EndSplineSet
KernsSLIF: 84 -41 0 0 112 -7 0 0 39 -34 0 0 118 -10 0 0 119 -7 0 0 121 -6 0 0
EndChar
StartChar: o
Encoding: 111 111 80
Width: 500
Flags: W
HStem: -11 21<174 191> 420 21<305 325>
VStem: 27 84<101 129> 384 84<301 326>
Fore
325 441 m 0
 410 441 468 384 468 301 c 0
 468 226 428 141 362 76 c 0
 304 19 240 -11 174 -11 c 0
 83 -11 27 43 27 129 c 0
 27 286 175 441 325 441 c 0
313 420 m 0
 270 420 228 390 189 334 c 0
 140 263 111 175 111 101 c 0
 111 46 142 10 189 10 c 0
 232 10 270 35 307 88 c 0
 351 153 384 253 384 326 c 0
 384 383 356 420 313 420 c 0
EndSplineSet
KernsSLIF: 84 -63 0 0 39 -24 0 0 116 -15 0 0 118 -18 0 0 119 -15 0 0 120 -33 0 0 121 -10 0 0
EndChar
StartChar: p
Encoding: 112 112 81
Width: 500
Flags: W
HStem: -205 16<-75 130> -11 19<163 182> 421 20G<321.5 389.5>
VStem: 379 90<306 330>
DStem: 208 441 211 441 54 419 213 440 208 441 215 437 54 419 212 428
Fore
56 404 m 1
 54 419 l 1
 208 441 l 1
 210 442 l 1
 210 442 211 442 211 441 c 1
 213 440 l 1
 214 438 215 437 215 437 c 1
 212 428 l 1
 183 328 l 1
 241 409 289 441 354 441 c 0
 425 441 469 394 469 316 c 0
 469 157 315 -11 169 -11 c 0
 146 -11 128 -7 103 6 c 1
 83 -68 66 -146 66 -160 c 0
 66 -181 83 -190 130 -190 c 1
 130 -205 l 1
 -75 -205 l 1
 -75 -189 l 1
 -32 -188 -19 -176 -8 -130 c 0
 -1 -101 23 -6 50 94 c 0
 85 226 121 368 121 377 c 0
 121 392 95 411 82 405 c 0
 81 404 79 404 79 404 c 1
 56 404 l 1
317 398 m 0
 267 401 209 352 182 284 c 0
 153 210 117 79 117 45 c 0
 117 23 137 8 165 8 c 0
 217 8 265 39 307 98 c 0
 350 160 379 246 379 312 c 0
 379 370 360 396 317 398 c 0
EndSplineSet
KernsSLIF: 116 -14 0 0 121 -4 0 0
EndChar
StartChar: q
Encoding: 113 113 82
Width: 500
Flags: W
HStem: -209 16<150 163> -11 53<127 167> 419 22<312 330>
VStem: 25 86<103 121>
Fore
391 -191 m 1
 391 -209 l 1
 150 -209 l 1
 150 -193 l 1
 215 -188 231 -180 244 -140 c 1
 333 153 l 1
 244 26 198 -11 127 -11 c 0
 64 -11 25 34 25 105 c 0
 25 257 186 441 318 441 c 0
 359 441 379 425 395 379 c 1
 410 426 l 1
 483 426 l 1
 319 -151 l 2
 318 -155 317 -159 317 -162 c 0
 316 -181 337 -191 374 -191 c 2
 391 -191 l 1
321 419 m 0
 292 419 259 401 228 370 c 0
 163 304 111 193 111 119 c 0
 111 72 133 42 167 42 c 0
 191 42 218 54 244 76 c 0
 312 133 380 275 380 358 c 0
 380 392 354 419 321 419 c 0
EndSplineSet
KernsSLIF: 99 -13 0 0 117 -11 0 0
EndChar
StartChar: r
Encoding: 114 114 83
Width: 389
Flags: W
HStem: 0 21G<45 121> 376 65<314 365>
Fore
121 0 m 1
 45 0 l 1
 126 292 l 1
 142 360 142 360 142 374 c 0
 142 392 129 402 107 402 c 0
 100 402 97 402 73 397 c 1
 73 414 l 1
 146 426 155 428 228 441 c 1
 231 439 l 1
 178 222 l 1
 192 258 l 2
 208 298 248 357 289 399 c 0
 315 426 342 441 365 441 c 0
 393 441 412 420 412 389 c 0
 412 358 395 340 366 340 c 0
 346 340 338 345 330 362 c 0
 325 372 320 376 314 376 c 0
 297 376 269 345 236 289 c 0
 190 213 173 170 121 0 c 1
EndSplineSet
KernsSLIF: 97 -29 0 0 323 -29 0 0 325 -29 0 0 322 -29 0 0 241 -36 0 0 324 -29 0 0 328 -29 0 0 99 -26 0 0 332 -17 0 0 58 -28 0 0 44 -68 0 0 100 -31 0 0 101 -35 0 0 335 -35 0 0 337 -35 0 0 336 -35 0 0 102 23 0 0 103 -21 0 0 104 -17 0 0 45 -52 0 0 105 8 0 0 106 4 0 0 107 -15 0 0 108 -21 0 0 109 17 0 0 110 16 0 0 111 -28 0 0 352 -28 0 0 354 -28 0 0 351 -28 0 0 250 -23 0 0 353 -28 0 0 249 -29 0 0 112 13 0 0 46 -72 0 0 113 -31 0 0 39 -4 0 0 114 4 0 0 115 -17 0 0 59 -28 0 0 116 12 0 0 117 11 0 0 118 30 0 0 119 32 0 0 120 7 0 0 121 33 0 0
EndChar
StartChar: s
Encoding: 115 115 84
Width: 389
Flags: W
HStem: -11 21<143 162> 8 138<36 56> 303 121<322 346> 418 23<226 240>
VStem: 109 73<331 364> 228 76<87 119>
Fore
36 146 m 1x4c
 52 146 l 1x4c
 68 51 99 10 154 10 c 0
 198 10 228 42 228 87 c 0
 228 116 211 151 172 202 c 0
 130 256 109 299 109 331 c 0
 109 398 157 441 230 441 c 0x9c
 246 441 261 439 286 431 c 0
 305 426 315 424 322 424 c 0
 336 424 344 428 352 442 c 1
 366 442 l 1
 346 303 l 1
 330 303 l 1x2c
 320 381 290 418 238 418 c 0
 203 418 182 397 182 364 c 0
 182 337 198 306 236 259 c 0
 283 201 304 157 304 119 c 0
 304 43 244 -11 160 -11 c 0x9c
 144 -11 127 -8 105 -1 c 0
 85 4 67 8 56 8 c 0
 46 8 40 3 32 -13 c 1
 16 -13 l 1
 36 146 l 1x4c
EndSplineSet
KernsSLIF: 39 -20 0 0 116 -12 0 0
EndChar
StartChar: t
Encoding: 116 116 85
Width: 278
Flags: W
HStem: -11 49<85 133> 396 32<216 291>
VStem: 37 81<27 58>
DStem: 132 396 207 396 60 121 119 63
Fore
296 428 m 1
 291 396 l 1
 207 396 l 1
 119 63 l 2
 118 60 118 59 118 58 c 0
 118 46 124 38 133 38 c 0
 149 38 165 54 214 117 c 1
 227 110 l 1
 164 17 131 -11 85 -11 c 0
 58 -11 37 5 37 27 c 0
 37 35 45 70 54 100 c 0
 57 109 58 112 60 121 c 1
 132 396 l 1
 58 396 l 1
 57 399 57 401 57 402 c 0
 57 413 64 419 89 427 c 0
 121 436 183 486 222 537 c 0
 228 545 231 546 237 546 c 0
 242 546 245 543 245 536 c 0
 245 535 245 533 244 531 c 1
 216 428 l 1
 296 428 l 1
EndSplineSet
KernsSLIF: 83 -9 0 0 97 -6 0 0 323 -6 0 0 322 -6 0 0 241 -10 0 0 328 -6 0 0 58 -29 0 0 101 -13 0 0 335 -13 0 0 104 -11 0 0 111 -11 0 0 352 -11 0 0 351 -11 0 0 39 -19 0 0 59 -26 0 0
EndChar
StartChar: u
Encoding: 117 117 86
Width: 500
Flags: W
HStem: -9 47<337 378> 400 14<58 66.1429>
VStem: 42 77<44 67> 289 78<39 55>
DStem: 104 309 211 439 67 167 120 76
Fore
461 117 m 1
 475 108 l 1
 407 11 384 -9 337 -9 c 0
 307 -9 289 9 289 39 c 0
 289 60 305 129 334 236 c 1
 219 43 166 -11 95 -11 c 0
 60 -11 42 8 42 44 c 0
 42 62 49 96 67 167 c 1
 104 309 l 2
 113 343 118 368 118 376 c 0
 118 383 113 392 107 394 c 0
 98 399 96 400 58 400 c 1
 58 414 l 1
 115 421 151 428 208 441 c 1
 211 439 l 1
 120 76 l 2
 119 73 119 71 119 67 c 0
 119 52 128 42 140 42 c 0
 172 42 221 93 281 188 c 0
 327 261 334 277 391 432 c 1
 465 432 l 1
 386 133 l 2
 367 61 367 61 367 55 c 0
 367 44 371 38 378 38 c 0
 394 38 409 52 461 117 c 1
EndSplineSet
KernsSLIF: 39 -31 0 0
EndChar
StartChar: v
Encoding: 118 118 87
Width: 444
Flags: W
HStem: -18 21G<141.5 157.5> 421 20G<149.5 156.5 359 385>
VStem: 333 93<382 407>
Fore
21 403 m 1
 21 416 l 1
 59 422 114 432 132 437 c 0
 140 440 147 441 152 441 c 0
 161 441 161 439 181 337 c 0
 194 263 200 211 207 70 c 1
 238 102 l 2
 309 176 375 287 375 333 c 0
 375 343 370 351 357 363 c 0
 339 379 333 391 333 407 c 0
 333 428 348 441 370 441 c 0
 400 441 426 414 426 382 c 0
 426 345 400 280 365 230 c 0
 263 88 170 -18 145 -18 c 0
 138 -18 136 -11 136 17 c 0
 136 75 124 226 114 295 c 0
 100 387 90 404 51 404 c 0
 40 404 32 404 21 403 c 1
EndSplineSet
KernsSLIF: 97 -24 0 0 323 -26 0 0 325 -26 0 0 322 -26 0 0 241 -29 0 0 324 -26 0 0 328 -26 0 0 327 -26 0 0 99 -26 0 0 58 -48 0 0 44 -46 0 0 101 -30 0 0 335 -32 0 0 337 -32 0 0 336 -32 0 0 103 -36 0 0 108 -29 0 0 111 -26 0 0 352 -28 0 0 351 -28 0 0 353 -28 0 0 249 -29 0 0 46 -51 0 0 115 -30 0 0 59 -48 0 0
EndChar
StartChar: w
Encoding: 119 119 88
Width: 667
Flags: W
HStem: -18 21G<129.5 139.5 378.5 386> 404 17<34 42>
VStem: 557 91<389 407>
DStem: 342 331 403 426 371 12 435 74 382 430 342 331 190 126 253 175
Fore
16 404 m 1
 16 417 l 1
 28 419 38 421 42 421 c 0
 75 426 99 430 110 434 c 0
 123 438 134 441 140 441 c 0
 152 441 154 433 165 371 c 0
 176 301 187 196 190 126 c 1
 382 430 l 2
 387 438 390 440 395 440 c 0
 401 440 403 437 403 426 c 1
 435 74 l 1
 566 237 600 291 600 334 c 0
 600 346 594 356 578 371 c 0
 562 386 557 394 557 407 c 0
 557 428 572 441 596 441 c 0
 626 441 648 419 648 389 c 0
 648 325 572 199 436 36 c 0
 432 31 428 26 427 25 c 0
 400 -8 390 -18 382 -18 c 0
 375 -18 373 -15 371 12 c 1
 342 331 l 1
 253 175 l 2
 223 122 203 87 198 76 c 0
 162 7 145 -18 134 -18 c 0
 125 -18 123 -10 121 29 c 1
 117 117 l 1
 114 196 102 302 90 359 c 0
 83 397 73 407 45 405 c 0
 40 404 37 404 36 404 c 2
 16 404 l 1
EndSplineSet
KernsSLIF: 97 -26 0 0 323 -28 0 0 325 -28 0 0 322 -28 0 0 241 -31 0 0 324 -28 0 0 328 -28 0 0 327 -28 0 0 99 -28 0 0 58 -49 0 0 44 -47 0 0 101 -32 0 0 335 -34 0 0 337 -34 0 0 336 -34 0 0 103 -38 0 0 45 -4 0 0 108 -30 0 0 111 -28 0 0 352 -30 0 0 351 -30 0 0 353 -30 0 0 249 -31 0 0 46 -51 0 0 115 -32 0 0 59 -49 0 0
EndChar
StartChar: x
Encoding: 120 120 89
Width: 444
Flags: W
HStem: -11 77<7 23> 368 73<403 416>
Fore
402 111 m 1
 416 103 l 1
 358 13 332 -11 294 -11 c 0
 262 -11 249 5 236 56 c 2
 206 176 l 1
 164 118 143 91 116 59 c 0
 66 -2 54 -11 23 -11 c 0
 -7 -11 -27 5 -27 31 c 0
 -27 51 -12 66 7 66 c 0
 15 66 26 63 39 56 c 0
 49 50 59 47 65 47 c 0
 76 47 96 65 116 95 c 1
 198 212 l 1
 169 335 l 2
 155 395 149 404 124 404 c 0
 115 404 106 402 68 393 c 1
 64 408 l 1
 75 412 l 2
 136 432 170 441 192 441 c 0
 219 441 230 421 244 353 c 2
 255 298 l 1
 324 405 362 441 406 441 c 0
 430 441 447 425 447 404 c 0
 447 383 433 368 412 368 c 0
 404 368 397 370 385 377 c 0
 375 382 367 385 361 385 c 0
 343 385 307 341 263 264 c 1
 263 249 274 203 299 102 c 0
 300 99 301 93 303 85 c 0
 310 57 319 44 334 44 c 0
 345 44 357 54 380 84 c 0
 389 96 394 102 402 111 c 1
EndSplineSet
KernsSLIF: 97 6 0 0 111 1 0 0 113 2 0 0
EndChar
StartChar: y
Encoding: 121 121 90
Width: 444
Flags: W
HStem: -206 83<15 27> 404 36<46 145>
VStem: 332 94<386 404>
Fore
15 400 m 1
 15 417 l 1
 29 419 42 422 47 423 c 0
 100 433 136 439 145 440 c 0
 149 440 153 440 154 441 c 2
 158 441 l 2
 173 441 229 276 244 188 c 2
 264 72 l 1
 349 213 386 291 386 331 c 0
 386 345 379 354 360 365 c 0
 340 378 332 389 332 404 c 0
 332 426 348 441 371 441 c 0
 401 441 426 416 426 386 c 0
 426 337 398 265 330 142 c 0
 222 -56 91 -206 27 -206 c 0
 -2 -206 -24 -187 -24 -162 c 0
 -24 -140 -7 -123 15 -123 c 0
 26 -123 37 -128 52 -140 c 0
 63 -148 70 -151 76 -151 c 0
 89 -151 101 -143 122 -121 c 0
 133 -109 153 -83 184 -42 c 0
 199 -24 205 -8 205 8 c 0
 205 25 181 142 164 207 c 0
 118 379 103 404 46 404 c 0
 35 404 28 403 15 400 c 1
EndSplineSet
KernsSLIF: 97 -12 0 0 323 -12 0 0 325 -12 0 0 322 -12 0 0 241 -17 0 0 324 -12 0 0 328 -12 0 0 327 -12 0 0 99 -15 0 0 58 -48 0 0 44 -21 0 0 101 -19 0 0 335 -19 0 0 337 -19 0 0 336 -19 0 0 103 -34 0 0 45 7 0 0 108 -18 0 0 111 -15 0 0 352 -15 0 0 351 -15 0 0 353 -15 0 0 249 -16 0 0 46 -25 0 0 115 -19 0 0 59 -45 0 0
EndChar
StartChar: z
Encoding: 122 122 91
Width: 389
Flags: W
HStem: -81 21<268 283> 368 60<96 308>
VStem: 294 69<-10 5>
DStem: 308 368 380 417 -2 -4 90 73
Fore
81 309 m 1
 65 313 l 1
 96 428 l 1
 380 428 l 1
 380 417 l 1
 90 73 l 1
 148 60 167 47 211 -10 c 0
 244 -52 256 -60 281 -60 c 0
 297 -60 308 -54 308 -45 c 0
 308 -42 306 -36 303 -30 c 0
 297 -19 294 -9 294 0 c 0
 294 18 308 31 328 31 c 0
 349 31 363 16 363 -5 c 0
 363 -45 319 -81 269 -81 c 0
 241 -81 207 -68 157 -37 c 0
 110 -8 77 5 53 5 c 0
 36 5 23 0 7 -13 c 1
 -2 -4 l 1
 308 368 l 1
 162 368 l 2
 115 368 102 359 81 309 c 1
EndSplineSet
EndChar
StartChar: braceleft
Encoding: 123 123 92
Width: 400
Flags: W
VStem: 51 75<-114 -97> 117 75<190 200>
DStem: 218 547 295 552 170 369 250 384
Fore
407 687 m 1x40
 404 676 l 1
 342 660 316 631 295 552 c 2
 250 384 l 2
 228 301 202 272 137 255 c 1
 176 238 192 219 192 192 c 0x40
 192 174 174 97 148 2 c 0
 132 -58 126 -85 126 -100 c 0
 126 -137 141 -155 179 -166 c 1
 176 -177 l 1
 84 -174 51 -154 51 -99 c 0x80
 51 -76 61 -30 83 45 c 0
 105 121 117 174 117 198 c 0
 117 227 104 241 65 255 c 1
 129 272 151 296 170 369 c 1
 218 547 l 1
 249 653 294 687 407 687 c 1x40
EndSplineSet
EndChar
StartChar: bar
Encoding: 124 124 93
Width: 275
Flags: W
HStem: -18 21G<105 171> 646 20G<105 171>
VStem: 105 66<-18 666>
Fore
105 -18 m 1
 105 666 l 1
 171 666 l 1
 171 -18 l 1
 105 -18 l 1
EndSplineSet
EndChar
StartChar: braceright
Encoding: 125 125 94
Width: 400
Flags: W
VStem: 208 75<310 320> 274 75<609 624>
DStem: 150 126 230 141 105 -42 182 -37
Fore
221 676 m 1x40
 224 687 l 1
 315 684 349 663 349 609 c 0x40
 349 587 338 539 317 465 c 0
 294 388 283 336 283 312 c 0
 283 283 296 269 335 255 c 1
 271 238 249 214 230 141 c 1
 182 -37 l 1
 151 -143 105 -177 -7 -177 c 1
 -4 -166 l 1
 58 -150 84 -121 105 -42 c 2
 150 126 l 2
 172 209 197 238 263 255 c 1
 224 272 208 291 208 318 c 0x80
 208 336 225 412 252 508 c 0
 267 565 274 596 274 609 c 0
 274 646 259 665 221 676 c 1x40
EndSplineSet
EndChar
StartChar: asciitilde
Encoding: 126 126 95
Width: 541
Flags: W
Fore
448 303 m 1
 502 271 l 1
 456 207 425 186 379 186 c 0
 334 186 316 192 227 240 c 0
 210 249 189 254 168 254 c 0
 137 254 120 242 94 203 c 1
 40 235 l 1
 86 299 117 320 163 320 c 0
 208 320 226 314 315 266 c 0
 332 257 353 252 374 252 c 0
 405 252 422 264 448 303 c 1
EndSplineSet
EndChar
StartChar: exclamdown
Encoding: 161 161 96
Width: 389
Flags: W
HStem: 368 106<266 272>
Fore
224 285 m 1
 241 281 l 1
 205 118 188 29 169 -89 c 0
 155 -172 135 -205 99 -205 c 0
 73 -205 59 -188 59 -154 c 0
 59 -124 69 -93 97 -31 c 0
 135 52 171 140 224 285 c 1
270 474 m 0
 299 474 321 451 321 419 c 0
 321 393 296 368 269 368 c 0
 240 368 215 393 215 422 c 0
 215 450 240 474 270 474 c 0
EndSplineSet
EndChar
StartChar: cent
Encoding: 162 162 97
Width: 500
Flags: W
HStem: -11 36<227 252>
VStem: 77 86<128 162> 385 87<350 362>
DStem: 185 -7 215 -10 137 -143 168 -143 334 417 365 420 202 41 228 29 384 560 414 560 342 440 372 440
Fore
414 560 m 1
 372 440 l 1
 407 437 423 432 442 418 c 0
 460 404 472 382 472 360 c 0
 472 334 452 314 424 314 c 0
 400 314 385 328 385 352 c 0
 385 361 387 368 394 381 c 0
 398 390 400 395 400 400 c 0
 400 412 388 419 365 420 c 1
 228 29 l 1
 236 26 242 25 252 25 c 0
 303 25 341 47 397 106 c 1
 413 96 l 1
 353 21 299 -11 227 -11 c 0
 222 -11 220 -11 215 -10 c 1
 168 -143 l 1
 137 -143 l 1
 185 -7 l 1
 158 -1 144 5 129 17 c 0
 96 42 77 86 77 140 c 0
 77 240 135 339 228 399 c 0
 265 423 290 432 342 440 c 1
 384 560 l 1
 414 560 l 1
202 41 m 1
 334 417 l 1
 282 402 254 380 219 328 c 0
 184 275 163 203 163 139 c 0
 163 94 175 64 202 41 c 1
EndSplineSet
EndChar
StartChar: sterling
Encoding: 163 163 98
Width: 500
Flags: W
HStem: -6 22<75 86> 98 28<86 104> 319 42<80 185 280 396> 641 29<402 424>
VStem: 10 22<51 60>
Fore
396 319 m 1
 270 319 l 1
 244 209 238 193 197 104 c 1
 268 77 315 66 357 66 c 0
 386 66 408 73 436 93 c 2
 446 100 l 1
 457 91 l 1
 432 29 382 -6 315 -6 c 0
 266 -6 235 8 171 57 c 1
 132 8 110 -6 75 -6 c 0
 36 -6 10 20 10 58 c 0
 10 98 49 126 104 126 c 0
 119 126 120 126 160 115 c 1
 185 319 l 1
 72 319 l 1
 81 361 l 1
 191 361 l 1
 211 474 232 529 282 594 c 0
 320 643 370 670 424 670 c 0
 479 670 517 639 517 594 c 0
 517 567 503 553 478 553 c 0
 454 553 447 562 442 597 c 0
 437 628 426 641 402 641 c 0
 345 641 322 587 280 361 c 1
 403 361 l 1
 396 319 l 1
146 73 m 1
 116 94 107 98 86 98 c 0
 54 98 32 80 32 53 c 0
 32 32 51 16 75 16 c 0
 105 16 134 39 146 73 c 1
EndSplineSet
EndChar
StartChar: fraction
Encoding: 164 8260 99
Width: 167
Flags: W
HStem: -10 21G<-169 -118>
DStem: 286 676 337 676 -169 -10 -118 -10
Fore
337 676 m 1
 -118 -10 l 1
 -169 -10 l 1
 286 676 l 1
 337 676 l 1
EndSplineSet
EndChar
StartChar: yen
Encoding: 165 165 100
Width: 500
Flags: W
HStem: 0 16<320 337> 182 40<38 192 288 456> 312 40<71 223 349 488> 637 16<61 69.25 289.333 300 414 426>
DStem: 149 571 264 447 212 352 293 347 226 302 312 304 203 222 288 222
Fore
456 182 m 1
 276 182 l 1
 251 103 245 79 245 57 c 0
 245 31 258 21 299 19 c 0
 305 18 320 17 337 16 c 1
 337 0 l 1
 52 0 l 1
 56 16 l 1
 119 20 148 39 165 90 c 1
 192 182 l 1
 27 182 l 1
 39 222 l 1
 203 222 l 1
 226 302 l 1
 223 312 l 1
 60 312 l 1
 72 352 l 1
 212 352 l 1
 149 571 l 1
 132 625 127 629 61 637 c 1
 61 653 l 1
 300 653 l 1
 300 637 l 1
 236 631 225 626 225 601 c 0
 225 586 236 543 264 447 c 2
 293 347 l 1
 308 364 312 370 321 380 c 0
 434 511 483 578 483 606 c 0
 483 623 470 631 441 634 c 0
 436 635 426 636 414 637 c 1
 414 653 l 1
 603 653 l 1
 603 637 l 1
 571 623 562 616 530 576 c 2
 349 352 l 1
 500 352 l 1
 488 312 l 1
 318 312 l 1
 312 304 l 1
 288 222 l 1
 468 222 l 1
 456 182 l 1
EndSplineSet
MinimumDistance: x14,37 
EndChar
StartChar: florin
Encoding: 166 402 101
Width: 500
Flags: W
HStem: -182 23<104 118> 382 30<131 237 324 443> 653 29<416 427>
VStem: 25 84<-116 -105> 426 81<601 613>
DStem: 237 382 321 382 198 39 279 79
Fore
450 412 m 1
 443 382 l 1
 321 382 l 1
 279 79 l 1
 257 -82 190 -182 104 -182 c 0
 57 -182 25 -155 25 -116 c 0
 25 -87 44 -67 69 -67 c 0
 91 -67 109 -85 109 -105 c 0
 109 -111 107 -118 101 -127 c 0
 97 -134 95 -139 95 -143 c 0
 95 -152 104 -159 116 -159 c 0
 133 -159 149 -149 159 -134 c 0
 176 -108 186 -63 198 39 c 1
 237 382 l 1
 125 382 l 1
 132 412 l 1
 241 412 l 1
 260 524 279 576 318 625 c 0
 348 662 385 682 425 682 c 0
 472 682 507 653 507 613 c 0
 507 586 490 566 467 566 c 0
 445 566 426 584 426 605 c 0
 426 611 428 616 433 625 c 0
 437 632 439 637 439 639 c 0
 439 647 430 653 418 653 c 0
 396 653 378 640 365 617 c 0
 349 586 342 553 324 412 c 1
 450 412 l 1
EndSplineSet
EndChar
StartChar: section
Encoding: 167 167 102
Width: 500
Flags: W
HStem: -162 21<180 198> -162 164<109 189> 100 21<308 323> 388 21<196 213> 645 21<320 347>
VStem: 53 103<-54 -41> 90 57<286 322> 184 61<541 562> 287 58<-51 -25> 377 58<192 226>
Fore
249 398 m 1xbbc0
 251 401 l 1
 201 462 184 497 184 541 c 0
 184 614 245 666 331 666 c 0
 407 666 461 625 461 567 c 0
 461 533 441 512 409 512 c 0
 382 512 363 531 363 557 c 0
 363 571 369 582 384 595 c 0
 393 603 397 609 397 614 c 0
 397 631 371 645 337 645 c 0
 280 645 245 613 245 562 c 0
 245 536 254 510 271 490 c 2
 394 340 l 2
 420 308 435 267 435 226 c 0
 435 151 387 100 317 100 c 0
 303 100 296 102 284 107 c 1
 282 104 l 1
 335 36 345 15 345 -25 c 0
 345 -103 277 -162 189 -162 c 0xbbc0
 113 -162 53 -115 53 -54 c 0
 53 -19 74 2 109 2 c 0
 138 2 156 -14 156 -41 c 0x7dc0
 156 -63 149 -74 129 -87 c 0
 118 -94 114 -98 114 -104 c 0
 114 -124 148 -141 185 -141 c 0
 245 -141 287 -104 287 -51 c 0
 287 -21 275 3 237 46 c 2
 161 133 l 2
 114 186 90 239 90 286 c 0
 90 353 138 409 196 409 c 0
 213 409 232 405 249 398 c 1xbbc0
213 388 m 0
 177 388 147 359 147 322 c 0
 147 251 254 121 312 121 c 0
 347 121 377 154 377 192 c 0
 377 226 363 256 320 312 c 0
 281 363 246 388 213 388 c 0
EndSplineSet
EndChar
StartChar: currency
Encoding: 168 164 103
Width: 500
Flags: W
HStem: 110 64<251 267> 476 64<235.249 267>
VStem: 35 68<308 342> 397 68<326 342>
DStem: -22 549 28 597 76 451 124 501 76 199 124 151 -22 103 28 53 376 151 426 199 474 53 522 103 474 597 522 549 376 501 426 451
Fore
-22 103 m 1
 76 199 l 1
 47 241 35 278 35 325 c 0
 35 373 47 411 76 451 c 1
 -22 549 l 1
 28 597 l 1
 124 501 l 1
 167 529 204 540 251 540 c 0
 299 540 338 528 376 501 c 1
 474 597 l 1
 522 549 l 1
 426 451 l 1
 453 410 465 373 465 326 c 0
 465 279 454 242 426 199 c 1
 522 103 l 1
 474 53 l 1
 376 151 l 1
 337 123 298 110 251 110 c 0
 205 110 166 123 124 151 c 1
 28 53 l 1
 -22 103 l 1
253 476 m 0
 170 476 103 410 103 327 c 0
 103 242 169 174 251 174 c 0
 332 174 397 241 397 326 c 0
 397 408 332 476 253 476 c 0
EndSplineSet
EndChar
StartChar: quotesingle
Encoding: 169 39 104
Width: 214
Flags: W
HStem: 646 20G<197 218>
Fore
153 421 m 1
 132 421 l 1
 140 523 149 600 155 625 c 0
 160 647 185 666 209 666 c 0
 227 666 241 653 241 637 c 0
 241 621 210 545 153 421 c 1
EndSplineSet
EndChar
StartChar: quotedblleft
Encoding: 170 8220 105
Width: 556
Flags: W
HStem: 436 21G<207.5 238.5 416.5 447.5>
VStem: 166 109<483 507> 375 109<483 507>
Fore
296 666 m 1
 305 649 l 1
 253 614 230 587 230 560 c 0
 230 550 235 542 250 528 c 0
 269 511 275 500 275 483 c 0
 275 456 253 436 224 436 c 0
 191 436 166 467 166 507 c 0
 166 563 212 619 296 666 c 1
505 666 m 1
 514 649 l 1
 462 614 439 587 439 560 c 0
 439 550 444 542 459 528 c 0
 478 511 484 500 484 483 c 0
 484 456 462 436 433 436 c 0
 400 436 375 467 375 507 c 0
 375 563 421 619 505 666 c 1
EndSplineSet
KernsSLIF: 65 -88 1 0 225 -141 1 0 257 -88 1 0 256 -88 1 0 262 -88 1 0 84 -19 1 0 86 -17 1 0 87 -15 1 0 89 -25 1 0
EndChar
StartChar: guillemotleft
Encoding: 171 171 106
Width: 500
Flags: W
Fore
53 216 m 1
 53 225 l 1
 89 252 l 2
 146 296 154 303 180 326 c 0
 246 384 270 403 276 403 c 0
 280 403 283 399 283 395 c 0
 283 380 245 333 192 284 c 0
 181 275 155 247 127 217 c 1
 147 177 l 1
 183 110 209 54 209 44 c 0
 209 40 206 37 202 37 c 0
 193 37 167 66 141 105 c 0
 135 114 129 122 120 132 c 0
 86 171 65 198 53 216 c 1
215 216 m 1
 215 225 l 1
 251 252 l 2
 308 296 316 303 342 326 c 0
 408 384 432 403 438 403 c 0
 442 403 445 399 445 395 c 0
 445 380 407 333 354 284 c 0
 343 275 317 247 289 217 c 1
 298 199 306 182 309 177 c 0
 345 110 371 54 371 44 c 0
 371 40 368 37 364 37 c 0
 355 37 329 66 303 105 c 0
 297 114 291 122 282 132 c 0
 248 171 227 198 215 216 c 1
EndSplineSet
EndChar
StartChar: guilsinglleft
Encoding: 172 8249 107
Width: 333
Flags: W
Fore
51 216 m 1
 51 225 l 1
 87 252 l 2
 144 296 152 303 178 326 c 0
 244 384 268 403 274 403 c 0
 278 403 281 399 281 395 c 0
 281 380 243 333 190 284 c 0
 179 275 153 247 125 217 c 1
 145 177 l 1
 181 110 207 54 207 44 c 0
 207 40 204 37 200 37 c 0
 191 37 165 66 139 105 c 0
 133 114 127 122 118 132 c 0
 84 171 63 198 51 216 c 1
EndSplineSet
EndChar
StartChar: guilsinglright
Encoding: 173 8250 108
Width: 333
Flags: W
Fore
282 224 m 1
 282 215 l 1
 191 145 181 137 155 114 c 0
 91 58 65 37 59 37 c 0
 55 37 52 41 52 45 c 0
 52 60 90 107 143 156 c 0
 154 165 180 192 208 223 c 1
 188 263 l 1
 152 330 126 386 126 396 c 0
 126 400 129 403 133 403 c 0
 142 403 168 374 194 335 c 0
 200 327 206 318 215 308 c 0
 248 269 270 242 282 224 c 1
EndSplineSet
KernsSLIF: 65 -24 1 0 225 -50 1 0 257 -24 1 0 256 -24 1 0 262 -24 1 0 84 -76 1 0 86 -75 1 0 87 -66 1 0 89 -80 1 0
EndChar
StartChar: fi
Encoding: 174 64257 109
Width: 500
Flags: W
HStem: -207 24<-65 -52> -8 45<343 381> 396 32<51 132 216 371> 659 22<363 388>
VStem: -141 67<-170 -145> -141 76<-147 -136> 295 75<41 49> 411 70<611 643>
Fore
132 396 m 1xfb
 45 396 l 1
 52 428 l 1
 139 428 l 1
 170 530 190 571 232 618 c 0
 267 657 322 681 378 681 c 0
 438 681 481 652 481 611 c 0
 481 586 464 569 439 569 c 0
 415 569 398 586 398 611 c 0
 398 621 400 627 406 634 c 0
 410 638 411 640 411 643 c 0
 411 653 398 659 377 659 c 0
 336 659 306 642 281 604 c 0
 261 573 246 533 216 428 c 1
 366 428 l 2
 393 428 420 430 447 434 c 0
 457 435 461 436 465 436 c 1
 470 433 l 1
 470 428 469 421 465 405 c 1
 463 401 l 1
 454 363 449 348 442 322 c 0
 403 179 370 54 370 47 c 0
 370 42 375 37 381 37 c 0
 393 37 419 58 447 91 c 0
 449 94 454 100 459 106 c 1
 475 97 l 1
 419 20 383 -8 343 -8 c 0
 314 -8 295 12 295 41 c 0
 295 64 314 142 357 295 c 0
 377 366 381 382 381 386 c 0
 381 393 376 396 365 396 c 2
 210 396 l 1
 138 76 l 1
 96 -109 27 -207 -63 -207 c 0
 -108 -207 -141 -181 -141 -145 c 0xfb
 -141 -123 -125 -105 -104 -105 c 0
 -83 -105 -65 -122 -65 -143 c 0xf7
 -65 -148 -66 -152 -70 -159 c 0
 -73 -164 -74 -167 -74 -170 c 0
 -74 -179 -69 -183 -54 -183 c 0
 -30 -183 -12 -170 6 -138 c 0
 23 -107 35 -63 65 86 c 0
 104 280 126 381 132 396 c 1xfb
EndSplineSet
Ligature: 0 0 'liga' f i
EndChar
StartChar: fl
Encoding: 175 64258 110
Width: 500
Flags: W
HStem: -204 25<-64 -51> -9 45<343 381> 396 32<46 130 216 375> 660 22<368 388>
VStem: -141 76<-144 -137> 295 75<41 47> 422 96<638 673>
DStem: 130 396 209 396 102 264 140 86
Fore
375 396 m 1
 209 396 l 1
 140 86 l 2
 98 -103 27 -204 -63 -204 c 0
 -108 -204 -141 -178 -141 -142 c 0
 -141 -120 -125 -102 -105 -102 c 0
 -83 -102 -65 -119 -65 -139 c 0
 -65 -144 -66 -149 -70 -156 c 0
 -73 -161 -74 -163 -74 -166 c 0
 -74 -175 -68 -179 -53 -179 c 0
 -34 -179 -20 -172 -7 -154 c 0
 2 -143 8 -132 11 -124 c 0
 38 -53 69 80 102 264 c 1
 130 396 l 1
 41 396 l 1
 47 428 l 1
 138 428 l 1
 168 527 189 568 232 615 c 0
 271 657 327 682 383 682 c 0
 400 682 424 679 444 675 c 0
 458 673 470 671 475 671 c 0
 480 671 480 671 495 677 c 2
 499 678 l 1
 503 679 l 2
 508 681 511 682 513 682 c 0
 516 682 518 678 518 673 c 0
 518 672 469 467 371 57 c 1
 370 47 l 1
 370 41 375 36 381 36 c 0
 395 36 414 53 459 105 c 1
 475 96 l 1
 416 15 385 -9 343 -9 c 0
 314 -9 295 11 295 41 c 0
 295 68 308 131 342 262 c 0
 364 347 367 358 375 396 c 1
216 428 m 1
 383 428 l 1
 419 572 l 1
 420 575 l 2
 421 578 419 584 415 591 c 0
 412 597 410 604 410 608 c 0
 410 614 413 621 418 629 c 0
 421 633 422 636 422 638 c 0
 422 649 401 660 379 660 c 0
 307 660 257 594 221 448 c 2
 216 428 l 1
EndSplineSet
Ligature: 0 0 'liga' f l
EndChar
StartChar: endash
Encoding: 177 8211 111
Width: 500
Flags: W
HStem: 197 46<1 497>
Fore
505 243 m 1
 497 197 l 1
 -6 197 l 1
 2 243 l 1
 505 243 l 1
EndSplineSet
EndChar
StartChar: dagger
Encoding: 178 8224 112
Width: 500
Flags: W
HStem: 426 21<260 285 301 329.583> 646 20G<318 346.5>
VStem: 286 89<608 623>
DStem: 177 -58 227 51 157 -159 179 -159
Fore
179 -159 m 1
 157 -159 l 1
 177 -58 l 2
 198 47 211 141 211 194 c 0
 211 204 210 216 208 235 c 0
 206 251 206 257 206 262 c 1
 245 305 267 352 280 426 c 1
 239 426 223 422 184 406 c 0
 164 397 156 395 145 395 c 0
 117 395 101 411 101 437 c 0
 101 464 117 477 149 477 c 0
 163 477 173 474 195 465 c 0
 232 450 242 448 285 447 c 1
 293 492 295 510 295 533 c 0
 295 543 294 555 290 574 c 0
 287 591 286 599 286 609 c 0
 286 646 303 666 333 666 c 0
 360 666 375 650 375 621 c 0
 375 603 370 589 351 561 c 1
 322 514 314 495 304 447 c 1
 347 448 357 450 394 465 c 0
 417 475 426 477 441 477 c 0
 472 477 488 464 488 437 c 0
 488 411 472 395 444 395 c 0
 433 395 425 397 406 405 c 0
 366 422 345 426 301 426 c 1
 294 392 292 373 292 342 c 0
 292 300 296 280 308 258 c 1
 282 220 244 122 227 51 c 1
 179 -159 l 1
EndSplineSet
EndChar
StartChar: daggerdbl
Encoding: 179 8225 113
Width: 500
Flags: W
HStem: 45 82<65 72 357 377> 396 82<137 151 437 448> 646 20G<321 346>
VStem: 138 89<-99 -87> 286 89<608 623>
Fore
282 427 m 1
 264 427 l 2
 245 427 230 423 200 410 c 0
 176 400 162 396 149 396 c 0
 121 396 101 414 101 438 c 0
 101 462 119 478 148 478 c 0
 160 478 171 475 195 466 c 0
 235 451 247 449 286 448 c 1
 293 483 295 503 295 524 c 0
 295 542 293 563 289 586 c 0
 287 597 286 606 286 612 c 0
 286 641 308 666 334 666 c 0
 358 666 375 648 375 621 c 0
 375 603 369 587 349 557 c 0
 320 510 313 492 306 448 c 1
 345 449 357 451 397 466 c 0
 422 475 432 478 446 478 c 0
 473 478 491 462 491 438 c 0
 491 414 471 396 442 396 c 0
 430 396 416 400 392 410 c 0
 362 423 347 427 328 427 c 2
 302 427 l 1
 295 396 291 363 291 342 c 0
 291 320 295 301 307 259 c 1
 270 223 250 180 231 96 c 1
 250 96 l 2
 269 96 284 100 314 113 c 0
 338 123 352 127 365 127 c 0
 393 127 413 109 413 85 c 0
 413 61 395 45 366 45 c 0
 354 45 343 48 319 57 c 0
 280 72 267 74 228 75 c 1
 221 43 218 23 218 -1 c 0
 218 -20 220 -40 224 -63 c 0
 226 -74 227 -83 227 -89 c 0
 227 -118 205 -143 179 -143 c 0
 155 -143 138 -125 138 -97 c 0
 138 -79 144 -64 164 -33 c 0
 193 14 200 32 207 75 c 1
 168 74 155 72 116 57 c 0
 91 47 81 45 67 45 c 0
 40 45 22 61 22 85 c 0
 22 109 42 127 70 127 c 0
 83 127 97 123 121 113 c 0
 151 100 166 96 185 96 c 2
 211 96 l 1
 218 130 222 161 222 182 c 0
 222 203 220 211 206 264 c 1
 243 300 263 343 282 427 c 1
EndSplineSet
EndChar
StartChar: periodcentered
Encoding: 180 183 114
Width: 250
Flags: W
Fore
125 310 m 0
 155 310 181 284 181 253 c 0
 181 224 155 199 124 199 c 0
 95 199 70 224 70 253 c 0
 70 284 95 310 125 310 c 0
EndSplineSet
EndChar
StartChar: paragraph
Encoding: 182 182 115
Width: 523
Flags: W
HStem: -123 23<391 403.864> 632 21<359 461>
VStem: 92 77<401 422>
DStem: 461 632 513 574 261 -123 357 -11
Fore
616 653 m 1
 610 632 l 1
 534 627 527 622 513 574 c 1
 357 -11 l 2
 356 -14 355 -19 353 -26 c 0
 345 -52 342 -64 342 -76 c 0
 342 -90 356 -96 391 -100 c 0
 394 -100 404 -101 414 -102 c 1
 409 -123 l 1
 261 -123 l 1
 461 632 l 1
 403 632 l 1
 203 -123 l 1
 55 -123 l 1
 60 -102 l 1
 106 -98 122 -95 134 -89 c 1
 147 -85 147 -85 215 171 c 0
 226 216 233 239 245 283 c 1
 190 285 165 292 137 311 c 0
 108 332 92 364 92 403 c 0
 92 466 115 534 151 577 c 0
 196 631 257 653 359 653 c 2
 616 653 l 1
255 304 m 1
 334 632 l 1
 291 629 263 616 235 585 c 0
 197 544 169 468 169 406 c 0
 169 373 181 343 202 323 c 0
 214 311 227 307 255 304 c 1
EndSplineSet
EndChar
StartChar: bullet
Encoding: 183 8226 116
Width: 350
Flags: W
Fore
174 461 m 0
 251 461 310 401 310 324 c 0
 310 252 249 191 175 191 c 0
 100 191 40 251 40 327 c 0
 40 401 99 461 174 461 c 0
EndSplineSet
EndChar
StartChar: quotesinglbase
Encoding: 184 8218 117
Width: 333
Flags: W
Fore
53 -129 m 1
 44 -112 l 1
 96 -77 119 -50 119 -23 c 0
 119 -13 114 -5 99 9 c 0
 80 26 74 37 74 54 c 0
 74 81 96 101 125 101 c 0
 158 101 183 70 183 30 c 0
 183 -26 137 -82 53 -129 c 1
EndSplineSet
EndChar
StartChar: quotedblbase
Encoding: 185 8222 118
Width: 556
Flags: W
VStem: 87 109<30 54> 296 109<30 54>
Fore
66 -129 m 1
 57 -112 l 1
 109 -77 132 -50 132 -23 c 0
 132 -13 127 -5 112 9 c 0
 93 26 87 37 87 54 c 0
 87 81 109 101 138 101 c 0
 171 101 196 70 196 30 c 0
 196 -26 150 -82 66 -129 c 1
275 -129 m 1
 266 -112 l 1
 318 -77 341 -50 341 -23 c 0
 341 -13 336 -5 321 9 c 0
 302 26 296 37 296 54 c 0
 296 81 318 101 347 101 c 0
 380 101 405 70 405 30 c 0
 405 -26 359 -82 275 -129 c 1
EndSplineSet
KernsSLIF: 65 1 1 0 225 -13 1 0 84 -64 1 0 86 -96 1 0 87 -84 1 0 89 -69 1 0
EndChar
StartChar: quotedblright
Encoding: 186 8221 119
Width: 556
Flags: W
HStem: 646 20G<217.5 248.5 426.5 457.5>
VStem: 181 109<595 619> 390 109<595 619>
Fore
160 436 m 1
 151 453 l 1
 203 488 226 515 226 541 c 0
 226 551 220 560 206 574 c 0
 187 591 181 602 181 619 c 0
 181 646 203 666 232 666 c 0
 265 666 290 635 290 595 c 0
 290 539 244 482 160 436 c 1
369 436 m 1
 360 453 l 1
 412 488 435 515 435 541 c 0
 435 551 429 560 415 574 c 0
 396 591 390 602 390 619 c 0
 390 646 412 666 441 666 c 0
 474 666 499 635 499 595 c 0
 499 539 453 482 369 436 c 1
EndSplineSet
KernsSLIF: 65 -94 1 0 225 -147 1 0 257 -94 1 0 256 -94 1 0 262 -94 1 0 84 -21 1 0 86 -22 1 0 87 -19 1 0 89 -30 1 0
EndChar
StartChar: guillemotright
Encoding: 187 187 120
Width: 500
Flags: W
Fore
447 224 m 1
 447 215 l 1
 356 145 346 137 320 114 c 0
 256 58 230 37 224 37 c 0
 220 37 217 41 217 45 c 0
 217 60 255 107 308 156 c 0
 319 165 345 192 373 223 c 1
 353 263 l 1
 317 330 291 386 291 396 c 0
 291 400 294 403 298 403 c 0
 307 403 333 374 359 335 c 0
 365 327 371 318 380 308 c 0
 413 269 435 242 447 224 c 1
285 224 m 1
 285 215 l 1
 194 145 184 137 158 114 c 0
 94 58 68 37 62 37 c 0
 58 37 55 41 55 45 c 0
 55 60 93 107 146 156 c 0
 157 165 183 192 211 223 c 1
 191 263 l 1
 155 330 129 386 129 396 c 0
 129 400 132 403 136 403 c 0
 145 403 171 374 197 335 c 0
 203 327 209 318 218 308 c 0
 251 269 273 242 285 224 c 1
EndSplineSet
KernsSLIF: 65 -25 1 0 225 -51 1 0 257 -25 1 0 256 -25 1 0 262 -25 1 0 84 -77 1 0 86 -76 1 0 87 -67 1 0 89 -81 1 0
EndChar
StartChar: ellipsis
Encoding: 188 8230 121
Width: 889
Flags: W
HStem: -11 21G<96 126 393 423 690 720>
VStem: 57 111<43 54> 354 111<43 54> 651 111<43 54>
CounterMasks: 1 00
Fore
112 100 m 0
 142 100 168 74 168 43 c 0
 168 13 142 -11 110 -11 c 0
 82 -11 57 14 57 43 c 0
 57 74 82 100 112 100 c 0
409 100 m 0
 439 100 465 74 465 43 c 0
 465 13 439 -11 407 -11 c 0
 379 -11 354 14 354 43 c 0
 354 74 379 100 409 100 c 0
706 100 m 0
 736 100 762 74 762 43 c 0
 762 13 736 -11 704 -11 c 0
 676 -11 651 14 651 43 c 0
 651 74 676 100 706 100 c 0
EndSplineSet
Ligature: 0 1 'liga' period period period
EndChar
StartChar: perthousand
Encoding: 189 8240 122
Width: 1000
Flags: W
HStem: -19 27<481 502 845 858> 302 28<555 570 915 928> 326 27<143 158> 583 26<360 395>
VStem: 286 24<540 574> 366 72<80 121> 627 23<204 222> 726 72<76 121> 987 23<204 222>
DStem: 502 641 586 706 109 -18 155 -18
Fore
586 706 m 1xbf80
 155 -18 l 1
 109 -18 l 1
 502 641 l 1
 465 598 432 583 371 583 c 0
 352 583 346 584 306 597 c 1
 307 594 307 591 307 590 c 0
 310 577 310 575 310 563 c 0
 310 437 232 326 144 326 c 0
 77 326 25 386 25 463 c 0
 25 575 117 676 218 676 c 0
 240 676 252 670 280 648 c 0
 317 617 338 609 383 609 c 0
 436 609 455 621 542 706 c 1
 586 706 l 1xbf80
212 650 m 0
 205 651 179 631 163 611 c 0
 126 567 99 495 96 431 c 0
 94 385 117 353 154 353 c 0
 225 353 286 452 286 566 c 0
 286 599 282 606 251 621 c 0
 244 624 240 627 229 638 c 0
 221 646 216 649 212 650 c 0
557 330 m 0xdf80
 616 330 650 287 650 212 c 0
 650 91 573 -19 487 -19 c 0
 453 -19 415 0 393 29 c 0
 375 54 366 83 366 121 c 0
 366 229 459 330 557 330 c 0xdf80
566 302 m 0
 536 302 507 279 481 233 c 0
 456 188 438 124 438 80 c 0
 438 36 459 8 492 8 c 0
 525 8 554 26 579 61 c 0
 608 103 627 164 627 214 c 0
 627 264 601 302 566 302 c 0
917 330 m 0
 976 330 1010 287 1010 212 c 0
 1010 90 933 -19 847 -19 c 0
 813 -19 775 0 753 29 c 0
 735 54 726 83 726 121 c 0
 726 229 819 330 917 330 c 0
926 302 m 0
 908 302 888 293 874 278 c 0
 830 231 798 146 798 76 c 0
 798 36 820 8 852 8 c 0
 885 8 914 26 939 61 c 0
 968 102 987 164 987 214 c 0
 987 265 961 302 926 302 c 0
EndSplineSet
EndChar
StartChar: questiondown
Encoding: 191 191 123
Width: 500
Flags: W
HStem: -205 22<171 191> 368 105<312 319>
VStem: 28 74<-99 -76> 237 79<-96 -83> 262 105<421 423>
Fore
284 285 m 1xf0
 301 283 l 1
 283 184 272 162 189 67 c 1
 124 -4 102 -46 102 -99 c 0
 102 -153 131 -183 182 -183 c 0
 225 -183 252 -165 252 -135 c 0
 252 -127 250 -121 244 -108 c 0
 239 -96 237 -91 237 -83 c 0
 237 -63 253 -48 277 -48 c 0
 301 -48 316 -66 316 -96 c 0
 316 -160 258 -205 175 -205 c 0
 86 -205 28 -154 28 -76 c 0
 28 -15 48 12 162 105 c 0
 233 162 263 200 277 256 c 2
 284 285 l 1xf0
314 473 m 0
 344 473 367 450 367 421 c 0
 367 391 344 368 315 368 c 0
 286 368 262 392 262 421 c 0xe8
 262 448 286 473 314 473 c 0
EndSplineSet
EndChar
StartChar: grave
Encoding: 193 96 124
Width: 333
Flags: W
HStem: 644 20G<146 163.5>
Fore
280 492 m 1
 140 598 l 2
 127 608 121 618 121 630 c 0
 121 649 136 664 156 664 c 0
 171 664 182 657 195 641 c 2
 311 492 l 1
 280 492 l 1
EndSplineSet
EndChar
StartChar: acute
Encoding: 194 180 125
Width: 333
Flags: W
HStem: 644 20G<362 377>
Fore
180 494 m 1
 342 654 l 2
 349 660 357 664 367 664 c 0
 387 664 403 648 403 628 c 0
 403 616 398 607 386 600 c 2
 215 494 l 1
 180 494 l 1
EndSplineSet
Ligature: 0 1 'liga' space acutecomb
EndChar
StartChar: circumflex
Encoding: 195 710 126
Width: 333
Flags: W
HStem: 641 20G<248 297>
Fore
297 661 m 1
 385 492 l 1
 349 492 l 1
 267 596 l 1
 130 492 l 1
 91 492 l 1
 248 661 l 1
 297 661 l 1
EndSplineSet
EndChar
StartChar: tilde
Encoding: 196 732 127
Width: 333
Flags: W
Fore
399 624 m 1
 427 624 l 1
 413 557 380 520 332 520 c 0
 320 520 301 525 275 535 c 0
 221 557 197 564 180 564 c 0
 155 564 139 549 129 517 c 1
 100 517 l 1
 120 594 148 623 200 623 c 0
 222 623 248 616 286 599 c 0
 316 585 333 580 348 580 c 0
 375 580 388 591 399 624 c 1
EndSplineSet
Ligature: 0 1 'liga' space tildecomb
EndChar
StartChar: macron
Encoding: 197 175 128
Width: 333
Flags: W
HStem: 532 51<109 400>
Fore
411 583 m 1
 400 532 l 1
 99 532 l 1
 110 583 l 1
 411 583 l 1
EndSplineSet
Ligature: 0 1 'liga' space uni0304
EndChar
StartChar: breve
Encoding: 198 728 129
Width: 333
Flags: W
HStem: 492 59<244 262>
Fore
389 650 m 1
 418 650 l 1
 409 608 400 587 380 561 c 0
 347 516 300 492 247 492 c 0
 202 492 168 507 145 536 c 0
 125 562 117 593 117 650 c 1
 146 650 l 1
 151 588 190 551 254 551 c 0
 315 551 364 587 389 650 c 1
EndSplineSet
Ligature: 0 1 'liga' space uni0306
EndChar
StartChar: dotaccent
Encoding: 199 729 130
Width: 333
Flags: W
Fore
257 606 m 0
 282 606 305 582 305 557 c 0
 305 530 283 508 256 508 c 0
 229 508 207 530 207 558 c 0
 207 584 229 606 257 606 c 0
EndSplineSet
Ligature: 0 1 'liga' space uni0307
EndChar
StartChar: dieresis
Encoding: 200 168 131
Width: 333
Flags: W
VStem: 107 98<555 560> 307 98<555 560>
Fore
157 606 m 0
 182 606 205 582 205 557 c 0
 205 530 183 508 156 508 c 0
 129 508 107 530 107 558 c 0
 107 584 129 606 157 606 c 0
357 606 m 0
 382 606 405 582 405 557 c 0
 405 530 383 508 356 508 c 0
 329 508 307 530 307 558 c 0
 307 584 329 606 357 606 c 0
EndSplineSet
Ligature: 0 1 'liga' space uni0308
EndChar
StartChar: ring
Encoding: 202 730 132
Width: 333
Flags: W
HStem: 508 34<250 257> 673 34<254 258>
VStem: 155 34<608 610> 321 34<607 611>
Fore
254 707 m 0
 309 707 355 662 355 607 c 0
 355 553 310 508 255 508 c 0
 199 508 155 552 155 608 c 0
 155 662 200 707 254 707 c 0
254 673 m 0
 219 673 189 643 189 608 c 0
 189 571 218 542 254 542 c 0
 292 542 321 570 321 607 c 0
 321 643 291 673 254 673 c 0
EndSplineSet
Ligature: 0 1 'liga' space uni030A
EndChar
StartChar: cedilla
Encoding: 203 184 133
Width: 333
Flags: W
HStem: -217 35<49 67> -97 34<62 100> -20 20G<81 119>
VStem: 108 74<-143 -131>
DStem: 81 0 119 0 21 -96 75 -66
Fore
21 -96 m 1
 81 0 l 1
 119 0 l 1
 75 -66 l 1
 85 -64 92 -63 100 -63 c 0
 150 -63 182 -90 182 -131 c 0
 182 -181 132 -217 63 -217 c 0
 35 -217 12 -212 -30 -196 c 1
 -13 -167 l 1
 17 -178 34 -182 55 -182 c 0
 89 -182 108 -167 108 -141 c 0
 108 -115 89 -97 62 -97 c 0
 52 -97 44 -99 30 -104 c 1
 21 -96 l 1
EndSplineSet
Ligature: 0 1 'liga' space uni0327
EndChar
StartChar: hungarumlaut
Encoding: 205 733 134
Width: 333
Flags: W
HStem: 644 20G<275 290 445 460>
Fore
93 494 m 1
 255 654 l 2
 262 660 270 664 280 664 c 0
 300 664 316 648 316 628 c 0
 316 616 311 607 299 600 c 2
 128 494 l 1
 93 494 l 1
263 494 m 1
 425 654 l 2
 432 660 440 664 450 664 c 0
 470 664 486 648 486 628 c 0
 486 616 481 607 469 600 c 2
 298 494 l 1
 263 494 l 1
EndSplineSet
Ligature: 0 1 'liga' space uni030B
EndChar
StartChar: ogonek
Encoding: 206 731 135
Width: 333
Flags: W
HStem: -169 63<75 100>
VStem: -20 61<-74 -55>
Fore
183 -74 m 1
 200 -92 l 1
 165 -143 123 -169 75 -169 c 0
 23 -169 -20 -126 -20 -74 c 0
 -20 -30 0 2 50 40 c 1
 74 40 l 1
 52 5 41 -25 41 -55 c 0
 41 -85 66 -106 100 -106 c 0
 131 -106 156 -96 183 -74 c 1
EndSplineSet
Ligature: 0 1 'liga' space uni0328
EndChar
StartChar: caron
Encoding: 207 711 136
Width: 333
Flags: W
HStem: 641 20G<121 158 390 426>
Fore
426 661 m 1
 263 492 l 1
 217 492 l 1
 121 661 l 1
 158 661 l 1
 248 556 l 1
 390 661 l 1
 426 661 l 1
EndSplineSet
EndChar
StartChar: emdash
Encoding: 208 8212 137
Width: 889
Flags: W
HStem: 197 46<1 886>
Fore
894 243 m 1
 886 197 l 1
 -6 197 l 1
 2 243 l 1
 894 243 l 1
EndSplineSet
EndChar
StartChar: AE
Encoding: 225 198 138
Width: 889
Flags: W
HStem: 0 16<151.167 160 282 292.167> 0 33<500 780> 234 37<249 411> 328 33<545 608> 620 33<394 726> 636 17<394 420>
DStem: 426 557 517 613 57 92 249 271 517 613 606 583 422 271 545 361
Fore
826 169 m 1x78
 844 164 l 1
 780 0 l 1x78
 282 0 l 1
 282 16 l 1
 343 22 350 27 362 64 c 1
 411 234 l 1
 221 234 l 1
 210 220 200 208 196 204 c 0
 135 131 96 70 96 47 c 0
 96 28 107 22 160 16 c 1
 160 0 l 1xb0
 -27 0 l 1x70
 -27 16 l 1
 -3 22 9 32 57 92 c 2
 426 557 l 2
 456 594 458 598 458 610 c 0
 458 626 447 634 420 636 c 0xb4
 416 636 405 637 394 638 c 1
 394 653 l 1x38
 911 653 l 1x34
 878 500 l 1
 861 502 l 1
 862 515 862 532 862 538 c 0
 862 608 834 620 670 620 c 0
 623 620 615 615 606 583 c 2
 545 361 l 1
 704 362 714 367 756 458 c 1
 774 454 l 1
 705 222 l 1
 688 226 l 1
 692 250 694 264 694 278 c 0
 694 319 673 328 576 328 c 2
 536 328 l 1
 478 122 465 74 465 62 c 0
 465 42 481 33 516 33 c 2
 546 33 l 2
 696 33 750 60 826 169 c 1x78
249 271 m 1
 422 271 l 1
 517 613 l 1
 249 271 l 1
EndSplineSet
EndChar
StartChar: ordfeminine
Encoding: 227 170 139
Width: 276
Flags: W
HStem: 406 34<120 144> 443 21G<297 298.5>
VStem: 42 73<470 493> 229 65<432 449>
Fore
299 673 m 1
 352 675 l 1
 319 559 302 493 298 472 c 2
 295 457 l 1
 294 454 294 451 294 449 c 0
 294 446 296 443 298 443 c 0
 299 443 300 443 301 444 c 2
 307 447 l 2
 308 447 319 457 329 467 c 0
 331 470 337 476 343 482 c 1
 350 472 l 1
 301 417 286 406 260 406 c 0
 241 406 229 416 229 432 c 0
 229 448 232 458 246 493 c 1
 197 425 169 406 120 406 c 0
 72 406 42 433 42 476 c 0
 42 569 143 676 231 676 c 0
 265 676 285 665 290 641 c 1
 297 671 l 1
 299 673 l 1
250 658 m 0
 199 665 115 554 115 480 c 0
 115 460 129 440 144 440 c 0
 168 440 196 460 221 496 c 0
 247 535 269 590 269 620 c 0
 269 641 261 656 250 658 c 0
EndSplineSet
EndChar
StartChar: Lslash
Encoding: 232 321 140
Width: 556
Flags: W
HStem: 0 36<238 501> 637 16<130 140.333 388 403>
DStem: 140 332 127 284 41 273 28 225 196 532 302 563 140 332 253 388 396 473 382 424 253 388 240 341
Fore
539 185 m 1
 559 179 l 1
 501 0 l 1
 -8 0 l 1
 -8 16 l 1
 48 26 55 32 73 90 c 1
 127 284 l 1
 28 225 l 1
 41 273 l 1
 140 332 l 1
 196 532 l 2
 203 557 207 580 207 594 c 0
 207 623 192 631 130 637 c 1
 130 653 l 1
 403 653 l 1
 403 637 l 1
 343 633 317 614 302 563 c 1
 253 388 l 1
 396 473 l 1
 382 424 l 1
 240 341 l 1
 206 218 l 1
 179 125 168 80 168 70 c 0
 168 44 194 36 273 36 c 0
 357 36 398 42 433 59 c 0
 477 81 504 113 539 185 c 1
EndSplineSet
EndChar
StartChar: Oslash
Encoding: 233 216 141
Width: 722
Flags: W
HStem: -18 33<275 301> 633 33<459 483>
VStem: 60 105<176 222> 594 105<431 475>
DStem: 155 22 187 3 69 -105 113 -105 546 607 570 574 190 74 215 44 625 722 669 722 573 644 605 626
Fore
669 722 m 1
 605 626 l 1
 638 600 650 587 665 562 c 0
 687 524 699 477 699 431 c 0
 699 205 491 -18 281 -18 c 0
 250 -18 225 -12 187 3 c 1
 113 -105 l 1
 69 -105 l 1
 155 22 l 1
 89 70 60 132 60 222 c 0
 60 339 119 460 220 553 c 0
 300 625 390 666 468 666 c 0
 505 666 536 660 573 644 c 1
 625 722 l 1
 669 722 l 1
190 74 m 1
 546 607 l 1
 521 625 497 633 464 633 c 0
 393 633 330 594 275 514 c 0
 212 423 165 279 165 176 c 0
 165 138 172 108 190 74 c 1
570 574 m 1
 215 44 l 1
 237 23 261 15 295 15 c 0
 366 15 428 53 483 132 c 0
 545 222 594 373 594 475 c 0
 594 514 586 545 570 574 c 1
EndSplineSet
KernsSLIF: 65 -38 0 0
EndChar
StartChar: OE
Encoding: 234 338 142
Width: 944
Flags: W
HStem: 0 33<576 834> 503 150<595 933> 620 33<595 830> 634 32<432 466>
VStem: 49 108<201 233>
DStem: 531 467 664 588 458 199 600 361 531 467 591 328 458 199 539 138
Fore
964 653 m 1xa8
 933 503 l 1
 917 503 l 1xc8
 917 542 916 556 911 572 c 0
 902 607 872 620 797 620 c 2
 701 620 l 2xa8
 680 620 671 612 664 588 c 2
 600 361 l 1
 612 361 l 2
 759 361 769 366 810 456 c 1
 828 452 l 1
 762 222 l 1
 742 224 l 1
 745 246 746 249 748 266 c 1
 747 313 732 322 653 325 c 2
 591 328 l 1
 539 138 l 1
 539 137 538 134 537 131 c 2
 535 124 l 2
 527 92 524 77 524 69 c 0
 524 42 542 33 599 33 c 0
 744 33 803 62 883 172 c 1
 899 166 l 1
 834 0 l 1
 488 0 l 2
 450 0 450 0 357 -5 c 0
 323 -7 295 -8 276 -8 c 0
 146 -8 49 92 49 225 c 0
 49 457 236 666 443 666 c 0x98
 464 666 510 662 541 658 c 0
 564 655 582 653 595 653 c 2xc8
 964 653 l 1xa8
458 199 m 2
 531 467 l 2
 551 540 551 540 551 555 c 0
 551 601 508 634 448 634 c 0x98
 401 634 356 617 316 583 c 0
 224 507 157 346 157 202 c 0
 157 84 206 24 301 24 c 0
 343 24 380 38 400 63 c 0
 424 92 437 123 458 199 c 2
EndSplineSet
EndChar
StartChar: ordmasculine
Encoding: 235 186 143
Width: 310
Flags: W
HStem: 406 24<164 180>
VStem: 67 73<475 491> 289 73<590 607>
Fore
265 676 m 0
 322 676 362 641 362 592 c 0
 362 500 262 406 164 406 c 0
 105 406 67 439 67 489 c 0
 67 584 164 676 265 676 c 0
258 654 m 0
 204 658 140 561 140 476 c 0
 140 448 155 430 178 430 c 0
 195 430 214 439 227 452 c 0
 263 490 289 555 289 607 c 0
 289 637 279 653 258 654 c 0
EndSplineSet
EndChar
StartChar: ae
Encoding: 241 230 144
Width: 667
Flags: W
HStem: -11 47<403 446> 416 25<539 559>
VStem: 296 80<111 137> 574 66<368 384>
Fore
588 113 m 1
 598 101 l 1
 542 33 466 -11 403 -11 c 0
 340 -11 296 40 296 111 c 0
 296 125 298 135 302 151 c 1
 217 27 171 -11 107 -11 c 0
 58 -11 23 28 23 83 c 0
 23 241 179 441 303 441 c 0
 337 441 353 430 369 394 c 1
 388 437 l 1
 459 439 l 1
 437 377 l 1
 484 423 518 441 559 441 c 0
 609 441 640 414 640 371 c 0
 640 333 619 300 577 272 c 0
 539 247 491 229 384 198 c 1
 378 170 376 159 376 137 c 0
 376 71 400 36 446 36 c 0
 489 36 529 57 588 113 c 1
305 421 m 0
 226 425 116 246 109 100 c 0
 107 61 120 39 143 39 c 0
 169 39 200 55 223 80 c 0
 295 158 350 284 350 370 c 0
 350 400 332 420 305 421 c 0
390 223 m 1
 418 231 437 236 450 241 c 0
 523 266 574 323 574 379 c 0
 574 403 562 416 539 416 c 0
 516 416 493 404 473 384 c 1
 438 346 420 312 390 223 c 1
EndSplineSet
KernsSLIF: 118 2 0 0 119 5 0 0 121 6 0 0
EndChar
StartChar: dotlessi
Encoding: 245 305 145
Width: 278
Flags: W
HStem: -11 47<95 140>
DStem: 119 332 228 439 71 155 140 117
Fore
222 114 m 1
 235 103 l 1
 178 19 141 -11 95 -11 c 0
 65 -11 49 9 49 46 c 0
 49 66 55 97 71 155 c 2
 119 332 l 1
 125 352 128 368 128 376 c 0
 128 396 118 399 65 400 c 1
 65 416 l 1
 104 419 124 422 225 441 c 1
 228 439 l 1
 140 117 l 1
 139 115 l 1
 139 113 l 1
 137 105 134 98 134 95 c 0
 127 76 124 61 124 51 c 0
 124 44 132 36 140 36 c 0
 149 36 164 46 181 63 c 0
 191 74 198 82 222 114 c 1
EndSplineSet
EndChar
StartChar: lslash
Encoding: 248 322 146
Width: 278
Flags: W
HStem: -11 43<90 133> 640 16<118 126.429>
VStem: 41 77<43 54>
DStem: 307 460 295 414 209 410 197 364
Fore
209 410 m 1
 307 460 l 1
 295 414 l 1
 197 364 l 1
 128 99 l 1
 128 97 l 1
 127 96 126 93 126 89 c 0
 121 70 118 57 118 50 c 0
 118 38 123 32 133 32 c 0
 151 32 169 47 202 89 c 0
 211 101 219 112 228 123 c 1
 241 114 l 1
 176 18 142 -11 90 -11 c 0
 58 -11 41 8 41 45 c 0
 41 66 59 141 88 238 c 0
 91 248 100 280 109 314 c 1
 37 278 l 1
 49 324 l 1
 121 360 l 1
 165 525 186 608 186 616 c 0
 186 633 167 640 118 640 c 1
 118 656 l 1
 177 663 215 670 274 683 c 1
 279 678 l 1
 209 410 l 1
EndSplineSet
EndChar
StartChar: oslash
Encoding: 249 248 147
Width: 500
Flags: W
HStem: -11 21<176 191> 420 21<306 323>
VStem: 28 84<97 130> 385 84<298 325>
DStem: 124 -4 156 -9 60 -135 95 -135 328 418 357 406 140 29 167 14 394 554 428 554 339 440 370 435
Fore
428 554 m 1
 370 435 l 1
 411 423 430 409 448 379 c 0
 461 357 469 325 469 298 c 0
 469 222 425 133 355 68 c 0
 298 16 238 -11 176 -11 c 0
 167 -11 162 -11 156 -9 c 1
 95 -135 l 1
 60 -135 l 1
 124 -4 l 1
 93 6 80 14 65 30 c 0
 41 55 28 91 28 130 c 0
 28 283 178 441 323 441 c 0
 327 441 332 441 339 440 c 1
 394 554 l 1
 428 554 l 1
140 29 m 1
 328 418 l 1
 323 419 320 420 318 420 c 0
 285 420 250 403 223 374 c 0
 157 304 112 192 112 97 c 0
 112 70 121 48 140 29 c 1
357 406 m 1
 167 14 l 1
 175 11 180 10 189 10 c 0
 233 10 271 34 308 87 c 0
 353 152 385 252 385 325 c 0
 385 360 376 385 357 406 c 1
EndSplineSet
EndChar
StartChar: oe
Encoding: 250 339 148
Width: 667
Flags: W
HStem: -12 42<407 448> -11 20<163 181> 418 23<282 296 544 565>
VStem: 20 83<100 135> 580 66<371 385>
Fore
593 105 m 1xb8
 604 94 l 1
 530 20 470 -12 407 -12 c 0xb8
 362 -12 327 11 303 56 c 1
 252 6 216 -11 165 -11 c 0x78
 81 -11 20 51 20 135 c 0
 20 279 165 441 294 441 c 0
 347 441 389 411 406 361 c 1
 474 423 511 441 565 441 c 0
 616 441 646 415 646 373 c 0
 646 335 620 295 576 264 c 0
 536 236 462 207 419 203 c 0
 395 201 387 197 383 185 c 0
 378 169 373 135 373 114 c 0
 373 65 404 30 448 30 c 0
 486 30 515 45 593 105 c 1xb8
284 418 m 0
 258 418 233 406 211 383 c 0
 148 314 103 198 103 100 c 0
 103 44 129 9 170 9 c 0x78
 203 9 230 27 257 66 c 0
 278 96 292 130 310 189 c 0
 331 260 343 318 343 352 c 0
 343 392 320 418 284 418 c 0
392 215 m 1
 474 241 485 245 511 264 c 0
 554 296 580 339 580 377 c 0
 580 401 567 416 546 416 c 0
 525 416 499 402 476 377 c 0
 437 335 418 299 392 215 c 1
EndSplineSet
EndChar
StartChar: germandbls
Encoding: 251 223 149
Width: 500
Flags: W
HStem: -207 24<-92 -81> -13 22<241 251> 656 23<339 361>
VStem: -168 67<-175 -145> -168 79<-147 -137> 161 82<51 64> 367 87<240 262> 413 80<548 577>
Fore
330 384 m 1xf5
 330 381 l 1
 361 377 377 372 395 360 c 0
 430 336 454 290 454 244 c 0
 454 174 421 97 370 44 c 0
 335 8 287 -13 241 -13 c 0
 193 -13 161 14 161 53 c 0
 161 81 179 100 205 100 c 0
 228 100 243 84 243 60 c 0
 243 51 241 43 235 33 c 0
 233 29 231 24 231 22 c 0
 231 15 240 9 249 9 c 0
 275 9 300 28 320 63 c 0
 348 113 367 194 367 262 c 0xe6
 367 332 341 367 286 369 c 0
 266 370 260 374 260 384 c 0
 260 394 264 397 277 397 c 0
 358 397 413 470 413 577 c 0
 413 628 391 656 351 656 c 0
 293 656 244 582 206 438 c 1
 95 12 l 2
 59 -125 -10 -207 -90 -207 c 0
 -137 -207 -168 -182 -168 -145 c 0xf5
 -168 -119 -153 -103 -129 -103 c 0
 -106 -103 -89 -118 -89 -139 c 0xec
 -89 -146 -92 -157 -97 -165 c 0
 -100 -169 -101 -172 -101 -175 c 0
 -101 -180 -94 -183 -83 -183 c 0
 -34 -183 -7 -139 23 -4 c 1
 95 315 l 2
 153 571 230 679 354 679 c 0
 437 679 493 626 493 548 c 0
 493 475 448 428 338 387 c 2
 330 384 l 1xf5
EndSplineSet
EndChar
StartChar: Adieresis
Encoding: 256 196 150
Width: 611
Flags: W
HStem: 0 16<125.8 136 318 328.667 552.6 564> 226 36<175 374> 648 20G<368 394> 720 98<293 302 486 498>
VStem: 246 98<767 772> 446 98<767 772>
DStem: 325 522 394 668 369 262 488 102 368 668 325 522 78 168 175 262 368 668 154 226 78 168 97 113 374 226 394 668 394 95 488 102
Fore
296 818 m 0
 321 818 344 794 344 769 c 0
 344 742 322 720 295 720 c 0
 268 720 246 742 246 770 c 0
 246 796 268 818 296 818 c 0
496 818 m 0
 521 818 544 794 544 769 c 0
 544 742 522 720 495 720 c 0
 468 720 446 742 446 770 c 0
 446 796 468 818 496 818 c 0
564 16 m 1
 564 0 l 1
 318 0 l 1
 318 16 l 1
 382 22 396 31 396 69 c 0
 396 77 395 86 394 95 c 1
 374 226 l 1
 154 226 l 1
 97 113 l 2
 80 79 77 70 77 51 c 0
 77 26 85 21 136 16 c 1
 136 0 l 1
 -51 0 l 1
 -51 16 l 1
 -11 24 -1 35 78 168 c 1
 368 668 l 1
 394 668 l 1
 488 102 l 1
 501 29 507 21 564 16 c 1
175 262 m 1
 369 262 l 1
 325 522 l 1
 175 262 l 1
EndSplineSet
KernsSLIF: 67 -50 0 0 71 -44 0 0 79 -45 0 0 81 -44 0 0 84 -14 0 0 85 -57 0 0 86 -81 0 0 87 -75 0 0 89 -21 0 0 97 -4 0 0 99 -18 0 0 44 8 0 0 100 -4 0 0 103 -25 0 0 171 -44 0 0 172 -43 0 0 45 -13 0 0 111 -17 0 0 46 8 0 0 113 -12 0 0 186 -92 0 0 39 -92 0 0 116 -6 0 0 117 -9 0 0 118 -50 0 0 119 -44 0 0 121 -57 0 0
Ligature: 0 0 'liga' A uni0308
EndChar
StartChar: Aacute
Encoding: 257 193 151
Width: 611
Flags: W
HStem: 0 16<125.8 136 318 328.667 552.6 564> 226 36<175 374> 648 20G<368 394>
DStem: 325 522 394 668 369 262 488 102 368 668 325 522 78 168 175 262 368 668 154 226 78 168 97 113 374 226 394 668 394 95 488 102
Fore
319 706 m 1
 481 866 l 2
 488 872 496 876 506 876 c 0
 526 876 542 860 542 840 c 0
 542 828 537 819 525 812 c 2
 354 706 l 1
 319 706 l 1
564 16 m 1
 564 0 l 1
 318 0 l 1
 318 16 l 1
 382 22 396 31 396 69 c 0
 396 77 395 86 394 95 c 1
 374 226 l 1
 154 226 l 1
 97 113 l 2
 80 79 77 70 77 51 c 0
 77 26 85 21 136 16 c 1
 136 0 l 1
 -51 0 l 1
 -51 16 l 1
 -11 24 -1 35 78 168 c 1
 368 668 l 1
 394 668 l 1
 488 102 l 1
 501 29 507 21 564 16 c 1
175 262 m 1
 369 262 l 1
 325 522 l 1
 175 262 l 1
EndSplineSet
KernsSLIF: 67 -50 0 0 71 -44 0 0 79 -45 0 0 81 -44 0 0 84 -14 0 0 85 -57 0 0 86 -81 0 0 87 -75 0 0 89 -21 0 0 97 -4 0 0 99 -18 0 0 44 8 0 0 100 -4 0 0 101 -17 0 0 103 -25 0 0 171 -44 0 0 172 -43 0 0 45 -13 0 0 111 -17 0 0 46 8 0 0 113 -12 0 0 39 -92 0 0 116 -6 0 0 117 -9 0 0 118 -50 0 0 119 -44 0 0 121 -57 0 0
Ligature: 0 0 'liga' A acutecomb
EndChar
StartChar: Agrave
Encoding: 258 192 152
Width: 611
Flags: W
HStem: 0 16<125.8 136 318 328.667 552.6 564> 226 36<175 374> 648 20G<368 394>
DStem: 325 522 394 668 369 262 488 102 368 668 325 522 78 168 175 262 368 668 154 226 78 168 97 113 374 226 394 668 394 95 488 102
Fore
429 704 m 1
 289 810 l 2
 276 820 270 830 270 842 c 0
 270 861 285 876 305 876 c 0
 320 876 331 869 344 853 c 2
 460 704 l 1
 429 704 l 1
564 16 m 1
 564 0 l 1
 318 0 l 1
 318 16 l 1
 382 22 396 31 396 69 c 0
 396 77 395 86 394 95 c 1
 374 226 l 1
 154 226 l 1
 97 113 l 2
 80 79 77 70 77 51 c 0
 77 26 85 21 136 16 c 1
 136 0 l 1
 -51 0 l 1
 -51 16 l 1
 -11 24 -1 35 78 168 c 1
 368 668 l 1
 394 668 l 1
 488 102 l 1
 501 29 507 21 564 16 c 1
175 262 m 1
 369 262 l 1
 325 522 l 1
 175 262 l 1
EndSplineSet
KernsSLIF: 67 -50 0 0 71 -44 0 0 79 -45 0 0 81 -44 0 0 84 -14 0 0 85 -57 0 0 86 -81 0 0 87 -75 0 0 89 -21 0 0 44 8 0 0 46 8 0 0
Ligature: 0 0 'liga' A gravecomb
EndChar
StartChar: Acircumflex
Encoding: 259 194 153
Width: 611
Flags: W
HStem: 0 16<125.8 136 318 328.667 552.6 564> 226 36<175 374> 648 20G<368 394>
DStem: 325 522 394 668 369 262 488 102 368 668 325 522 78 168 175 262 368 668 154 226 78 168 97 113 374 226 394 668 394 95 488 102
Fore
441 873 m 1
 529 704 l 1
 493 704 l 1
 411 808 l 1
 274 704 l 1
 235 704 l 1
 392 873 l 1
 441 873 l 1
564 16 m 1
 564 0 l 1
 318 0 l 1
 318 16 l 1
 382 22 396 31 396 69 c 0
 396 77 395 86 394 95 c 1
 374 226 l 1
 154 226 l 1
 97 113 l 2
 80 79 77 70 77 51 c 0
 77 26 85 21 136 16 c 1
 136 0 l 1
 -51 0 l 1
 -51 16 l 1
 -11 24 -1 35 78 168 c 1
 368 668 l 1
 394 668 l 1
 488 102 l 1
 501 29 507 21 564 16 c 1
175 262 m 1
 369 262 l 1
 325 522 l 1
 175 262 l 1
EndSplineSet
KernsSLIF: 67 -50 0 0 71 -44 0 0 79 -45 0 0 81 -44 0 0 84 -14 0 0 85 -57 0 0 86 -81 0 0 87 -75 0 0 89 -21 0 0 44 8 0 0 46 8 0 0
Ligature: 0 0 'liga' A uni0302
EndChar
StartChar: Abreve
Encoding: 260 258 154
Width: 611
Flags: W
HStem: 0 16<125.8 136 318 328.667 552.6 564> 226 36<175 374> 648 20G<368 394> 704 59<375 399>
DStem: 325 522 394 668 369 262 488 102 368 668 325 522 78 168 175 262 368 668 154 226 78 168 97 113 374 226 394 668 394 95 488 102
Fore
528 862 m 1
 557 862 l 1
 548 820 539 799 519 773 c 0
 486 728 439 704 386 704 c 0
 341 704 307 719 284 748 c 0
 264 774 256 805 256 862 c 1
 285 862 l 1
 290 800 329 763 393 763 c 0
 454 763 503 799 528 862 c 1
564 16 m 1
 564 0 l 1
 318 0 l 1
 318 16 l 1
 382 22 396 31 396 69 c 0
 396 77 395 86 394 95 c 1
 374 226 l 1
 154 226 l 1
 97 113 l 2
 80 79 77 70 77 51 c 0
 77 26 85 21 136 16 c 1
 136 0 l 1
 -51 0 l 1
 -51 16 l 1
 -11 24 -1 35 78 168 c 1
 368 668 l 1
 394 668 l 1
 488 102 l 1
 501 29 507 21 564 16 c 1
175 262 m 1
 369 262 l 1
 325 522 l 1
 175 262 l 1
EndSplineSet
Ligature: 0 0 'liga' A uni0306
EndChar
StartChar: Atilde
Encoding: 261 195 155
Width: 611
Flags: W
HStem: 0 16<125.8 136 318 328.667 552.6 564> 226 36<175 374> 648 20G<368 394> 732 60<471 487> 776 59<319 339>
DStem: 325 522 394 668 369 262 488 102 368 668 325 522 78 168 175 262 368 668 154 226 78 168 97 113 374 226 394 668 394 95 488 102
Fore
538 836 m 1xf0
 566 836 l 1
 552 769 519 732 471 732 c 0xf0
 459 732 440 737 414 747 c 0
 360 769 336 776 319 776 c 0
 294 776 278 761 268 729 c 1
 239 729 l 1
 259 806 287 835 339 835 c 0xe8
 361 835 387 828 425 811 c 0
 455 797 472 792 487 792 c 0
 514 792 527 803 538 836 c 1xf0
564 16 m 1
 564 0 l 1
 318 0 l 1
 318 16 l 1
 382 22 396 31 396 69 c 0
 396 77 395 86 394 95 c 1
 374 226 l 1
 154 226 l 1
 97 113 l 2
 80 79 77 70 77 51 c 0
 77 26 85 21 136 16 c 1
 136 0 l 1
 -51 0 l 1
 -51 16 l 1
 -11 24 -1 35 78 168 c 1
 368 668 l 1
 394 668 l 1
 488 102 l 1
 501 29 507 21 564 16 c 1
175 262 m 1
 369 262 l 1
 325 522 l 1
 175 262 l 1
EndSplineSet
KernsSLIF: 67 -50 0 0 71 -44 0 0 79 -45 0 0 81 -44 0 0 84 -14 0 0 85 -57 0 0 86 -81 0 0 87 -75 0 0 89 -21 0 0 44 7 0 0 46 7 0 0
Ligature: 0 0 'liga' A tildecomb
EndChar
StartChar: Aring
Encoding: 262 197 156
Width: 611
Flags: W
HStem: 0 16<125.8 136 318 328.667 552.6 564> 226 36<175 374> 648 20G<368 394> 705 34<380 398> 870 34<388 398>
VStem: 289 34<805 817> 455 34<804 808>
DStem: 325 522 394 668 369 262 488 102 368 668 325 522 78 168 175 262 368 668 154 226 78 168 97 113 374 226 394 668 394 95 488 102
Fore
388 904 m 0
 443 904 489 859 489 804 c 0
 489 750 444 705 389 705 c 0
 333 705 289 749 289 805 c 0
 289 859 334 904 388 904 c 0
388 870 m 0
 353 870 323 840 323 805 c 0
 323 768 352 739 388 739 c 0
 426 739 455 767 455 804 c 0
 455 840 425 870 388 870 c 0
564 16 m 1
 564 0 l 1
 318 0 l 1
 318 16 l 1
 382 22 396 31 396 69 c 0
 396 77 395 86 394 95 c 1
 374 226 l 1
 154 226 l 1
 97 113 l 2
 80 79 77 70 77 51 c 0
 77 26 85 21 136 16 c 1
 136 0 l 1
 -51 0 l 1
 -51 16 l 1
 -11 24 -1 35 78 168 c 1
 368 668 l 1
 394 668 l 1
 488 102 l 1
 501 29 507 21 564 16 c 1
175 262 m 1
 369 262 l 1
 325 522 l 1
 175 262 l 1
EndSplineSet
KernsSLIF: 67 -50 0 0 71 -44 0 0 79 -45 0 0 81 -44 0 0 84 -14 0 0 85 -57 0 0 86 -81 0 0 87 -75 0 0 89 -21 0 0 97 -4 0 0 99 -18 0 0 44 8 0 0 100 -4 0 0 101 -17 0 0 103 -25 0 0 171 -44 0 0 172 -43 0 0 45 -13 0 0 111 -17 0 0 46 8 0 0 113 -12 0 0 186 -92 0 0 39 -92 0 0 116 -6 0 0 117 -9 0 0 118 -50 0 0 119 -44 0 0 121 -57 0 0
Ligature: 0 0 'liga' A uni030A
EndChar
StartChar: Aogonek
Encoding: 263 260 157
Width: 611
Flags: W
HStem: -169 63<582 607> 0 16<125.8 136 318 328.667> 226 36<175 374> 648 20G<368 394>
VStem: 487 61<-73 -49>
DStem: 325 522 394 668 369 262 488 102 368 668 325 522 78 168 175 262 368 668 154 226 78 168 97 113 374 226 394 668 394 95 488 102
Fore
374 226 m 1
 154 226 l 1
 97 113 l 2
 80 79 77 70 77 51 c 0
 77 26 85 21 136 16 c 1
 136 0 l 1
 -51 0 l 1
 -51 16 l 1
 -11 24 -1 35 78 168 c 1
 368 668 l 1
 394 668 l 1
 488 102 l 1
 501 29 507 21 564 16 c 1
 564 0 l 1
 553 -11 548 -27 548 -49 c 0
 548 -85 570 -106 607 -106 c 0
 638 -106 663 -96 690 -74 c 1
 707 -92 l 1
 672 -143 630 -169 582 -169 c 0
 530 -169 487 -126 487 -73 c 0
 487 -46 493 -30 515 0 c 1
 318 0 l 1
 318 16 l 1
 382 22 396 31 396 69 c 0
 396 77 395 86 394 95 c 1
 374 226 l 1
175 262 m 1
 369 262 l 1
 325 522 l 1
 175 262 l 1
EndSplineSet
Ligature: 0 0 'liga' A uni0328
EndChar
StartChar: Ccedilla
Encoding: 264 199 158
Width: 667
Flags: W
HStem: -217 35<209 232> -97 34<229 267> -18 45<327 353> 630 36<465 483>
VStem: 66 112<230 248> 275 74<-143 -131>
DStem: 244 -6 277 -14 188 -96 242 -66
Fore
277 -14 m 1
 242 -66 l 1
 252 -64 259 -63 267 -63 c 0
 317 -63 349 -90 349 -131 c 0
 349 -181 299 -217 230 -217 c 0
 202 -217 179 -212 137 -196 c 1
 154 -167 l 1
 183 -178 201 -182 222 -182 c 0
 256 -182 275 -167 275 -141 c 0
 275 -115 256 -97 229 -97 c 0
 219 -97 211 -99 197 -104 c 1
 188 -96 l 1
 244 -6 l 1
 135 26 66 122 66 243 c 0
 66 465 259 666 472 666 c 0
 504 666 544 660 589 649 c 0
 610 644 622 642 630 642 c 0
 650 642 660 648 668 664 c 1
 689 664 l 1
 652 465 l 1
 634 468 l 1
 624 576 573 630 481 630 c 0
 415 630 352 602 304 553 c 0
 226 472 178 351 178 232 c 0
 178 103 242 27 353 27 c 0
 435 27 493 57 583 145 c 1
 600 131 l 1
 510 26 430 -18 327 -18 c 0
 311 -18 295 -17 277 -14 c 1
EndSplineSet
KernsSLIF: 65 -18 0 0
Ligature: 0 0 'liga' C uni0327
EndChar
StartChar: Cacute
Encoding: 265 262 159
Width: 667
Flags: W
HStem: -18 45<327 353> 630 36<465 483>
VStem: 66 112<221 255>
Fore
417 706 m 1
 579 866 l 2
 586 872 594 876 604 876 c 0
 624 876 640 860 640 840 c 0
 640 828 635 819 623 812 c 2
 452 706 l 1
 417 706 l 1
652 465 m 1
 634 468 l 1
 624 576 573 630 481 630 c 0
 415 630 352 602 304 553 c 0
 226 472 178 351 178 232 c 0
 178 103 242 27 353 27 c 0
 435 27 493 57 583 145 c 1
 600 131 l 1
 510 26 430 -18 327 -18 c 0
 174 -18 66 90 66 243 c 0
 66 465 259 666 472 666 c 0
 504 666 544 660 589 649 c 0
 610 644 622 642 630 642 c 0
 650 642 660 648 668 664 c 1
 689 664 l 1
 652 465 l 1
EndSplineSet
Ligature: 0 0 'liga' C acutecomb
EndChar
StartChar: Ccaron
Encoding: 266 268 160
Width: 667
Flags: W
HStem: -18 45<327 353> 630 36<465 487>
VStem: 66 112<221 255>
Fore
663 873 m 1
 500 704 l 1
 454 704 l 1
 358 873 l 1
 395 873 l 1
 485 768 l 1
 627 873 l 1
 663 873 l 1
652 465 m 1
 634 468 l 1
 624 576 573 630 481 630 c 0
 415 630 352 602 304 553 c 0
 226 472 178 351 178 232 c 0
 178 103 242 27 353 27 c 0
 435 27 493 57 583 145 c 1
 600 131 l 1
 510 26 430 -18 327 -18 c 0
 174 -18 66 90 66 243 c 0
 66 465 259 666 472 666 c 0
 504 666 544 660 589 649 c 0
 610 644 622 642 630 642 c 0
 650 642 660 648 668 664 c 1
 689 664 l 1
 652 465 l 1
EndSplineSet
Ligature: 0 0 'liga' C uni030C
EndChar
StartChar: Dcaron
Encoding: 267 270 161
Width: 722
Flags: W
HStem: 0 30<215 265> 623 30<130 393> 637 16<130 140.333>
VStem: 589 111<382 410>
DStem: 196 532 313 594 73 90 192 162
Fore
621 873 m 1x90
 458 704 l 1
 412 704 l 1
 316 873 l 1
 353 873 l 1
 443 768 l 1
 585 873 l 1
 621 873 l 1x90
130 637 m 1xb0
 130 653 l 1xd0
 408 653 l 2
 586 653 700 548 700 384 c 0
 700 268 643 158 546 87 c 0
 469 31 362 0 245 0 c 2
 -8 0 l 1
 -8 16 l 1
 48 26 55 32 73 90 c 1
 196 532 l 2
 203 557 207 581 207 596 c 0
 207 623 192 631 130 637 c 1xb0
313 594 m 2
 192 162 l 2
 175 102 170 80 170 67 c 0
 170 41 189 30 235 30 c 0
 339 30 420 60 479 120 c 0
 547 188 589 300 589 408 c 0
 589 487 562 550 513 586 c 0
 481 610 431 623 374 623 c 0
 334 623 319 616 313 594 c 2
EndSplineSet
Ligature: 0 0 'liga' D uni030C
EndChar
StartChar: Edieresis
Encoding: 268 203 162
Width: 611
Flags: W
HStem: 0 33<231 499> 325 38<295 325> 620 33<130 441> 637 16<130 140.333> 720 98<307 318 499 512>
VStem: 260 98<767 772> 460 98<767 772>
DStem: 196 532 312 594 73 90 246 361
Fore
627 653 m 1xde
 596 500 l 1
 575 502 l 1
 576 519 577 534 577 547 c 0
 577 607 542 620 385 620 c 0xee
 329 620 318 616 312 594 c 2
 246 361 l 1
 281 362 313 363 325 363 c 0
 416 367 425 373 463 458 c 1
 481 454 l 1
 413 222 l 1
 393 227 l 1
 398 249 400 262 400 279 c 0
 400 296 398 305 393 310 c 0
 382 320 354 326 315 325 c 0
 303 325 272 326 237 328 c 1
 227 290 218 257 205 213 c 0
 180 125 169 78 169 67 c 0
 169 43 193 33 249 33 c 0
 324 33 392 43 429 60 c 0
 472 80 498 106 545 170 c 1
 561 162 l 1
 499 0 l 1
 -8 0 l 1
 -8 16 l 1
 48 26 56 33 73 90 c 1
 196 532 l 2
 201 550 207 585 207 596 c 0
 207 623 192 631 130 637 c 1xde
 130 653 l 1xee
 627 653 l 1xde
310 818 m 0
 335 818 358 794 358 769 c 0
 358 742 336 720 309 720 c 0
 282 720 260 742 260 770 c 0
 260 796 282 818 310 818 c 0
510 818 m 0
 535 818 558 794 558 769 c 0
 558 742 536 720 509 720 c 0
 482 720 460 742 460 770 c 0
 460 796 482 818 510 818 c 0
EndSplineSet
Ligature: 0 0 'liga' E uni0308
EndChar
StartChar: Eacute
Encoding: 269 201 163
Width: 611
Flags: W
HStem: 0 33<231 499> 325 38<295 325> 620 33<130 441> 637 16<130 140.333>
DStem: 196 532 312 594 73 90 246 361
Fore
627 653 m 1xd0
 596 500 l 1
 575 502 l 1
 576 519 577 534 577 547 c 0
 577 607 542 620 385 620 c 0xe0
 329 620 318 616 312 594 c 2
 246 361 l 1
 281 362 313 363 325 363 c 0
 416 367 425 373 463 458 c 1
 481 454 l 1
 413 222 l 1
 393 227 l 1
 398 249 400 262 400 279 c 0
 400 296 398 305 393 310 c 0
 382 320 354 326 315 325 c 0
 303 325 272 326 237 328 c 1
 227 290 218 257 205 213 c 0
 180 125 169 78 169 67 c 0
 169 43 193 33 249 33 c 0
 324 33 392 43 429 60 c 0
 472 80 498 106 545 170 c 1
 561 162 l 1
 499 0 l 1
 -8 0 l 1
 -8 16 l 1
 48 26 56 33 73 90 c 1
 196 532 l 2
 201 550 207 585 207 596 c 0
 207 623 192 631 130 637 c 1xd0
 130 653 l 1xe0
 627 653 l 1xd0
333 706 m 1
 495 866 l 2
 502 872 510 876 520 876 c 0
 540 876 556 860 556 840 c 0
 556 828 551 819 539 812 c 2
 368 706 l 1
 333 706 l 1
EndSplineSet
Ligature: 0 0 'liga' E acutecomb
EndChar
StartChar: Egrave
Encoding: 270 200 164
Width: 611
Flags: W
HStem: 0 33<231 499> 325 38<280 325> 620 33<130 441> 637 16<130 140.333>
DStem: 196 532 312 594 73 90 246 361
Fore
627 653 m 1xd0
 596 500 l 1
 575 502 l 1
 576 519 577 534 577 547 c 0
 577 607 542 620 385 620 c 0xe0
 329 620 318 616 312 594 c 2
 246 361 l 1
 281 362 313 363 325 363 c 0
 416 367 425 373 463 458 c 1
 481 454 l 1
 413 222 l 1
 393 227 l 1
 398 249 400 262 400 279 c 0
 400 296 398 305 393 310 c 0
 382 320 354 326 315 325 c 0
 303 325 272 326 237 328 c 1
 227 290 218 257 205 213 c 0
 180 125 169 78 169 67 c 0
 169 43 193 33 249 33 c 0
 324 33 392 43 429 60 c 0
 472 80 498 106 545 170 c 1
 561 162 l 1
 499 0 l 1
 -8 0 l 1
 -8 16 l 1
 48 26 56 33 73 90 c 1
 196 532 l 2
 201 550 207 585 207 596 c 0
 207 623 192 631 130 637 c 1xd0
 130 653 l 1xe0
 627 653 l 1xd0
422 704 m 1
 282 810 l 2
 269 820 263 830 263 842 c 0
 263 861 278 876 298 876 c 0
 313 876 324 869 337 853 c 2
 453 704 l 1
 422 704 l 1
EndSplineSet
Ligature: 0 0 'liga' E gravecomb
EndChar
StartChar: Ecircumflex
Encoding: 271 202 165
Width: 611
Flags: W
HStem: 0 33<231 499> 325 38<295 325> 620 33<130 441> 637 16<130 140.333>
DStem: 196 532 312 594 73 90 246 361
Fore
627 653 m 1xd0
 596 500 l 1
 575 502 l 1
 576 519 577 534 577 547 c 0
 577 607 542 620 385 620 c 0xe0
 329 620 318 616 312 594 c 2
 246 361 l 1
 281 362 313 363 325 363 c 0
 416 367 425 373 463 458 c 1
 481 454 l 1
 413 222 l 1
 393 227 l 1
 398 249 400 262 400 279 c 0
 400 296 398 305 393 310 c 0
 382 320 354 326 315 325 c 0
 303 325 272 326 237 328 c 1
 227 290 218 257 205 213 c 0
 180 125 169 78 169 67 c 0
 169 43 193 33 249 33 c 0
 324 33 392 43 429 60 c 0
 472 80 498 106 545 170 c 1
 561 162 l 1
 499 0 l 1
 -8 0 l 1
 -8 16 l 1
 48 26 56 33 73 90 c 1
 196 532 l 2
 201 550 207 585 207 596 c 0
 207 623 192 631 130 637 c 1xd0
 130 653 l 1xe0
 627 653 l 1xd0
464 873 m 1
 552 704 l 1
 516 704 l 1
 434 808 l 1
 297 704 l 1
 258 704 l 1
 415 873 l 1
 464 873 l 1
EndSplineSet
Ligature: 0 0 'liga' E uni0302
EndChar
StartChar: Ecaron
Encoding: 272 282 166
Width: 611
Flags: W
HStem: 0 33<231 499> 325 38<291 325> 620 33<130 441> 637 16<130 140.333>
DStem: 196 532 312 594 73 90 246 361
Fore
627 653 m 1xd0
 596 500 l 1
 575 502 l 1
 576 519 577 534 577 547 c 0
 577 607 542 620 385 620 c 0xe0
 329 620 318 616 312 594 c 2
 246 361 l 1
 281 362 313 363 325 363 c 0
 416 367 425 373 463 458 c 1
 481 454 l 1
 413 222 l 1
 393 227 l 1
 398 249 400 262 400 279 c 0
 400 296 398 305 393 310 c 0
 382 320 354 326 315 325 c 0
 303 325 272 326 237 328 c 1
 227 290 218 257 205 213 c 0
 180 125 169 78 169 67 c 0
 169 43 193 33 249 33 c 0
 324 33 392 43 429 60 c 0
 472 80 498 106 545 170 c 1
 561 162 l 1
 499 0 l 1
 -8 0 l 1
 -8 16 l 1
 48 26 56 33 73 90 c 1
 196 532 l 2
 201 550 207 585 207 596 c 0
 207 623 192 631 130 637 c 1xd0
 130 653 l 1xe0
 627 653 l 1xd0
598 873 m 1
 435 704 l 1
 389 704 l 1
 293 873 l 1
 330 873 l 1
 420 768 l 1
 562 873 l 1
 598 873 l 1
EndSplineSet
Ligature: 0 0 'liga' E uni030C
EndChar
StartChar: Edotaccent
Encoding: 273 278 167
Width: 611
Flags: W
HStem: 0 33<231 499> 325 38<295 325> 620 33<130 441> 637 16<130 140.333> 720 98<423 431>
VStem: 379 98<767 772>
DStem: 196 532 312 594 73 90 246 361
Fore
627 653 m 1xdc
 596 500 l 1
 575 502 l 1
 576 519 577 534 577 547 c 0
 577 607 542 620 385 620 c 0xec
 329 620 318 616 312 594 c 2
 246 361 l 1
 281 362 313 363 325 363 c 0
 416 367 425 373 463 458 c 1
 481 454 l 1
 413 222 l 1
 393 227 l 1
 398 249 400 262 400 279 c 0
 400 296 398 305 393 310 c 0
 382 320 354 326 315 325 c 0
 303 325 272 326 237 328 c 1
 227 290 218 257 205 213 c 0
 180 125 169 78 169 67 c 0
 169 43 193 33 249 33 c 0
 324 33 392 43 429 60 c 0
 472 80 498 106 545 170 c 1
 561 162 l 1
 499 0 l 1
 -8 0 l 1
 -8 16 l 1
 48 26 56 33 73 90 c 1
 196 532 l 2
 201 550 207 585 207 596 c 0
 207 623 192 631 130 637 c 1xdc
 130 653 l 1xec
 627 653 l 1xdc
429 818 m 0
 454 818 477 794 477 769 c 0
 477 742 455 720 428 720 c 0
 401 720 379 742 379 770 c 0
 379 796 401 818 429 818 c 0
EndSplineSet
Ligature: 0 0 'liga' E uni0307
EndChar
StartChar: Eogonek
Encoding: 274 280 168
Width: 611
Flags: W
HStem: -169 63<526 551> 0 33<238 459> 325 38<302 332> 620 33<137 448> 637 16<137 147.333>
VStem: 431 61<-72 -56>
DStem: 203 532 319 594 80 90 253 361
Fore
568 162 m 1xf4
 506 0 l 2
 497 -23 492 -44 492 -56 c 0
 492 -85 517 -106 551 -106 c 0
 582 -106 607 -96 634 -74 c 1
 651 -92 l 1
 616 -143 574 -169 526 -169 c 0
 473 -169 431 -126 431 -72 c 0
 431 -45 438 -27 459 0 c 1
 -1 0 l 1
 -1 16 l 1
 55 26 63 33 80 90 c 1
 203 532 l 2
 208 550 214 585 214 596 c 0
 214 623 199 631 137 637 c 1xec
 137 653 l 1xf4
 634 653 l 1xec
 603 500 l 1
 582 502 l 1
 583 519 584 534 584 547 c 0
 584 607 549 620 392 620 c 0
 336 620 325 616 319 594 c 2
 253 361 l 1
 288 362 320 363 332 363 c 0
 423 367 432 373 470 458 c 1
 488 454 l 1
 420 222 l 1
 400 227 l 1
 405 249 407 262 407 279 c 0
 407 296 405 305 400 310 c 0
 389 320 361 326 322 325 c 0
 310 325 279 326 244 328 c 1
 234 290 225 257 212 213 c 0
 187 125 176 78 176 67 c 0
 176 43 200 33 256 33 c 0
 331 33 399 43 436 60 c 0
 479 80 505 106 552 170 c 1
 568 162 l 1xf4
EndSplineSet
Ligature: 0 0 'liga' E uni0328
EndChar
StartChar: Gbreve
Encoding: 275 286 169
Width: 722
Flags: W
HStem: -18 37<338 373> 300 19<456 485> 632 34<451 471> 704 59<480 501>
VStem: 52 110<223 255>
Fore
624 862 m 1
 653 862 l 1
 644 820 635 799 615 773 c 0
 582 728 535 704 482 704 c 0
 437 704 403 719 380 748 c 0
 360 774 352 805 352 862 c 1
 381 862 l 1
 386 800 425 763 489 763 c 0
 550 763 599 799 624 862 c 1
708 662 m 1
 659 465 l 1
 641 468 l 1
 636 512 629 533 613 559 c 0
 583 605 528 632 463 632 c 0
 397 632 335 605 290 558 c 0
 211 474 162 347 162 224 c 0
 162 93 235 19 364 19 c 0
 409 19 447 31 469 53 c 0
 481 65 484 73 506 145 c 0
 528 219 534 247 534 269 c 0
 534 287 518 297 485 300 c 0
 481 300 468 302 456 303 c 1
 456 319 l 1
 722 319 l 1
 722 303 l 1
 657 299 641 287 625 231 c 1
 576 44 l 1
 499 1 427 -18 339 -18 c 0
 252 -18 179 9 128 60 c 0
 81 108 52 178 52 246 c 0
 52 466 244 666 455 666 c 0
 496 666 539 658 589 642 c 0
 611 635 623 632 633 632 c 0
 659 632 676 642 693 666 c 1
 708 662 l 1
EndSplineSet
Ligature: 0 0 'liga' G uni0306
EndChar
StartChar: Idieresis
Encoding: 276 207 170
Width: 333
Flags: W
HStem: 0 16<227.857 236> 637 16<137 145.286> 720 98<177 196 382 393>
VStem: 137 98<767 772> 337 98<767 772>
DStem: 196 532 302 563 73 90 179 120
Fore
-8 0 m 1
 -8 16 l 1
 48 26 55 32 73 90 c 1
 196 532 l 2
 203 557 207 580 207 594 c 0
 207 622 195 630 137 637 c 1
 137 653 l 1
 384 653 l 1
 384 637 l 1
 327 627 320 621 302 563 c 1
 179 120 l 2
 170 88 168 76 168 57 c 0
 168 29 179 23 236 16 c 1
 236 0 l 1
 -8 0 l 1
187 818 m 0
 212 818 235 794 235 769 c 0
 235 742 213 720 186 720 c 0
 159 720 137 742 137 770 c 0
 137 796 159 818 187 818 c 0
387 818 m 0
 412 818 435 794 435 769 c 0
 435 742 413 720 386 720 c 0
 359 720 337 742 337 770 c 0
 337 796 359 818 387 818 c 0
EndSplineSet
Ligature: 0 0 'liga' I uni0308
EndChar
StartChar: Iacute
Encoding: 277 205 171
Width: 333
Flags: W
HStem: 0 16<227.857 236> 637 16<137 145.286>
DStem: 196 532 302 563 73 90 179 120
Fore
-8 0 m 1
 -8 16 l 1
 48 26 55 32 73 90 c 1
 196 532 l 2
 203 557 207 580 207 594 c 0
 207 622 195 630 137 637 c 1
 137 653 l 1
 384 653 l 1
 384 637 l 1
 327 627 320 621 302 563 c 1
 179 120 l 2
 170 88 168 76 168 57 c 0
 168 29 179 23 236 16 c 1
 236 0 l 1
 -8 0 l 1
180 706 m 1
 342 866 l 2
 349 872 357 876 367 876 c 0
 387 876 403 860 403 840 c 0
 403 828 398 819 386 812 c 2
 215 706 l 1
 180 706 l 1
EndSplineSet
Ligature: 0 0 'liga' I acutecomb
EndChar
StartChar: Igrave
Encoding: 278 204 172
Width: 333
Flags: W
HStem: 0 16<227.857 236> 637 16<137 145.286>
DStem: 196 532 302 563 73 90 179 120
Fore
-8 0 m 1
 -8 16 l 1
 48 26 55 32 73 90 c 1
 196 532 l 2
 203 557 207 580 207 594 c 0
 207 622 195 630 137 637 c 1
 137 653 l 1
 384 653 l 1
 384 637 l 1
 327 627 320 621 302 563 c 1
 179 120 l 2
 170 88 168 76 168 57 c 0
 168 29 179 23 236 16 c 1
 236 0 l 1
 -8 0 l 1
321 704 m 1
 181 810 l 2
 168 820 162 830 162 842 c 0
 162 861 177 876 197 876 c 0
 212 876 223 869 236 853 c 2
 352 704 l 1
 321 704 l 1
EndSplineSet
Ligature: 0 0 'liga' I gravecomb
EndChar
StartChar: Icircumflex
Encoding: 279 206 173
Width: 333
Flags: W
HStem: 0 16<227.857 236> 637 16<137 145.286>
DStem: 196 532 302 563 73 90 179 120
Fore
-8 0 m 1
 -8 16 l 1
 48 26 55 32 73 90 c 1
 196 532 l 2
 203 557 207 580 207 594 c 0
 207 622 195 630 137 637 c 1
 137 653 l 1
 384 653 l 1
 384 637 l 1
 327 627 320 621 302 563 c 1
 179 120 l 2
 170 88 168 76 168 57 c 0
 168 29 179 23 236 16 c 1
 236 0 l 1
 -8 0 l 1
337 873 m 1
 425 704 l 1
 389 704 l 1
 307 808 l 1
 170 704 l 1
 131 704 l 1
 288 873 l 1
 337 873 l 1
EndSplineSet
Ligature: 0 0 'liga' I uni0302
EndChar
StartChar: Idotaccent
Encoding: 280 304 174
Width: 333
Flags: W
HStem: 0 16<227.857 236> 637 16<137 145.286> 720 98<294 304>
VStem: 247 98<767 772>
DStem: 196 532 302 563 73 90 179 120
Fore
-8 0 m 1
 -8 16 l 1
 48 26 55 32 73 90 c 1
 196 532 l 2
 203 557 207 580 207 594 c 0
 207 622 195 630 137 637 c 1
 137 653 l 1
 384 653 l 1
 384 637 l 1
 327 627 320 621 302 563 c 1
 179 120 l 2
 170 88 168 76 168 57 c 0
 168 29 179 23 236 16 c 1
 236 0 l 1
 -8 0 l 1
297 818 m 0
 322 818 345 794 345 769 c 0
 345 742 323 720 296 720 c 0
 269 720 247 742 247 770 c 0
 247 796 269 818 297 818 c 0
EndSplineSet
Ligature: 0 0 'liga' I uni0307
EndChar
StartChar: Lacute
Encoding: 281 313 175
Width: 556
Flags: W
HStem: 0 36<231 501> 637 16<130 140.333 388 403>
DStem: 196 532 302 563 73 90 179 120
Fore
292 706 m 1
 454 866 l 2
 461 872 469 876 479 876 c 0
 499 876 515 860 515 840 c 0
 515 828 510 819 498 812 c 2
 327 706 l 1
 292 706 l 1
403 653 m 1
 403 637 l 1
 343 633 317 614 302 563 c 1
 179 120 l 2
 174 101 169 77 169 70 c 0
 169 44 194 36 270 36 c 0
 357 36 398 42 433 59 c 0
 477 81 504 113 539 185 c 1
 559 179 l 1
 501 0 l 1
 -8 0 l 1
 -8 16 l 1
 48 26 55 32 73 90 c 1
 196 532 l 2
 203 557 207 580 207 594 c 0
 207 623 192 631 130 637 c 1
 130 653 l 1
 403 653 l 1
EndSplineSet
Ligature: 0 0 'liga' L acutecomb
EndChar
StartChar: Lcaron
Encoding: 282 317 176
Width: 556
Flags: W
HStem: 0 36<231 501> 637 16<130 140.333 388 403>
VStem: 487 109<594 618>
DStem: 196 532 302 563 73 90 179 120
Fore
403 653 m 1
 403 637 l 1
 343 633 317 614 302 563 c 1
 179 120 l 2
 174 101 169 77 169 70 c 0
 169 44 194 36 270 36 c 0
 357 36 398 42 433 59 c 0
 477 81 504 113 539 185 c 1
 559 179 l 1
 501 0 l 1
 -8 0 l 1
 -8 16 l 1
 48 26 55 32 73 90 c 1
 196 532 l 2
 203 557 207 580 207 594 c 0
 207 623 192 631 130 637 c 1
 130 653 l 1
 403 653 l 1
466 435 m 1
 457 452 l 1
 509 487 532 514 532 541 c 0
 532 551 527 559 512 573 c 0
 493 590 487 601 487 618 c 0
 487 645 509 665 538 665 c 0
 571 665 596 634 596 594 c 0
 596 538 550 482 466 435 c 1
EndSplineSet
Ligature: 0 0 'liga' L uni030C
EndChar
StartChar: Nacute
Encoding: 283 323 177
Width: 667
Flags: W
HStem: 0 16<-18 -10.875 167.25 180> 637 16<118 129.75 530 541.4>
DStem: 204 581 233 535 85 164 119 113 233 535 279 653 463 -15 487 154 589 534 625 488 487 154 481 -15
Fore
729 653 m 1
 729 637 l 1
 666 623 662 617 625 488 c 2
 481 -15 l 1
 463 -15 l 1
 233 535 l 1
 119 113 l 1
 113 92 110 72 110 59 c 0
 110 31 129 20 180 16 c 1
 180 0 l 1
 -18 0 l 1
 -18 16 l 1
 39 24 47 36 85 164 c 1
 204 581 l 1
 186 620 165 633 118 637 c 1
 118 653 l 1
 279 653 l 1
 487 154 l 1
 589 534 l 1
 589 535 590 539 591 542 c 0
 598 562 600 574 600 586 c 0
 600 622 587 632 530 637 c 1
 530 653 l 1
 729 653 l 1
389 706 m 1
 551 866 l 2
 558 872 566 876 576 876 c 0
 596 876 612 860 612 840 c 0
 612 828 607 819 595 812 c 2
 424 706 l 1
 389 706 l 1
EndSplineSet
Ligature: 0 0 'liga' N acutecomb
EndChar
StartChar: Ncaron
Encoding: 284 327 178
Width: 667
Flags: W
HStem: 0 16<-18 -10.875 167.25 180> 637 16<118 129.75 530 541.4>
DStem: 204 581 233 535 85 164 119 113 233 535 279 653 463 -15 487 154 589 534 625 488 487 154 481 -15
Fore
729 653 m 1
 729 637 l 1
 666 623 662 617 625 488 c 2
 481 -15 l 1
 463 -15 l 1
 233 535 l 1
 119 113 l 1
 113 92 110 72 110 59 c 0
 110 31 129 20 180 16 c 1
 180 0 l 1
 -18 0 l 1
 -18 16 l 1
 39 24 47 36 85 164 c 1
 204 581 l 1
 186 620 165 633 118 637 c 1
 118 653 l 1
 279 653 l 1
 487 154 l 1
 589 534 l 1
 589 535 590 539 591 542 c 0
 598 562 600 574 600 586 c 0
 600 622 587 632 530 637 c 1
 530 653 l 1
 729 653 l 1
635 873 m 1
 472 704 l 1
 426 704 l 1
 330 873 l 1
 367 873 l 1
 457 768 l 1
 599 873 l 1
 635 873 l 1
EndSplineSet
Ligature: 0 0 'liga' N uni030C
EndChar
StartChar: Ntilde
Encoding: 285 209 179
Width: 667
Flags: W
HStem: 0 16<-18 -10.875 167.25 180> 637 16<118 129.75 530 541.4> 732 60<522 538> 776 59<370 390>
DStem: 204 581 233 535 85 164 119 113 233 535 279 653 463 -15 487 154 589 534 625 488 487 154 481 -15
Fore
729 653 m 1xc0
 729 637 l 1
 666 623 662 617 625 488 c 2
 481 -15 l 1
 463 -15 l 1
 233 535 l 1
 119 113 l 1
 113 92 110 72 110 59 c 0
 110 31 129 20 180 16 c 1
 180 0 l 1
 -18 0 l 1
 -18 16 l 1
 39 24 47 36 85 164 c 1
 204 581 l 1
 186 620 165 633 118 637 c 1
 118 653 l 1
 279 653 l 1
 487 154 l 1
 589 534 l 1
 589 535 590 539 591 542 c 0
 598 562 600 574 600 586 c 0
 600 622 587 632 530 637 c 1
 530 653 l 1
 729 653 l 1xc0
589 836 m 1
 617 836 l 1
 603 769 570 732 522 732 c 0xe0
 510 732 491 737 465 747 c 0
 411 769 387 776 370 776 c 0
 345 776 329 761 319 729 c 1
 290 729 l 1
 310 806 338 835 390 835 c 0xd0
 412 835 438 828 476 811 c 0
 506 797 523 792 538 792 c 0xe0
 565 792 578 803 589 836 c 1
EndSplineSet
Ligature: 0 0 'liga' N tildecomb
EndChar
StartChar: Odieresis
Encoding: 286 214 180
Width: 722
Flags: W
HStem: -18 33<276 301> 633 33<459 482> 720 98<363 381 571 576>
VStem: 60 105<184 221> 324 98<765 772> 524 98<765 772>
Fore
374 818 m 0
 399 818 422 794 422 769 c 0
 422 742 400 720 373 720 c 0
 346 720 324 742 324 770 c 0
 324 796 346 818 374 818 c 0
574 818 m 0
 599 818 622 794 622 769 c 0
 622 742 600 720 573 720 c 0
 546 720 524 742 524 770 c 0
 524 796 546 818 574 818 c 0
474 666 m 0
 608 666 706 559 699 418 c 0
 688 192 486 -18 278 -18 c 0
 151 -18 60 81 60 221 c 0
 60 338 119 460 220 553 c 0
 300 626 390 666 474 666 c 0
465 633 m 0
 392 633 331 595 275 514 c 0
 215 427 165 278 165 184 c 0
 165 76 211 15 295 15 c 0
 365 15 427 54 482 133 c 0
 547 227 594 373 594 481 c 0
 594 575 544 633 465 633 c 0
EndSplineSet
KernsSLIF: 65 -38 0 0 84 -3 0 0 86 -45 0 0 87 -39 0 0 88 -41 0 0 89 -51 0 0
Ligature: 0 0 'liga' O uni0308
EndChar
StartChar: Oacute
Encoding: 287 211 181
Width: 722
Flags: W
HStem: -18 33<276 301> 633 33<459 482>
VStem: 60 105<184 221>
Fore
389 706 m 1
 551 866 l 2
 558 872 566 876 576 876 c 0
 596 876 612 860 612 840 c 0
 612 828 607 819 595 812 c 2
 424 706 l 1
 389 706 l 1
474 666 m 0
 608 666 706 559 699 418 c 0
 688 192 486 -18 278 -18 c 0
 151 -18 60 81 60 221 c 0
 60 338 119 460 220 553 c 0
 300 626 390 666 474 666 c 0
465 633 m 0
 392 633 331 595 275 514 c 0
 215 427 165 278 165 184 c 0
 165 76 211 15 295 15 c 0
 365 15 427 54 482 133 c 0
 547 227 594 373 594 481 c 0
 594 575 544 633 465 633 c 0
EndSplineSet
KernsSLIF: 65 -38 0 0 84 -3 0 0 86 -45 0 0 87 -39 0 0 89 -51 0 0
Ligature: 0 0 'liga' O acutecomb
EndChar
StartChar: Ograve
Encoding: 288 210 182
Width: 722
Flags: W
HStem: -18 33<276 301> 633 33<459 482>
VStem: 60 105<184 221>
Fore
504 704 m 1
 364 810 l 2
 351 820 345 830 345 842 c 0
 345 861 360 876 380 876 c 0
 395 876 406 869 419 853 c 2
 535 704 l 1
 504 704 l 1
474 666 m 0
 608 666 706 559 699 418 c 0
 688 192 486 -18 278 -18 c 0
 151 -18 60 81 60 221 c 0
 60 338 119 460 220 553 c 0
 300 626 390 666 474 666 c 0
465 633 m 0
 392 633 331 595 275 514 c 0
 215 427 165 278 165 184 c 0
 165 76 211 15 295 15 c 0
 365 15 427 54 482 133 c 0
 547 227 594 373 594 481 c 0
 594 575 544 633 465 633 c 0
EndSplineSet
KernsSLIF: 84 -3 0 0 86 -45 0 0 89 -51 0 0
Ligature: 0 0 'liga' O gravecomb
EndChar
StartChar: Ocircumflex
Encoding: 289 212 183
Width: 722
Flags: W
HStem: -18 33<276 301> 633 33<459 482>
VStem: 60 105<184 221>
Fore
518 873 m 1
 606 704 l 1
 570 704 l 1
 488 808 l 1
 351 704 l 1
 312 704 l 1
 469 873 l 1
 518 873 l 1
474 666 m 0
 608 666 706 559 699 418 c 0
 688 192 486 -18 278 -18 c 0
 151 -18 60 81 60 221 c 0
 60 338 119 460 220 553 c 0
 300 626 390 666 474 666 c 0
465 633 m 0
 392 633 331 595 275 514 c 0
 215 427 165 278 165 184 c 0
 165 76 211 15 295 15 c 0
 365 15 427 54 482 133 c 0
 547 227 594 373 594 481 c 0
 594 575 544 633 465 633 c 0
EndSplineSet
KernsSLIF: 84 -3 0 0 86 -45 0 0 89 -51 0 0
Ligature: 0 0 'liga' O uni0302
EndChar
StartChar: Otilde
Encoding: 290 213 184
Width: 722
Flags: W
HStem: -18 33<276 301> 633 33<459 482> 732 60<537 553> 776 59<385 405>
VStem: 60 105<184 221>
Fore
604 836 m 1xe8
 632 836 l 1
 618 769 585 732 537 732 c 0xe8
 525 732 506 737 480 747 c 0
 426 769 402 776 385 776 c 0
 360 776 344 761 334 729 c 1
 305 729 l 1
 325 806 353 835 405 835 c 0xd8
 427 835 453 828 491 811 c 0
 521 797 538 792 553 792 c 0
 580 792 593 803 604 836 c 1xe8
474 666 m 0
 608 666 706 559 699 418 c 0
 688 192 486 -18 278 -18 c 0
 151 -18 60 81 60 221 c 0
 60 338 119 460 220 553 c 0
 300 626 390 666 474 666 c 0
465 633 m 0
 392 633 331 595 275 514 c 0
 215 427 165 278 165 184 c 0
 165 76 211 15 295 15 c 0
 365 15 427 54 482 133 c 0
 547 227 594 373 594 481 c 0
 594 575 544 633 465 633 c 0
EndSplineSet
KernsSLIF: 84 -3 0 0 86 -45 0 0 89 -51 0 0
Ligature: 0 0 'liga' O tildecomb
EndChar
StartChar: Ohungarumlaut
Encoding: 291 336 185
Width: 722
Flags: W
HStem: -18 33<276 301> 633 33<450 482>
VStem: 60 105<184 221>
Fore
288 706 m 1
 450 866 l 2
 457 872 465 876 475 876 c 0
 495 876 511 860 511 840 c 0
 511 828 506 819 494 812 c 2
 323 706 l 1
 288 706 l 1
458 706 m 1
 620 866 l 2
 627 872 635 876 645 876 c 0
 665 876 681 860 681 840 c 0
 681 828 676 819 664 812 c 2
 493 706 l 1
 458 706 l 1
474 666 m 0
 608 666 706 559 699 418 c 0
 688 192 486 -18 278 -18 c 0
 151 -18 60 81 60 221 c 0
 60 338 119 460 220 553 c 0
 300 626 390 666 474 666 c 0
465 633 m 0
 392 633 331 595 275 514 c 0
 215 427 165 278 165 184 c 0
 165 76 211 15 295 15 c 0
 365 15 427 54 482 133 c 0
 547 227 594 373 594 481 c 0
 594 575 544 633 465 633 c 0
EndSplineSet
Ligature: 0 0 'liga' O uni030B
EndChar
StartChar: Racute
Encoding: 292 340 186
Width: 611
Flags: W
HStem: 0 16<228.375 236 557.333 572> 623 30<137 387>
VStem: 488 105<495 513>
DStem: 196 532 313 595 73 90 248 366 196 532 236 329 73 90 180 120 301 324 396 333 424 0 489 88
Fore
572 16 m 1
 572 0 l 1
 424 0 l 1
 301 324 l 1
 236 329 l 1
 180 120 l 1
 171 85 168 72 168 62 c 0
 168 29 175 24 236 16 c 1
 236 0 l 1
 -8 0 l 1
 -8 16 l 1
 48 25 55 31 73 90 c 1
 196 532 l 1
 203 559 208 583 208 595 c 0
 208 606 202 618 194 623 c 0
 184 630 179 631 137 637 c 1
 137 653 l 1
 385 653 l 2
 519 653 593 602 593 509 c 0
 593 464 575 425 542 396 c 0
 506 364 473 350 396 333 c 1
 489 88 l 1
 508 36 528 19 572 16 c 1
313 595 m 2
 248 366 l 1
 272 362 283 361 299 361 c 0
 424 361 488 412 488 511 c 0
 488 585 447 623 364 623 c 0
 332 623 319 616 313 595 c 2
324 706 m 1
 486 866 l 2
 493 872 501 876 511 876 c 0
 531 876 547 860 547 840 c 0
 547 828 542 819 530 812 c 2
 359 706 l 1
 324 706 l 1
EndSplineSet
Ligature: 0 0 'liga' R acutecomb
EndChar
StartChar: Rcaron
Encoding: 293 344 187
Width: 611
Flags: W
HStem: 0 16<228.375 236 557.333 572> 623 30<137 387>
VStem: 488 105<495 513>
DStem: 196 532 313 595 73 90 248 366 196 532 236 329 73 90 180 120 301 324 396 333 424 0 489 88
Fore
572 16 m 1
 572 0 l 1
 424 0 l 1
 301 324 l 1
 236 329 l 1
 180 120 l 1
 171 85 168 72 168 62 c 0
 168 29 175 24 236 16 c 1
 236 0 l 1
 -8 0 l 1
 -8 16 l 1
 48 25 55 31 73 90 c 1
 196 532 l 1
 203 559 208 583 208 595 c 0
 208 606 202 618 194 623 c 0
 184 630 179 631 137 637 c 1
 137 653 l 1
 385 653 l 2
 519 653 593 602 593 509 c 0
 593 464 575 425 542 396 c 0
 506 364 473 350 396 333 c 1
 489 88 l 1
 508 36 528 19 572 16 c 1
313 595 m 2
 248 366 l 1
 272 362 283 361 299 361 c 0
 424 361 488 412 488 511 c 0
 488 585 447 623 364 623 c 0
 332 623 319 616 313 595 c 2
570 873 m 1
 407 704 l 1
 361 704 l 1
 265 873 l 1
 302 873 l 1
 392 768 l 1
 534 873 l 1
 570 873 l 1
EndSplineSet
Ligature: 0 0 'liga' R uni030C
EndChar
StartChar: Sacute
Encoding: 294 346 188
Width: 500
Flags: W
HStem: -18 35<208 231> 633 33<309 331>
VStem: 131 88<499 531> 344 87<150 182>
Fore
264 706 m 1
 426 866 l 2
 433 872 441 876 451 876 c 0
 471 876 487 860 487 840 c 0
 487 828 482 819 470 812 c 2
 299 706 l 1
 264 706 l 1
468 468 m 1
 450 471 l 1
 448 537 440 571 418 596 c 0
 397 620 366 633 329 633 c 0
 261 633 219 594 219 531 c 0
 219 482 228 468 318 377 c 0
 408 286 431 247 431 182 c 0
 431 69 344 -18 229 -18 c 0
 198 -18 171 -12 125 5 c 0
 99 14 84 18 73 18 c 0
 53 18 42 8 35 -15 c 1
 17 -15 l 1
 51 208 l 1
 71 206 l 1
 70 199 69 191 69 183 c 0
 69 88 132 17 215 17 c 0
 288 17 344 75 344 150 c 0
 344 193 331 219 284 268 c 0
 277 276 263 291 245 310 c 0
 228 329 215 343 206 352 c 0
 146 416 131 445 131 499 c 0
 131 597 205 666 309 666 c 0
 340 666 372 661 394 652 c 0
 417 644 428 641 440 641 c 0
 462 641 471 646 485 667 c 1
 508 667 l 1
 468 468 l 1
EndSplineSet
Ligature: 0 0 'liga' S acutecomb
EndChar
StartChar: Scaron
Encoding: 295 352 189
Width: 500
Flags: W
HStem: -18 35<208 231> 633 33<309 331>
VStem: 131 88<499 531> 344 87<150 182>
Fore
520 873 m 1
 357 704 l 1
 311 704 l 1
 215 873 l 1
 252 873 l 1
 342 768 l 1
 484 873 l 1
 520 873 l 1
468 468 m 1
 450 471 l 1
 448 537 440 571 418 596 c 0
 397 620 366 633 329 633 c 0
 261 633 219 594 219 531 c 0
 219 482 228 468 318 377 c 0
 408 286 431 247 431 182 c 0
 431 69 344 -18 229 -18 c 0
 198 -18 171 -12 125 5 c 0
 99 14 84 18 73 18 c 0
 53 18 42 8 35 -15 c 1
 17 -15 l 1
 51 208 l 1
 71 206 l 1
 70 199 69 191 69 183 c 0
 69 88 132 17 215 17 c 0
 288 17 344 75 344 150 c 0
 344 193 331 219 284 268 c 0
 277 276 263 291 245 310 c 0
 228 329 215 343 206 352 c 0
 146 416 131 445 131 499 c 0
 131 597 205 666 309 666 c 0
 340 666 372 661 394 652 c 0
 417 644 428 641 440 641 c 0
 462 641 471 646 485 667 c 1
 508 667 l 1
 468 468 l 1
EndSplineSet
Ligature: 0 0 'liga' S uni030C
EndChar
StartChar: Scedilla
Encoding: 296 350 190
Width: 500
Flags: W
HStem: -217 35<126 149> -97 34<146 184> -18 35<213 231> 633 33<309 331>
VStem: 131 88<499 531> 192 74<-143 -131> 344 87<150 182>
DStem: 160 -7 193 -15 105 -96 159 -66
Fore
193 -15 m 1xfa
 159 -66 l 1
 169 -64 175 -63 184 -63 c 0
 234 -63 266 -90 266 -131 c 0
 266 -181 216 -217 147 -217 c 0
 118 -217 96 -212 54 -196 c 1
 71 -167 l 1
 100 -178 118 -182 139 -182 c 0
 173 -182 192 -167 192 -141 c 0xf6
 192 -115 172 -97 146 -97 c 0
 135 -97 127 -99 114 -104 c 1
 105 -96 l 1
 160 -7 l 1
 148 -3 141 -1 125 5 c 0
 99 14 84 18 73 18 c 0
 53 18 42 8 35 -15 c 1
 17 -15 l 1
 51 208 l 1
 71 206 l 1
 70 199 69 191 69 183 c 0
 69 88 132 17 215 17 c 0
 288 17 344 75 344 150 c 0
 344 193 331 219 284 268 c 0
 277 276 263 291 245 310 c 0
 228 329 215 343 206 352 c 0
 146 416 131 445 131 499 c 0
 131 597 205 666 309 666 c 0
 340 666 372 661 394 652 c 0
 417 644 428 641 440 641 c 0
 462 641 471 646 485 667 c 1
 508 667 l 1
 468 468 l 1
 450 471 l 1
 448 537 440 571 418 596 c 0
 397 620 366 633 329 633 c 0
 261 633 219 594 219 531 c 0
 219 482 228 468 318 377 c 0
 408 286 431 247 431 182 c 0
 431 68 344 -18 229 -18 c 0
 218 -18 210 -17 193 -15 c 1xfa
EndSplineSet
Ligature: 0 0 'liga' S uni0327
EndChar
StartChar: Tcaron
Encoding: 297 356 191
Width: 556
Flags: W
HStem: 0 16<65 78.2 338 355> 618 35<101 315 101 492>
DStem: 315 618 416 618 171 90 277 120
Fore
568 873 m 1
 405 704 l 1
 359 704 l 1
 263 873 l 1
 300 873 l 1
 390 768 l 1
 532 873 l 1
 568 873 l 1
633 653 m 1
 589 490 l 1
 572 492 l 1
 574 509 575 524 575 537 c 0
 575 593 543 618 471 618 c 2
 416 618 l 1
 277 120 l 1
 268 86 265 74 265 61 c 0
 265 31 277 22 317 19 c 0
 323 19 338 17 355 16 c 1
 355 0 l 1
 65 0 l 1
 65 16 l 1
 131 21 155 37 171 90 c 1
 315 618 l 1
 162 620 130 603 77 495 c 1
 59 499 l 1
 101 653 l 1
 633 653 l 1
EndSplineSet
Ligature: 0 0 'liga' T uni030C
EndChar
StartChar: Udieresis
Encoding: 298 220 192
Width: 722
Flags: W
HStem: -18 41<318 347> 637 16<127 138.167 390.286 400 566 576.667> 720 98<389 402 591 599>
VStem: 102 90<139 149> 344 98<765 772> 544 98<765 772>
Fore
394 818 m 0
 419 818 442 794 442 769 c 0
 442 742 420 720 393 720 c 0
 366 720 344 742 344 770 c 0
 344 796 366 818 394 818 c 0
594 818 m 0
 619 818 642 794 642 769 c 0
 642 742 620 720 593 720 c 0
 566 720 544 742 544 770 c 0
 544 796 566 818 594 818 c 0
765 653 m 1
 765 637 l 1
 703 623 699 618 661 488 c 2
 578 203 l 2
 534 53 451 -18 320 -18 c 0
 194 -18 102 51 102 147 c 0
 102 187 115 251 145 359 c 2
 198 551 l 1
 202 568 205 584 205 596 c 0
 205 625 194 631 127 637 c 1
 127 653 l 1
 400 653 l 1
 400 637 l 1
 332 630 316 616 295 546 c 0
 294 541 292 534 290 527 c 0
 223 296 192 175 192 141 c 0
 192 71 249 23 332 23 c 0
 402 23 456 54 495 116 c 0
 517 150 532 190 550 255 c 0
 555 274 559 291 563 304 c 0
 611 473 637 575 637 591 c 0
 637 604 630 618 620 624 c 0
 608 632 598 634 566 637 c 1
 566 653 l 1
 765 653 l 1
EndSplineSet
KernsSLIF: 65 -50 0 0 98 1 0 0 44 -35 0 0 109 -28 0 0 110 -29 0 0 112 -32 0 0 46 -39 0 0 114 -41 0 0
Ligature: 0 0 'liga' U uni0308
EndChar
StartChar: Uacute
Encoding: 299 218 193
Width: 722
Flags: W
HStem: -18 41<318 343> 637 16<127 138.167 390.286 400 566 576.667>
VStem: 102 90<139 149>
Fore
408 706 m 1
 570 866 l 2
 577 872 585 876 595 876 c 0
 615 876 631 860 631 840 c 0
 631 828 626 819 614 812 c 2
 443 706 l 1
 408 706 l 1
765 653 m 1
 765 637 l 1
 703 623 699 618 661 488 c 2
 578 203 l 2
 534 53 451 -18 320 -18 c 0
 194 -18 102 51 102 147 c 0
 102 187 115 251 145 359 c 2
 198 551 l 1
 202 568 205 584 205 596 c 0
 205 625 194 631 127 637 c 1
 127 653 l 1
 400 653 l 1
 400 637 l 1
 332 630 316 616 295 546 c 0
 294 541 292 534 290 527 c 0
 223 296 192 175 192 141 c 0
 192 71 249 23 332 23 c 0
 402 23 456 54 495 116 c 0
 517 150 532 190 550 255 c 0
 555 274 559 291 563 304 c 0
 611 473 637 575 637 591 c 0
 637 604 630 618 620 624 c 0
 608 632 598 634 566 637 c 1
 566 653 l 1
 765 653 l 1
EndSplineSet
KernsSLIF: 65 -50 0 0 44 -35 0 0 109 -28 0 0 110 -29 0 0 112 -32 0 0 46 -39 0 0 114 -41 0 0
Ligature: 0 0 'liga' U acutecomb
EndChar
StartChar: Ugrave
Encoding: 300 217 194
Width: 722
Flags: W
HStem: -18 41<318 343> 637 16<127 138.167 390.286 400 566 576.667>
VStem: 102 90<139 149>
Fore
511 704 m 1
 371 810 l 2
 358 820 352 830 352 842 c 0
 352 861 367 876 387 876 c 0
 402 876 413 869 426 853 c 2
 542 704 l 1
 511 704 l 1
765 653 m 1
 765 637 l 1
 703 623 699 618 661 488 c 2
 578 203 l 2
 534 53 451 -18 320 -18 c 0
 194 -18 102 51 102 147 c 0
 102 187 115 251 145 359 c 2
 198 551 l 1
 202 568 205 584 205 596 c 0
 205 625 194 631 127 637 c 1
 127 653 l 1
 400 653 l 1
 400 637 l 1
 332 630 316 616 295 546 c 0
 294 541 292 534 290 527 c 0
 223 296 192 175 192 141 c 0
 192 71 249 23 332 23 c 0
 402 23 456 54 495 116 c 0
 517 150 532 190 550 255 c 0
 555 274 559 291 563 304 c 0
 611 473 637 575 637 591 c 0
 637 604 630 618 620 624 c 0
 608 632 598 634 566 637 c 1
 566 653 l 1
 765 653 l 1
EndSplineSet
KernsSLIF: 65 -50 0 0
Ligature: 0 0 'liga' U gravecomb
EndChar
StartChar: Ucircumflex
Encoding: 301 219 195
Width: 722
Flags: W
HStem: -18 41<318 343> 637 16<127 138.167 390.286 400 566 576.667>
VStem: 102 90<139 149>
Fore
528 873 m 1
 616 704 l 1
 580 704 l 1
 498 808 l 1
 361 704 l 1
 322 704 l 1
 479 873 l 1
 528 873 l 1
765 653 m 1
 765 637 l 1
 703 623 699 618 661 488 c 2
 578 203 l 2
 534 53 451 -18 320 -18 c 0
 194 -18 102 51 102 147 c 0
 102 187 115 251 145 359 c 2
 198 551 l 1
 202 568 205 584 205 596 c 0
 205 625 194 631 127 637 c 1
 127 653 l 1
 400 653 l 1
 400 637 l 1
 332 630 316 616 295 546 c 0
 294 541 292 534 290 527 c 0
 223 296 192 175 192 141 c 0
 192 71 249 23 332 23 c 0
 402 23 456 54 495 116 c 0
 517 150 532 190 550 255 c 0
 555 274 559 291 563 304 c 0
 611 473 637 575 637 591 c 0
 637 604 630 618 620 624 c 0
 608 632 598 634 566 637 c 1
 566 653 l 1
 765 653 l 1
EndSplineSet
KernsSLIF: 65 -50 0 0
Ligature: 0 0 'liga' U uni0302
EndChar
StartChar: Uring
Encoding: 302 366 196
Width: 722
Flags: W
HStem: -18 41<318 343> 637 16<127 138.167 390.286 400 566 576.667> 720 34<485 497> 885 34<488 497>
VStem: 102 90<139 149> 389 34<820 831> 555 34<819 831>
Fore
488 919 m 0
 543 919 589 874 589 819 c 0
 589 765 544 720 489 720 c 0
 433 720 389 764 389 820 c 0
 389 874 434 919 488 919 c 0
488 885 m 0
 453 885 423 855 423 820 c 0
 423 783 452 754 488 754 c 0
 526 754 555 782 555 819 c 0
 555 855 525 885 488 885 c 0
765 653 m 1
 765 637 l 1
 703 623 699 618 661 488 c 2
 578 203 l 2
 534 53 451 -18 320 -18 c 0
 194 -18 102 51 102 147 c 0
 102 187 115 251 145 359 c 2
 198 551 l 1
 202 568 205 584 205 596 c 0
 205 625 194 631 127 637 c 1
 127 653 l 1
 400 653 l 1
 400 637 l 1
 332 630 316 616 295 546 c 0
 294 541 292 534 290 527 c 0
 223 296 192 175 192 141 c 0
 192 71 249 23 332 23 c 0
 402 23 456 54 495 116 c 0
 517 150 532 190 550 255 c 0
 555 274 559 291 563 304 c 0
 611 473 637 575 637 591 c 0
 637 604 630 618 620 624 c 0
 608 632 598 634 566 637 c 1
 566 653 l 1
 765 653 l 1
EndSplineSet
Ligature: 0 0 'liga' U uni030A
EndChar
StartChar: Uhungarumlaut
Encoding: 303 368 197
Width: 722
Flags: W
HStem: -18 41<318 343> 637 16<127 138.167 390.286 400 566 576.667>
VStem: 102 90<139 149>
Fore
328 706 m 1
 490 866 l 2
 497 872 505 876 515 876 c 0
 535 876 551 860 551 840 c 0
 551 828 546 819 534 812 c 2
 363 706 l 1
 328 706 l 1
498 706 m 1
 660 866 l 2
 667 872 675 876 685 876 c 0
 705 876 721 860 721 840 c 0
 721 828 716 819 704 812 c 2
 533 706 l 1
 498 706 l 1
765 653 m 1
 765 637 l 1
 703 623 699 618 661 488 c 2
 578 203 l 2
 534 53 451 -18 320 -18 c 0
 194 -18 102 51 102 147 c 0
 102 187 115 251 145 359 c 2
 198 551 l 1
 202 568 205 584 205 596 c 0
 205 625 194 631 127 637 c 1
 127 653 l 1
 400 653 l 1
 400 637 l 1
 332 630 316 616 295 546 c 0
 294 541 292 534 290 527 c 0
 223 296 192 175 192 141 c 0
 192 71 249 23 332 23 c 0
 402 23 456 54 495 116 c 0
 517 150 532 190 550 255 c 0
 555 274 559 291 563 304 c 0
 611 473 637 575 637 591 c 0
 637 604 630 618 620 624 c 0
 608 632 598 634 566 637 c 1
 566 653 l 1
 765 653 l 1
EndSplineSet
Ligature: 0 0 'liga' U uni030B
EndChar
StartChar: Yacute
Encoding: 304 221 198
Width: 556
Flags: W
HStem: 0 16<78 94.5 351 367> 637 16<320 330 444 456>
DStem: 244 302 344 306 183 90 315 205 363 393 563 576 325 347 344 306
Fore
313 706 m 1
 475 866 l 2
 482 872 490 876 500 876 c 0
 520 876 536 860 536 840 c 0
 536 828 531 819 519 812 c 2
 348 706 l 1
 313 706 l 1
91 637 m 1
 91 653 l 1
 330 653 l 1
 330 637 l 1
 270 631 258 625 258 601 c 0
 258 586 269 543 294 457 c 0
 310 404 313 391 325 347 c 1
 363 393 l 1
 467 514 513 579 513 606 c 0
 513 623 500 631 471 634 c 0
 467 635 456 636 444 637 c 1
 444 653 l 1
 633 653 l 1
 633 637 l 1
 603 623 595 616 563 576 c 2
 344 306 l 1
 315 205 l 2
 314 201 312 194 309 185 c 0
 285 107 278 77 278 56 c 0
 278 31 292 21 331 19 c 0
 337 18 351 17 367 16 c 1
 367 0 l 1
 78 0 l 1
 78 16 l 1
 144 20 166 36 183 90 c 1
 244 302 l 1
 167 571 l 1
 150 626 147 629 91 637 c 1
EndSplineSet
Ligature: 0 0 'liga' Y acutecomb
EndChar
StartChar: Zacute
Encoding: 305 377 199
Width: 556
Flags: W
HStem: 0 36<123 499> 617 36<120 473>
DStem: 473 617 606 639 -6 14 123 36
Fore
292 706 m 1
 454 866 l 2
 461 872 469 876 479 876 c 0
 499 876 515 860 515 840 c 0
 515 828 510 819 498 812 c 2
 327 706 l 1
 292 706 l 1
606 653 m 1
 606 639 l 1
 123 36 l 1
 284 36 l 2
 366 36 416 44 450 64 c 0
 484 83 502 107 534 171 c 1
 553 168 l 1
 499 0 l 1
 -6 0 l 1
 -6 14 l 1
 473 617 l 1
 302 617 l 2
 227 617 174 604 145 580 c 0
 126 563 114 546 93 502 c 1
 74 507 l 1
 120 653 l 1
 606 653 l 1
EndSplineSet
Ligature: 0 0 'liga' Z acutecomb
EndChar
StartChar: Zcaron
Encoding: 306 381 200
Width: 556
Flags: W
HStem: 0 36<123 499> 617 36<120 473>
DStem: 473 617 606 639 -6 14 123 36
Fore
547 873 m 1
 384 704 l 1
 338 704 l 1
 242 873 l 1
 279 873 l 1
 369 768 l 1
 511 873 l 1
 547 873 l 1
606 653 m 1
 606 639 l 1
 123 36 l 1
 284 36 l 2
 366 36 416 44 450 64 c 0
 484 83 502 107 534 171 c 1
 553 168 l 1
 499 0 l 1
 -6 0 l 1
 -6 14 l 1
 473 617 l 1
 302 617 l 2
 227 617 174 604 145 580 c 0
 126 563 114 546 93 502 c 1
 74 507 l 1
 120 653 l 1
 606 653 l 1
EndSplineSet
Ligature: 0 0 'liga' Z uni030C
EndChar
StartChar: Zdotaccent
Encoding: 307 379 201
Width: 556
Flags: W
HStem: 0 36<123 499> 617 36<120 473> 720 98<361 370>
VStem: 318 98<767 772>
DStem: 473 617 606 639 -6 14 123 36
Fore
368 818 m 0
 393 818 416 794 416 769 c 0
 416 742 394 720 367 720 c 0
 340 720 318 742 318 770 c 0
 318 796 340 818 368 818 c 0
606 653 m 1
 606 639 l 1
 123 36 l 1
 284 36 l 2
 366 36 416 44 450 64 c 0
 484 83 502 107 534 171 c 1
 553 168 l 1
 499 0 l 1
 -6 0 l 1
 -6 14 l 1
 473 617 l 1
 302 617 l 2
 227 617 174 604 145 580 c 0
 126 563 114 546 93 502 c 1
 74 507 l 1
 120 653 l 1
 606 653 l 1
EndSplineSet
Ligature: 0 0 'liga' Z uni0307
EndChar
StartChar: Amacron
Encoding: 308 256 202
Width: 611
Flags: W
HStem: 0 16<125.8 136 318 328.667 552.6 564> 226 36<175 374> 648 20G<368 394> 744 51<249 540>
DStem: 325 522 394 668 369 262 488 102 368 668 325 522 78 168 175 262 368 668 154 226 78 168 97 113 374 226 394 668 394 95 488 102
Fore
551 795 m 1
 540 744 l 1
 239 744 l 1
 250 795 l 1
 551 795 l 1
564 16 m 1
 564 0 l 1
 318 0 l 1
 318 16 l 1
 382 22 396 31 396 69 c 0
 396 77 395 86 394 95 c 1
 374 226 l 1
 154 226 l 1
 97 113 l 2
 80 79 77 70 77 51 c 0
 77 26 85 21 136 16 c 1
 136 0 l 1
 -51 0 l 1
 -51 16 l 1
 -11 24 -1 35 78 168 c 1
 368 668 l 1
 394 668 l 1
 488 102 l 1
 501 29 507 21 564 16 c 1
175 262 m 1
 369 262 l 1
 325 522 l 1
 175 262 l 1
EndSplineSet
Ligature: 0 0 'liga' A uni0304
EndChar
StartChar: Tcommaaccent
Encoding: 309 354 203
Width: 556
Flags: W
HStem: 0 16<65 78.2 338 355> 618 35<101 315 101 492>
VStem: 128 109<-111 -87>
DStem: 315 618 416 618 171 90 277 120
Fore
633 653 m 1
 589 490 l 1
 572 492 l 1
 574 509 575 524 575 537 c 0
 575 593 543 618 471 618 c 2
 416 618 l 1
 277 120 l 1
 268 86 265 74 265 61 c 0
 265 31 277 22 317 19 c 0
 323 19 338 17 355 16 c 1
 355 0 l 1
 65 0 l 1
 65 16 l 1
 131 21 155 37 171 90 c 1
 315 618 l 1
 162 620 130 603 77 495 c 1
 59 499 l 1
 101 653 l 1
 633 653 l 1
107 -270 m 1
 98 -253 l 1
 150 -218 173 -191 173 -164 c 0
 173 -154 168 -146 153 -132 c 0
 134 -115 128 -104 128 -87 c 0
 128 -60 150 -40 179 -40 c 0
 212 -40 237 -71 237 -111 c 0
 237 -167 191 -223 107 -270 c 1
EndSplineSet
Ligature: 0 0 'liga' T uni0327
EndChar
StartChar: Ydieresis
Encoding: 310 376 204
Width: 556
Flags: W
HStem: 0 16<78 94.5 351 367> 637 16<320 330 444 456> 720 98<277 296 477 495>
VStem: 238 98<767 772> 438 98<767 772>
DStem: 244 302 344 306 183 90 315 205 363 393 563 576 325 347 344 306
Fore
288 818 m 0
 313 818 336 794 336 769 c 0
 336 742 314 720 287 720 c 0
 260 720 238 742 238 770 c 0
 238 796 260 818 288 818 c 0
488 818 m 0
 513 818 536 794 536 769 c 0
 536 742 514 720 487 720 c 0
 460 720 438 742 438 770 c 0
 438 796 460 818 488 818 c 0
91 637 m 1
 91 653 l 1
 330 653 l 1
 330 637 l 1
 270 631 258 625 258 601 c 0
 258 586 269 543 294 457 c 0
 310 404 313 391 325 347 c 1
 363 393 l 1
 467 514 513 579 513 606 c 0
 513 623 500 631 471 634 c 0
 467 635 456 636 444 637 c 1
 444 653 l 1
 633 653 l 1
 633 637 l 1
 603 623 595 616 563 576 c 2
 344 306 l 1
 315 205 l 2
 314 201 312 194 309 185 c 0
 285 107 278 77 278 56 c 0
 278 31 292 21 331 19 c 0
 337 18 351 17 367 16 c 1
 367 0 l 1
 78 0 l 1
 78 16 l 1
 144 20 166 36 183 90 c 1
 244 302 l 1
 167 571 l 1
 150 626 147 629 91 637 c 1
EndSplineSet
Ligature: 0 0 'liga' Y uni0308
EndChar
StartChar: Emacron
Encoding: 311 274 205
Width: 611
Flags: W
HStem: 0 33<231 499> 325 38<280 325> 620 33<130 441> 637 16<130 140.333> 744 51<281 572>
DStem: 196 532 312 594 73 90 246 361
Fore
627 653 m 1xd8
 596 500 l 1
 575 502 l 1
 576 519 577 534 577 547 c 0
 577 607 542 620 385 620 c 0xe8
 329 620 318 616 312 594 c 2
 246 361 l 1
 281 362 313 363 325 363 c 0
 416 367 425 373 463 458 c 1
 481 454 l 1
 413 222 l 1
 393 227 l 1
 398 249 400 262 400 279 c 0
 400 296 398 305 393 310 c 0
 382 320 354 326 315 325 c 0
 303 325 272 326 237 328 c 1
 227 290 218 257 205 213 c 0
 180 125 169 78 169 67 c 0
 169 43 193 33 249 33 c 0
 324 33 392 43 429 60 c 0
 472 80 498 106 545 170 c 1
 561 162 l 1
 499 0 l 1
 -8 0 l 1
 -8 16 l 1
 48 26 56 33 73 90 c 1
 196 532 l 2
 201 550 207 585 207 596 c 0
 207 623 192 631 130 637 c 1xd8
 130 653 l 1xe8
 627 653 l 1xd8
583 795 m 1
 572 744 l 1
 271 744 l 1
 282 795 l 1
 583 795 l 1
EndSplineSet
Ligature: 0 0 'liga' E uni0304
EndChar
StartChar: Imacron
Encoding: 312 298 206
Width: 333
Flags: W
HStem: 0 16<227.857 236> 637 16<137 145.286> 744 51<138 429>
DStem: 196 532 302 563 73 90 179 120
Fore
-8 0 m 1
 -8 16 l 1
 48 26 55 32 73 90 c 1
 196 532 l 2
 203 557 207 580 207 594 c 0
 207 622 195 630 137 637 c 1
 137 653 l 1
 384 653 l 1
 384 637 l 1
 327 627 320 621 302 563 c 1
 179 120 l 2
 170 88 168 76 168 57 c 0
 168 29 179 23 236 16 c 1
 236 0 l 1
 -8 0 l 1
440 795 m 1
 429 744 l 1
 128 744 l 1
 139 795 l 1
 440 795 l 1
EndSplineSet
Ligature: 0 0 'liga' I uni0304
EndChar
StartChar: Iogonek
Encoding: 313 302 207
Width: 333
Flags: W
HStem: -169 63<254 279> -20 20G<-8 186> 637 16<137 145.286>
VStem: 159 61<-73 -49>
DStem: 196 532 302 563 73 90 179 120
Fore
137 653 m 1
 384 653 l 1
 384 637 l 1
 327 627 320 621 302 563 c 1
 179 120 l 2
 170 88 168 76 168 57 c 0
 168 29 179 23 236 16 c 1
 236 0 l 1
 225 -14 220 -29 220 -49 c 0
 220 -85 242 -106 279 -106 c 0
 310 -106 335 -96 362 -74 c 1
 379 -92 l 1
 344 -143 302 -169 254 -169 c 0
 202 -169 159 -126 159 -73 c 0
 159 -46 165 -31 186 0 c 1
 -8 0 l 1
 -8 16 l 1
 48 26 55 32 73 90 c 1
 196 532 l 2
 203 557 207 580 207 594 c 0
 207 622 195 630 137 637 c 1
 137 653 l 1
EndSplineSet
Ligature: 0 0 'liga' I uni0328
EndChar
StartChar: Kcommaaccent
Encoding: 314 310 208
Width: 667
Flags: W
HStem: 0 16<246 255 607.5 618> 634 19<500 527>
VStem: 204 109<-111 -87>
DStem: 212 532 318 563 89 90 265 369 212 532 259 348 89 90 197 120 259 348 347 375 380 140 521 72
Fore
722 653 m 1
 722 637 l 1
 698 633 675 622 647 601 c 2
 347 375 l 1
 521 72 l 1
 549 25 555 22 618 16 c 1
 618 0 l 1
 343 0 l 1
 343 16 l 1
 356 18 367 19 372 19 c 0
 404 22 418 30 418 45 c 0
 418 64 404 99 380 140 c 2
 259 348 l 1
 197 120 l 1
 191 99 l 2
 185 79 183 70 183 60 c 0
 183 29 192 23 255 16 c 1
 255 0 l 1
 7 0 l 1
 7 16 l 1
 66 25 71 30 89 90 c 1
 212 532 l 2
 219 557 223 580 223 594 c 0
 223 623 208 631 146 637 c 1
 146 653 l 1
 419 653 l 1
 419 637 l 1
 360 633 333 613 318 563 c 1
 265 369 l 1
 417 475 l 2
 506 537 561 591 561 615 c 0
 561 626 551 632 527 634 c 0
 523 634 512 636 500 637 c 1
 500 653 l 1
 722 653 l 1
183 -270 m 1
 174 -253 l 1
 226 -218 249 -191 249 -164 c 0
 249 -154 244 -146 229 -132 c 0
 210 -115 204 -104 204 -87 c 0
 204 -60 226 -40 255 -40 c 0
 288 -40 313 -71 313 -111 c 0
 313 -167 267 -223 183 -270 c 1
EndSplineSet
Ligature: 0 0 'liga' K uni0327
EndChar
StartChar: Lcommaaccent
Encoding: 315 315 209
Width: 556
Flags: W
HStem: 0 36<231 501> 637 16<130 140.333 388 403>
VStem: 148 109<-111 -87>
DStem: 196 532 302 563 73 90 179 120
Fore
403 653 m 1
 403 637 l 1
 343 633 317 614 302 563 c 1
 179 120 l 2
 174 101 169 77 169 70 c 0
 169 44 194 36 270 36 c 0
 357 36 398 42 433 59 c 0
 477 81 504 113 539 185 c 1
 559 179 l 1
 501 0 l 1
 -8 0 l 1
 -8 16 l 1
 48 26 55 32 73 90 c 1
 196 532 l 2
 203 557 207 580 207 594 c 0
 207 623 192 631 130 637 c 1
 130 653 l 1
 403 653 l 1
127 -270 m 1
 118 -253 l 1
 170 -218 193 -191 193 -164 c 0
 193 -154 188 -146 173 -132 c 0
 154 -115 148 -104 148 -87 c 0
 148 -60 170 -40 199 -40 c 0
 232 -40 257 -71 257 -111 c 0
 257 -167 211 -223 127 -270 c 1
EndSplineSet
Ligature: 0 0 'liga' L uni0327
EndChar
StartChar: Ncommaaccent
Encoding: 316 325 210
Width: 667
Flags: W
HStem: 0 16<-20 -12.875 165.25 178> 637 16<116 127.75 528 539.4>
VStem: 204 109<-111 -87>
DStem: 202 581 231 535 83 164 117 113 231 535 277 653 461 -15 485 154 587 534 623 488 485 154 479 -15
Fore
727 653 m 1
 727 637 l 1
 664 623 660 617 623 488 c 2
 479 -15 l 1
 461 -15 l 1
 231 535 l 1
 117 113 l 1
 111 92 108 72 108 59 c 0
 108 31 127 20 178 16 c 1
 178 0 l 1
 -20 0 l 1
 -20 16 l 1
 37 24 45 36 83 164 c 1
 202 581 l 1
 184 620 163 633 116 637 c 1
 116 653 l 1
 277 653 l 1
 485 154 l 1
 587 534 l 1
 587 535 588 539 589 542 c 0
 596 562 598 574 598 586 c 0
 598 622 585 632 528 637 c 1
 528 653 l 1
 727 653 l 1
183 -270 m 1
 174 -253 l 1
 226 -218 249 -191 249 -164 c 0
 249 -154 244 -146 229 -132 c 0
 210 -115 204 -104 204 -87 c 0
 204 -60 226 -40 255 -40 c 0
 288 -40 313 -71 313 -111 c 0
 313 -167 267 -223 183 -270 c 1
EndSplineSet
Ligature: 0 0 'liga' N uni0327
EndChar
StartChar: Omacron
Encoding: 317 332 211
Width: 722
Flags: W
HStem: -18 33<276 301> 633 33<459 482> 744 51<344 635>
VStem: 60 105<184 221>
Fore
646 795 m 1
 635 744 l 1
 334 744 l 1
 345 795 l 1
 646 795 l 1
474 666 m 0
 608 666 706 559 699 418 c 0
 688 192 486 -18 278 -18 c 0
 151 -18 60 81 60 221 c 0
 60 338 119 460 220 553 c 0
 300 626 390 666 474 666 c 0
465 633 m 0
 392 633 331 595 275 514 c 0
 215 427 165 278 165 184 c 0
 165 76 211 15 295 15 c 0
 365 15 427 54 482 133 c 0
 547 227 594 373 594 481 c 0
 594 575 544 633 465 633 c 0
EndSplineSet
Ligature: 0 0 'liga' O uni0304
EndChar
StartChar: Rcommaaccent
Encoding: 318 342 212
Width: 611
Flags: W
HStem: 0 16<223.375 231 552.333 567> 623 30<132 382>
VStem: 176 109<-111 -87> 483 105<497 515>
DStem: 191 532 308 595 68 90 243 366 191 532 231 329 68 90 175 120 296 324 391 333 419 0 484 88
Fore
567 16 m 1
 567 0 l 1
 419 0 l 1
 296 324 l 1
 231 329 l 1
 175 120 l 1
 166 85 163 72 163 62 c 0
 163 29 170 24 231 16 c 1
 231 0 l 1
 -13 0 l 1
 -13 16 l 1
 43 25 50 31 68 90 c 1
 191 532 l 1
 198 559 203 583 203 595 c 0
 203 606 197 618 189 623 c 0
 179 630 174 631 132 637 c 1
 132 653 l 1
 380 653 l 2
 514 653 588 602 588 509 c 0
 588 464 570 425 537 396 c 0
 501 364 468 350 391 333 c 1
 484 88 l 1
 503 36 523 19 567 16 c 1
308 595 m 2
 243 366 l 1
 267 362 278 361 294 361 c 0
 419 361 483 412 483 511 c 0
 483 585 442 623 359 623 c 0
 327 623 314 616 308 595 c 2
155 -270 m 1
 146 -253 l 1
 198 -218 221 -191 221 -164 c 0
 221 -154 216 -146 201 -132 c 0
 182 -115 176 -104 176 -87 c 0
 176 -60 198 -40 227 -40 c 0
 260 -40 285 -71 285 -111 c 0
 285 -167 239 -223 155 -270 c 1
EndSplineSet
Ligature: 0 0 'liga' R uni0327
EndChar
StartChar: Gcommaaccent
Encoding: 319 290 213
Width: 722
Flags: W
HStem: -18 37<338 373> 300 19<456 485> 632 34<451 471>
VStem: 52 110<223 248> 231 109<-111 -87>
Fore
708 662 m 1
 659 465 l 1
 641 468 l 1
 636 512 629 533 613 559 c 0
 583 605 528 632 463 632 c 0
 397 632 335 605 290 558 c 0
 211 474 162 347 162 224 c 0
 162 93 235 19 364 19 c 0
 409 19 447 31 469 53 c 0
 481 65 484 73 506 145 c 0
 528 219 534 247 534 269 c 0
 534 287 518 297 485 300 c 0
 481 300 468 302 456 303 c 1
 456 319 l 1
 722 319 l 1
 722 303 l 1
 657 299 641 287 625 231 c 1
 576 44 l 1
 499 1 427 -18 339 -18 c 0
 252 -18 179 9 128 60 c 0
 81 108 52 178 52 246 c 0
 52 466 244 666 455 666 c 0
 496 666 539 658 589 642 c 0
 611 635 623 632 633 632 c 0
 659 632 676 642 693 666 c 1
 708 662 l 1
210 -270 m 1
 201 -253 l 1
 253 -218 276 -191 276 -164 c 0
 276 -154 271 -146 256 -132 c 0
 237 -115 231 -104 231 -87 c 0
 231 -60 253 -40 282 -40 c 0
 315 -40 340 -71 340 -111 c 0
 340 -167 294 -223 210 -270 c 1
EndSplineSet
Ligature: 0 0 'liga' G uni0327
EndChar
StartChar: Umacron
Encoding: 320 362 214
Width: 722
Flags: W
HStem: -18 41<318 347> 637 16<127 138.167 390.286 400 566 576.667> 744 51<344 635>
VStem: 102 90<139 149>
Fore
646 795 m 1
 635 744 l 1
 334 744 l 1
 345 795 l 1
 646 795 l 1
765 653 m 1
 765 637 l 1
 703 623 699 618 661 488 c 2
 578 203 l 2
 534 53 451 -18 320 -18 c 0
 194 -18 102 51 102 147 c 0
 102 187 115 251 145 359 c 2
 198 551 l 1
 202 568 205 584 205 596 c 0
 205 625 194 631 127 637 c 1
 127 653 l 1
 400 653 l 1
 400 637 l 1
 332 630 316 616 295 546 c 0
 294 541 292 534 290 527 c 0
 223 296 192 175 192 141 c 0
 192 71 249 23 332 23 c 0
 402 23 456 54 495 116 c 0
 517 150 532 190 550 255 c 0
 555 274 559 291 563 304 c 0
 611 473 637 575 637 591 c 0
 637 604 630 618 620 624 c 0
 608 632 598 634 566 637 c 1
 566 653 l 1
 765 653 l 1
EndSplineSet
Ligature: 0 0 'liga' U uni0304
EndChar
StartChar: Uogonek
Encoding: 321 370 215
Width: 722
Flags: W
HStem: -169 63<503 528> -18 41<317 343> 637 16<127 138.167 390.286 400 566 576.667>
VStem: 102 90<134 152> 408 61<-75 -52>
Fore
566 653 m 1
 765 653 l 1
 765 637 l 1
 703 623 699 618 661 488 c 2
 578 203 l 1
 563 153 549 121 518 69 c 0
 478 2 469 -21 469 -52 c 0
 469 -85 492 -106 528 -106 c 0
 559 -106 584 -96 611 -74 c 1
 628 -92 l 1
 593 -143 551 -169 503 -169 c 0
 451 -169 408 -126 408 -75 c 0
 408 -44 418 -19 443 10 c 1
 404 -10 366 -18 319 -18 c 0
 194 -18 102 51 102 147 c 0
 102 187 115 251 145 359 c 2
 198 551 l 1
 202 568 205 584 205 596 c 0
 205 625 194 631 127 637 c 1
 127 653 l 1
 400 653 l 1
 400 637 l 1
 332 630 316 616 295 546 c 0
 294 541 292 534 290 527 c 0
 223 296 192 175 192 141 c 0
 192 71 249 23 332 23 c 0
 402 23 456 54 495 116 c 0
 517 150 532 190 550 255 c 0
 555 274 559 291 563 304 c 0
 611 473 637 575 637 591 c 0
 637 604 630 618 620 624 c 0
 608 632 598 634 566 637 c 1
 566 653 l 1
EndSplineSet
Ligature: 0 0 'liga' U uni0328
EndChar
StartChar: adieresis
Encoding: 322 228 216
Width: 500
Flags: W
HStem: -11 49<119 159> 421 20G<237 324.5> 508 98<238 248 432 450>
VStem: 17 84<98 118> 191 98<548 566> 297 73<31 54> 391 98<548 566>
DStem: 458 441 458 441 397 434 465 438
Fore
241 606 m 0
 266 606 289 582 289 557 c 0
 289 530 267 508 240 508 c 0
 213 508 191 530 191 558 c 0
 191 584 213 606 241 606 c 0
441 606 m 0
 466 606 489 582 489 557 c 0
 489 530 467 508 440 508 c 0
 413 508 391 530 391 558 c 0
 391 584 413 606 441 606 c 0
464 110 m 1
 476 100 l 1
 402 9 377 -10 337 -10 c 0
 309 -10 297 2 297 31 c 0
 297 55 300 68 320 146 c 1
 232 22 189 -11 119 -11 c 0
 55 -11 17 30 17 100 c 0
 17 258 171 441 303 441 c 0
 346 441 375 420 383 383 c 1
 394 431 l 1
 397 434 l 1
 458 441 l 1
 465 438 l 1
 463 429 462 427 459 417 c 0
 412 245 370 74 370 54 c 0
 370 47 376 41 384 41 c 0
 393 41 406 51 436 82 c 0
 443 90 449 95 464 110 c 1
309 419 m 0
 269 422 222 390 182 332 c 0
 139 270 101 167 101 113 c 0
 101 67 124 38 159 38 c 0
 188 38 222 55 246 82 c 0
 315 156 365 274 365 358 c 0
 365 393 343 417 309 419 c 0
EndSplineSet
KernsSLIF: 118 1 0 0 119 4 0 0 121 2 0 0
Ligature: 0 0 'liga' a uni0308
EndChar
StartChar: aacute
Encoding: 323 225 217
Width: 500
Flags: W
HStem: -11 49<119 159> 421 20G<237 324.5> 644 20G<446 461>
VStem: 17 84<98 118> 297 73<31 54>
DStem: 458 441 458 441 397 434 465 438
Fore
264 494 m 1
 426 654 l 2
 433 660 441 664 451 664 c 0
 471 664 487 648 487 628 c 0
 487 616 482 607 470 600 c 2
 299 494 l 1
 264 494 l 1
464 110 m 1
 476 100 l 1
 402 9 377 -10 337 -10 c 0
 309 -10 297 2 297 31 c 0
 297 55 300 68 320 146 c 1
 232 22 189 -11 119 -11 c 0
 55 -11 17 30 17 100 c 0
 17 258 171 441 303 441 c 0
 346 441 375 420 383 383 c 1
 394 431 l 1
 397 434 l 1
 458 441 l 1
 465 438 l 1
 463 429 462 427 459 417 c 0
 412 245 370 74 370 54 c 0
 370 47 376 41 384 41 c 0
 393 41 406 51 436 82 c 0
 443 90 449 95 464 110 c 1
309 419 m 0
 269 422 222 390 182 332 c 0
 139 270 101 167 101 113 c 0
 101 67 124 38 159 38 c 0
 188 38 222 55 246 82 c 0
 315 156 365 274 365 358 c 0
 365 393 343 417 309 419 c 0
EndSplineSet
KernsSLIF: 118 1 0 0 119 4 0 0 121 2 0 0
Ligature: 0 0 'liga' a acutecomb
EndChar
StartChar: agrave
Encoding: 324 224 218
Width: 500
Flags: W
HStem: -11 49<119 159> 421 20G<237 324.5> 644 20G<229 246.5>
VStem: 17 84<98 118> 297 73<31 54>
DStem: 458 441 458 441 397 434 465 438
Fore
363 492 m 1
 223 598 l 2
 210 608 204 618 204 630 c 0
 204 649 219 664 239 664 c 0
 254 664 265 657 278 641 c 2
 394 492 l 1
 363 492 l 1
464 110 m 1
 476 100 l 1
 402 9 377 -10 337 -10 c 0
 309 -10 297 2 297 31 c 0
 297 55 300 68 320 146 c 1
 232 22 189 -11 119 -11 c 0
 55 -11 17 30 17 100 c 0
 17 258 171 441 303 441 c 0
 346 441 375 420 383 383 c 1
 394 431 l 1
 397 434 l 1
 458 441 l 1
 465 438 l 1
 463 429 462 427 459 417 c 0
 412 245 370 74 370 54 c 0
 370 47 376 41 384 41 c 0
 393 41 406 51 436 82 c 0
 443 90 449 95 464 110 c 1
309 419 m 0
 269 422 222 390 182 332 c 0
 139 270 101 167 101 113 c 0
 101 67 124 38 159 38 c 0
 188 38 222 55 246 82 c 0
 315 156 365 274 365 358 c 0
 365 393 343 417 309 419 c 0
EndSplineSet
KernsSLIF: 118 1 0 0 119 4 0 0 121 2 0 0
Ligature: 0 0 'liga' a gravecomb
EndChar
StartChar: acircumflex
Encoding: 325 226 219
Width: 500
Flags: W
HStem: -11 49<119 159> 421 20G<237 324.5> 641 20G<332 381>
VStem: 17 84<98 118> 297 73<31 54>
DStem: 458 441 458 441 397 434 465 438
Fore
381 661 m 1
 469 492 l 1
 433 492 l 1
 351 596 l 1
 214 492 l 1
 175 492 l 1
 332 661 l 1
 381 661 l 1
464 110 m 1
 476 100 l 1
 402 9 377 -10 337 -10 c 0
 309 -10 297 2 297 31 c 0
 297 55 300 68 320 146 c 1
 232 22 189 -11 119 -11 c 0
 55 -11 17 30 17 100 c 0
 17 258 171 441 303 441 c 0
 346 441 375 420 383 383 c 1
 394 431 l 1
 397 434 l 1
 458 441 l 1
 465 438 l 1
 463 429 462 427 459 417 c 0
 412 245 370 74 370 54 c 0
 370 47 376 41 384 41 c 0
 393 41 406 51 436 82 c 0
 443 90 449 95 464 110 c 1
309 419 m 0
 269 422 222 390 182 332 c 0
 139 270 101 167 101 113 c 0
 101 67 124 38 159 38 c 0
 188 38 222 55 246 82 c 0
 315 156 365 274 365 358 c 0
 365 393 343 417 309 419 c 0
EndSplineSet
Ligature: 0 0 'liga' a uni0302
EndChar
StartChar: abreve
Encoding: 326 259 220
Width: 500
Flags: W
HStem: -11 49<119 159> 421 20G<237 324.5> 492 59<320 340>
VStem: 17 84<98 118> 297 73<31 54>
DStem: 458 441 458 441 397 434 465 438
Fore
473 650 m 1
 502 650 l 1
 493 608 484 587 464 561 c 0
 431 516 384 492 331 492 c 0
 286 492 252 507 229 536 c 0
 209 562 201 593 201 650 c 1
 230 650 l 1
 235 588 274 551 338 551 c 0
 399 551 448 587 473 650 c 1
464 110 m 1
 476 100 l 1
 402 9 377 -10 337 -10 c 0
 309 -10 297 2 297 31 c 0
 297 55 300 68 320 146 c 1
 232 22 189 -11 119 -11 c 0
 55 -11 17 30 17 100 c 0
 17 258 171 441 303 441 c 0
 346 441 375 420 383 383 c 1
 394 431 l 1
 397 434 l 1
 458 441 l 1
 465 438 l 1
 463 429 462 427 459 417 c 0
 412 245 370 74 370 54 c 0
 370 47 376 41 384 41 c 0
 393 41 406 51 436 82 c 0
 443 90 449 95 464 110 c 1
309 419 m 0
 269 422 222 390 182 332 c 0
 139 270 101 167 101 113 c 0
 101 67 124 38 159 38 c 0
 188 38 222 55 246 82 c 0
 315 156 365 274 365 358 c 0
 365 393 343 417 309 419 c 0
EndSplineSet
Ligature: 0 0 'liga' a uni0306
EndChar
StartChar: atilde
Encoding: 327 227 221
Width: 500
Flags: W
HStem: -11 49<119 159> 421 20G<237 324.5> 520 60<416 432> 564 59<264 284>
VStem: 17 84<98 118> 297 73<31 54>
DStem: 458 441 458 441 397 434 465 438
Fore
483 624 m 1xec
 511 624 l 1
 497 557 464 520 416 520 c 0xec
 404 520 385 525 359 535 c 0
 305 557 281 564 264 564 c 0
 239 564 223 549 213 517 c 1
 184 517 l 1
 204 594 232 623 284 623 c 0xdc
 306 623 332 616 370 599 c 0
 400 585 417 580 432 580 c 0
 459 580 472 591 483 624 c 1xec
464 110 m 1
 476 100 l 1
 402 9 377 -10 337 -10 c 0
 309 -10 297 2 297 31 c 0
 297 55 300 68 320 146 c 1
 232 22 189 -11 119 -11 c 0
 55 -11 17 30 17 100 c 0
 17 258 171 441 303 441 c 0
 346 441 375 420 383 383 c 1
 394 431 l 1
 397 434 l 1
 458 441 l 1
 465 438 l 1
 463 429 462 427 459 417 c 0
 412 245 370 74 370 54 c 0
 370 47 376 41 384 41 c 0
 393 41 406 51 436 82 c 0
 443 90 449 95 464 110 c 1
309 419 m 0
 269 422 222 390 182 332 c 0
 139 270 101 167 101 113 c 0
 101 67 124 38 159 38 c 0
 188 38 222 55 246 82 c 0
 315 156 365 274 365 358 c 0
 365 393 343 417 309 419 c 0
EndSplineSet
Ligature: 0 0 'liga' a tildecomb
EndChar
StartChar: aring
Encoding: 328 229 222
Width: 500
Flags: W
HStem: -11 49<119 159> 421 20G<237 324.5> 508 34<325.513 340> 673 34<325.944 340>
VStem: 17 84<98 118> 238 34<608 614> 297 73<31 54> 404 34<607 614>
DStem: 458 441 458 441 397 434 465 438
Fore
337 707 m 0
 392 707 438 662 438 607 c 0
 438 553 393 508 338 508 c 0
 282 508 238 552 238 608 c 0
 238 662 283 707 337 707 c 0
337 673 m 0
 302 673 272 643 272 608 c 0
 272 571 301 542 337 542 c 0
 375 542 404 570 404 607 c 0
 404 643 374 673 337 673 c 0
464 110 m 1
 476 100 l 1
 402 9 377 -10 337 -10 c 0
 309 -10 297 2 297 31 c 0
 297 55 300 68 320 146 c 1
 232 22 189 -11 119 -11 c 0
 55 -11 17 30 17 100 c 0
 17 258 171 441 303 441 c 0
 346 441 375 420 383 383 c 1
 394 431 l 1
 397 434 l 1
 458 441 l 1
 465 438 l 1
 463 429 462 427 459 417 c 0
 412 245 370 74 370 54 c 0
 370 47 376 41 384 41 c 0
 393 41 406 51 436 82 c 0
 443 90 449 95 464 110 c 1
309 419 m 0
 269 422 222 390 182 332 c 0
 139 270 101 167 101 113 c 0
 101 67 124 38 159 38 c 0
 188 38 222 55 246 82 c 0
 315 156 365 274 365 358 c 0
 365 393 343 417 309 419 c 0
EndSplineSet
KernsSLIF: 118 1 0 0 119 4 0 0 121 2 0 0
Ligature: 0 0 'liga' a uni030A
EndChar
StartChar: aogonek
Encoding: 329 261 223
Width: 500
Flags: W
HStem: -169 63<375 400> -11 49<119 159> 421 20G<237 324.5>
VStem: 17 84<98 120> 280 61<-74 -52> 365 5<54 358>
DStem: 458 441 458 441 397 434 465 438
Fore
464 110 m 1
 476 100 l 1
 428 41 399 12 372 -4 c 0
 348 -17 341 -28 341 -52 c 0
 341 -85 364 -106 400 -106 c 0
 431 -106 456 -96 483 -74 c 1
 500 -92 l 1
 465 -143 423 -169 375 -169 c 0
 323 -169 280 -126 280 -74 c 0
 280 -48 288 -26 306 0 c 1
 299 8 297 15 297 31 c 0
 297 55 300 68 320 146 c 1
 232 22 189 -11 119 -11 c 0
 55 -11 17 30 17 100 c 0
 17 258 171 441 303 441 c 0
 346 441 375 420 383 383 c 1
 394 431 l 1
 397 434 l 1
 458 441 l 1
 465 438 l 1
 463 429 462 427 459 417 c 0
 412 245 370 74 370 54 c 0
 370 47 376 41 384 41 c 0
 393 41 406 51 436 82 c 0
 443 90 449 95 464 110 c 1
309 419 m 0
 269 422 222 390 182 332 c 0
 139 270 101 167 101 113 c 0
 101 67 124 38 159 38 c 0
 188 38 222 55 246 82 c 0
 315 156 365 274 365 358 c 0
 365 393 343 417 309 419 c 0
EndSplineSet
Ligature: 0 0 'liga' a uni0328
EndChar
StartChar: cacute
Encoding: 330 263 224
Width: 444
Flags: W
HStem: -11 36<177 207> 420 21<301 322> 644 20G<417 432>
VStem: 30 86<139 150> 338 87<350 362>
Fore
235 494 m 1
 397 654 l 2
 404 660 412 664 422 664 c 0
 442 664 458 648 458 628 c 0
 458 616 453 607 441 600 c 2
 270 494 l 1
 235 494 l 1
350 106 m 1
 366 96 l 1
 306 20 251 -11 177 -11 c 0
 84 -11 30 44 30 139 c 0
 30 295 170 441 320 441 c 0
 380 441 425 406 425 360 c 0
 425 334 404 314 377 314 c 0
 353 314 338 328 338 352 c 0
 338 361 340 368 347 381 c 0
 351 390 353 395 353 400 c 0
 353 412 338 420 315 420 c 0
 276 420 236 402 207 372 c 0
 151 313 116 224 116 139 c 0
 116 68 150 25 207 25 c 0
 256 25 295 47 350 106 c 1
EndSplineSet
Ligature: 0 0 'liga' c acutecomb
EndChar
StartChar: ccaron
Encoding: 331 269 225
Width: 444
Flags: W
HStem: -11 36<177 207> 420 21<301 324> 641 20G<179 216 448 484>
VStem: 30 86<139 150> 338 87<350 362>
Fore
484 661 m 1
 321 492 l 1
 275 492 l 1
 179 661 l 1
 216 661 l 1
 306 556 l 1
 448 661 l 1
 484 661 l 1
350 106 m 1
 366 96 l 1
 306 20 251 -11 177 -11 c 0
 84 -11 30 44 30 139 c 0
 30 295 170 441 320 441 c 0
 380 441 425 406 425 360 c 0
 425 334 404 314 377 314 c 0
 353 314 338 328 338 352 c 0
 338 361 340 368 347 381 c 0
 351 390 353 395 353 400 c 0
 353 412 338 420 315 420 c 0
 276 420 236 402 207 372 c 0
 151 313 116 224 116 139 c 0
 116 68 150 25 207 25 c 0
 256 25 295 47 350 106 c 1
EndSplineSet
Ligature: 0 0 'liga' c uni030C
EndChar
StartChar: ccedilla
Encoding: 332 231 226
Width: 444
Flags: W
HStem: -217 35<105 123> -97 34<118 156> -11 36<176 207> 420 21<313 322>
VStem: 30 86<139 152> 164 74<-143 -131> 338 87<350 362>
DStem: 133 -6 168 -11 77 -96 131 -66
Fore
168 -11 m 1
 131 -66 l 1
 141 -64 148 -63 156 -63 c 0
 206 -63 238 -90 238 -131 c 0
 238 -181 188 -217 119 -217 c 0
 91 -217 68 -212 26 -196 c 1
 43 -167 l 1
 72 -178 90 -182 111 -182 c 0
 145 -182 164 -167 164 -141 c 0
 164 -115 145 -97 118 -97 c 0
 108 -97 100 -99 86 -104 c 1
 77 -96 l 1
 133 -6 l 1
 66 10 30 60 30 139 c 0
 30 295 170 441 320 441 c 0
 380 441 425 406 425 360 c 0
 425 334 404 314 377 314 c 0
 353 314 338 328 338 352 c 0
 338 361 340 368 347 381 c 0
 351 390 353 395 353 400 c 0
 353 412 338 420 316 420 c 0
 276 420 236 402 207 372 c 0
 151 314 116 224 116 139 c 0
 116 68 150 25 207 25 c 0
 256 25 295 47 350 106 c 1
 366 96 l 1
 306 19 252 -11 176 -11 c 2
 168 -11 l 1
EndSplineSet
Ligature: 0 0 'liga' c uni0327
EndChar
StartChar: dcaron
Encoding: 333 271 227
Width: 500
Flags: W
HStem: -11 48<120 160> 421 20G<242 326.5> 646 20G<568.5 599.5>
VStem: 15 87<103 123> 287 76<32 60> 532 109<595 619>
Fore
463 111 m 1
 475 101 l 1
 423 28 371 -13 329 -13 c 0
 304 -13 287 5 287 32 c 0
 287 55 289 70 300 121 c 1
 232 21 188 -11 120 -11 c 0
 55 -11 15 32 15 103 c 0
 15 253 177 441 307 441 c 0
 346 441 364 425 372 383 c 1
 416 547 l 2
 430 598 431 604 431 617 c 0
 431 638 424 641 369 643 c 1
 369 660 l 1
 433 666 469 672 522 683 c 1
 527 678 l 1
 476 478 455 398 428 306 c 0
 395 196 363 74 363 60 c 0
 363 49 371 40 381 40 c 0
 398 40 409 49 463 111 c 1
311 418 m 0
 283 420 246 401 218 372 c 0
 152 302 102 186 102 103 c 0
 102 64 126 37 160 37 c 0
 252 37 356 209 356 361 c 0
 356 397 341 416 311 418 c 0
511 436 m 1
 502 453 l 1
 554 488 577 515 577 542 c 0
 577 552 572 560 557 574 c 0
 538 591 532 602 532 619 c 0
 532 646 554 666 583 666 c 0
 616 666 641 635 641 595 c 0
 641 539 595 483 511 436 c 1
EndSplineSet
Ligature: 0 0 'liga' d uni030C
EndChar
StartChar: edieresis
Encoding: 334 235 228
Width: 444
Flags: W
HStem: -11 45<163 212> 418 23<311 332> 508 98<200 212 398 412>
VStem: 31 87<109 134> 153 98<548 566> 346 66<371 381> 353 98<548 566>
Fore
203 606 m 0xf8
 228 606 251 582 251 557 c 0
 251 530 229 508 202 508 c 0
 175 508 153 530 153 558 c 0
 153 584 175 606 203 606 c 0xf8
403 606 m 0
 428 606 451 582 451 557 c 0
 451 530 429 508 402 508 c 0
 375 508 353 530 353 558 c 0xfa
 353 584 375 606 403 606 c 0
358 109 m 1
 370 97 l 1
 311 30 234 -11 163 -11 c 0
 85 -11 31 45 31 126 c 0
 31 276 188 441 332 441 c 0
 382 441 412 415 412 373 c 0xfc
 412 287 306 211 156 190 c 2
 128 186 l 1
 120 154 118 139 118 124 c 0
 118 70 155 34 212 34 c 0
 255 34 286 50 358 109 c 1
152 252 m 2
 135 208 l 1
 221 229 259 247 296 282 c 0
 327 312 346 348 346 379 c 0
 346 402 332 418 311 418 c 0
 260 418 186 341 152 252 c 2
EndSplineSet
Ligature: 0 0 'liga' e uni0308
EndChar
StartChar: eacute
Encoding: 335 233 229
Width: 444
Flags: W
HStem: -11 45<163 212> 418 23<311 332> 644 20G<418 433>
VStem: 31 87<109 134> 346 66<371 381>
Fore
236 494 m 1
 398 654 l 2
 405 660 413 664 423 664 c 0
 443 664 459 648 459 628 c 0
 459 616 454 607 442 600 c 2
 271 494 l 1
 236 494 l 1
358 109 m 1
 370 97 l 1
 311 30 234 -11 163 -11 c 0
 85 -11 31 45 31 126 c 0
 31 276 188 441 332 441 c 0
 382 441 412 415 412 373 c 0
 412 287 306 211 156 190 c 2
 128 186 l 1
 120 154 118 139 118 124 c 0
 118 70 155 34 212 34 c 0
 255 34 286 50 358 109 c 1
152 252 m 2
 135 208 l 1
 221 229 259 247 296 282 c 0
 327 312 346 348 346 379 c 0
 346 402 332 418 311 418 c 0
 260 418 186 341 152 252 c 2
EndSplineSet
KernsSLIF: 119 2 0 0 121 4 0 0
Ligature: 0 0 'liga' e acutecomb
EndChar
StartChar: egrave
Encoding: 336 232 230
Width: 444
Flags: W
HStem: -11 45<163 212> 418 23<311 332> 644 20G<201 218.5>
VStem: 31 87<109 134> 346 66<371 381>
Fore
335 492 m 1
 195 598 l 2
 182 608 176 618 176 630 c 0
 176 649 191 664 211 664 c 0
 226 664 237 657 250 641 c 2
 366 492 l 1
 335 492 l 1
358 109 m 1
 370 97 l 1
 311 30 234 -11 163 -11 c 0
 85 -11 31 45 31 126 c 0
 31 276 188 441 332 441 c 0
 382 441 412 415 412 373 c 0
 412 287 306 211 156 190 c 2
 128 186 l 1
 120 154 118 139 118 124 c 0
 118 70 155 34 212 34 c 0
 255 34 286 50 358 109 c 1
152 252 m 2
 135 208 l 1
 221 229 259 247 296 282 c 0
 327 312 346 348 346 379 c 0
 346 402 332 418 311 418 c 0
 260 418 186 341 152 252 c 2
EndSplineSet
Ligature: 0 0 'liga' e gravecomb
EndChar
StartChar: ecircumflex
Encoding: 337 234 231
Width: 444
Flags: W
HStem: -11 45<163 212> 418 23<311 332> 641 20G<304 353>
VStem: 31 87<109 134> 346 66<371 381>
Fore
353 661 m 1
 441 492 l 1
 405 492 l 1
 323 596 l 1
 186 492 l 1
 147 492 l 1
 304 661 l 1
 353 661 l 1
358 109 m 1
 370 97 l 1
 311 30 234 -11 163 -11 c 0
 85 -11 31 45 31 126 c 0
 31 276 188 441 332 441 c 0
 382 441 412 415 412 373 c 0
 412 287 306 211 156 190 c 2
 128 186 l 1
 120 154 118 139 118 124 c 0
 118 70 155 34 212 34 c 0
 255 34 286 50 358 109 c 1
152 252 m 2
 135 208 l 1
 221 229 259 247 296 282 c 0
 327 312 346 348 346 379 c 0
 346 402 332 418 311 418 c 0
 260 418 186 341 152 252 c 2
EndSplineSet
KernsSLIF: 119 2 0 0 121 4 0 0
Ligature: 0 0 'liga' e uni0302
EndChar
StartChar: ecaron
Encoding: 338 283 232
Width: 444
Flags: W
HStem: -11 45<163 212> 418 23<311 332> 641 20G<177 214 446 482>
VStem: 31 87<109 134> 346 66<371 381>
Fore
482 661 m 1
 319 492 l 1
 273 492 l 1
 177 661 l 1
 214 661 l 1
 304 556 l 1
 446 661 l 1
 482 661 l 1
358 109 m 1
 370 97 l 1
 311 30 234 -11 163 -11 c 0
 85 -11 31 45 31 126 c 0
 31 276 188 441 332 441 c 0
 382 441 412 415 412 373 c 0
 412 287 306 211 156 190 c 2
 128 186 l 1
 120 154 118 139 118 124 c 0
 118 70 155 34 212 34 c 0
 255 34 286 50 358 109 c 1
152 252 m 2
 135 208 l 1
 221 229 259 247 296 282 c 0
 327 312 346 348 346 379 c 0
 346 402 332 418 311 418 c 0
 260 418 186 341 152 252 c 2
EndSplineSet
Ligature: 0 0 'liga' e uni030C
EndChar
StartChar: edotaccent
Encoding: 339 279 233
Width: 444
Flags: W
HStem: -11 45<163 212> 418 23<311 332> 508 98<302 320>
VStem: 31 87<109 134> 262 98<548 566> 346 66<371 381>
Fore
312 606 m 0xf8
 337 606 360 582 360 557 c 0
 360 530 338 508 311 508 c 0
 284 508 262 530 262 558 c 0
 262 584 284 606 312 606 c 0xf8
358 109 m 1
 370 97 l 1
 311 30 234 -11 163 -11 c 0
 85 -11 31 45 31 126 c 0
 31 276 188 441 332 441 c 0
 382 441 412 415 412 373 c 0xf4
 412 287 306 211 156 190 c 2
 128 186 l 1
 120 154 118 139 118 124 c 0
 118 70 155 34 212 34 c 0
 255 34 286 50 358 109 c 1
152 252 m 2
 135 208 l 1
 221 229 259 247 296 282 c 0
 327 312 346 348 346 379 c 0
 346 402 332 418 311 418 c 0
 260 418 186 341 152 252 c 2
EndSplineSet
Ligature: 0 0 'liga' e uni0307
EndChar
StartChar: eogonek
Encoding: 340 281 234
Width: 444
Flags: W
HStem: -169 63<319 344> -11 45<164 212> 418 23<311 332>
VStem: 31 87<109 136> 224 61<-75 -53> 346 66<371 381>
Fore
358 109 m 1
 370 97 l 1
 365 91 360 85 354 80 c 1
 301 21 285 -10 285 -53 c 0
 285 -85 309 -106 344 -106 c 0
 375 -106 400 -96 427 -74 c 1
 444 -92 l 1
 409 -143 367 -169 319 -169 c 0
 267 -169 224 -126 224 -75 c 0
 224 -42 235 -16 262 14 c 1
 226 -4 198 -11 164 -11 c 0
 85 -11 31 45 31 126 c 0
 31 276 188 441 332 441 c 0
 382 441 412 415 412 373 c 0
 412 287 306 211 156 190 c 2
 128 186 l 1
 120 154 118 139 118 124 c 0
 118 70 155 34 212 34 c 0
 255 34 286 50 358 109 c 1
152 252 m 2
 135 208 l 1
 221 229 259 247 296 282 c 0
 327 312 346 348 346 379 c 0
 346 402 332 418 311 418 c 0
 260 418 186 341 152 252 c 2
EndSplineSet
Ligature: 0 0 'liga' e uni0328
EndChar
StartChar: gbreve
Encoding: 341 287 235
Width: 500
Flags: W
HStem: -206 22<170 203> 151 21<227 246> 366 39<411 472> 419 22<283.463 299> 492 59<320 345>
VStem: 8 55<-95 -77> 98 74<78 114 247 270> 325 60<-90 -60> 352 79<310 348>
Fore
473 650 m 1xfe
 502 650 l 1
 493 608 484 587 464 561 c 0
 431 516 384 492 331 492 c 0
 286 492 252 507 229 536 c 0
 209 562 201 593 201 650 c 1
 230 650 l 1
 235 588 274 551 338 551 c 0
 399 551 448 587 473 650 c 1xfe
472 405 m 1
 472 366 l 1
 422 366 l 1
 428 346 431 326 431 310 c 0xfe80
 431 232 337 151 246 151 c 0
 237 151 223 152 215 154 c 0
 212 155 210 155 208 155 c 0
 195 155 172 129 172 114 c 0
 172 99 198 83 242 72 c 0
 337 47 385 3 385 -60 c 0xff
 385 -147 301 -206 175 -206 c 0
 74 -206 8 -161 8 -92 c 0
 8 -46 26 -26 125 39 c 1
 106 53 98 65 98 78 c 0
 98 102 116 122 175 162 c 1
 118 188 96 218 96 270 c 0
 96 364 186 441 297 441 c 0
 335 441 368 431 395 413 c 0
 403 407 408 405 411 405 c 2
 472 405 l 1
148 28 m 0
 140 28 98 -5 85 -22 c 0
 69 -41 63 -58 63 -82 c 0
 63 -146 110 -184 190 -184 c 0
 267 -184 325 -144 325 -90 c 0xff
 325 -44 288 -16 182 17 c 0
 166 22 156 25 153 26 c 0
 151 27 149 28 148 28 c 0
296 419 m 0
 231 419 174 339 174 247 c 0
 174 200 196 172 234 172 c 0
 268 172 299 194 321 235 c 0
 340 269 352 313 352 348 c 0xfe80
 352 395 333 419 296 419 c 0
EndSplineSet
Ligature: 0 0 'liga' g uni0306
EndChar
StartChar: idieresis
Encoding: 342 239 236
Width: 278
Flags: W
HStem: -11 47<95 140> 508 98<94 114 302 307>
VStem: 49 75<46 53> 55 98<548 566> 255 98<548 566>
DStem: 119 332 228 439 71 155 140 117
Fore
105 606 m 0xd8
 130 606 153 582 153 557 c 0
 153 530 131 508 104 508 c 0
 77 508 55 530 55 558 c 0
 55 584 77 606 105 606 c 0xd8
305 606 m 0
 330 606 353 582 353 557 c 0
 353 530 331 508 304 508 c 0
 277 508 255 530 255 558 c 0
 255 584 277 606 305 606 c 0
222 114 m 1
 235 103 l 1
 178 19 141 -11 95 -11 c 0
 65 -11 49 9 49 46 c 0
 49 66 55 97 71 155 c 2
 119 332 l 1
 125 352 128 368 128 376 c 0
 128 396 118 399 65 400 c 1
 65 416 l 1
 104 419 124 422 225 441 c 1
 228 439 l 1
 140 117 l 1
 139 115 l 1
 139 113 l 1
 137 105 134 98 134 95 c 0
 127 76 124 61 124 51 c 0xe8
 124 44 132 36 140 36 c 0
 149 36 164 46 181 63 c 0
 191 74 198 82 222 114 c 1
EndSplineSet
Ligature: 0 0 'liga' i uni0308
EndChar
StartChar: iacute
Encoding: 343 237 237
Width: 278
Flags: W
HStem: -11 47<95 140> 644 20G<315 330>
VStem: 49 75<46 53>
DStem: 119 332 228 439 71 155 140 117
Fore
133 494 m 1
 295 654 l 2
 302 660 310 664 320 664 c 0
 340 664 356 648 356 628 c 0
 356 616 351 607 339 600 c 2
 168 494 l 1
 133 494 l 1
222 114 m 1
 235 103 l 1
 178 19 141 -11 95 -11 c 0
 65 -11 49 9 49 46 c 0
 49 66 55 97 71 155 c 2
 119 332 l 1
 125 352 128 368 128 376 c 0
 128 396 118 399 65 400 c 1
 65 416 l 1
 104 419 124 422 225 441 c 1
 228 439 l 1
 140 117 l 1
 139 115 l 1
 139 113 l 1
 137 105 134 98 134 95 c 0
 127 76 124 61 124 51 c 0
 124 44 132 36 140 36 c 0
 149 36 164 46 181 63 c 0
 191 74 198 82 222 114 c 1
EndSplineSet
Ligature: 0 0 'liga' i acutecomb
EndChar
StartChar: igrave
Encoding: 344 236 238
Width: 278
Flags: W
HStem: -11 47<95 140> 644 20G<119 136.5>
VStem: 49 75<46 53>
DStem: 119 332 228 439 71 155 140 117
Fore
253 492 m 1
 113 598 l 2
 100 608 94 618 94 630 c 0
 94 649 109 664 129 664 c 0
 144 664 155 657 168 641 c 2
 284 492 l 1
 253 492 l 1
222 114 m 1
 235 103 l 1
 178 19 141 -11 95 -11 c 0
 65 -11 49 9 49 46 c 0
 49 66 55 97 71 155 c 2
 119 332 l 1
 125 352 128 368 128 376 c 0
 128 396 118 399 65 400 c 1
 65 416 l 1
 104 419 124 422 225 441 c 1
 228 439 l 1
 140 117 l 1
 139 115 l 1
 139 113 l 1
 137 105 134 98 134 95 c 0
 127 76 124 61 124 51 c 0
 124 44 132 36 140 36 c 0
 149 36 164 46 181 63 c 0
 191 74 198 82 222 114 c 1
EndSplineSet
Ligature: 0 0 'liga' i gravecomb
EndChar
StartChar: icircumflex
Encoding: 345 238 239
Width: 278
Flags: W
HStem: -11 47<95 140> 641 20G<191 240>
VStem: 49 75<46 53>
DStem: 119 332 228 439 71 155 140 117
Fore
240 661 m 1
 328 492 l 1
 292 492 l 1
 210 596 l 1
 73 492 l 1
 34 492 l 1
 191 661 l 1
 240 661 l 1
222 114 m 1
 235 103 l 1
 178 19 141 -11 95 -11 c 0
 65 -11 49 9 49 46 c 0
 49 66 55 97 71 155 c 2
 119 332 l 1
 125 352 128 368 128 376 c 0
 128 396 118 399 65 400 c 1
 65 416 l 1
 104 419 124 422 225 441 c 1
 228 439 l 1
 140 117 l 1
 139 115 l 1
 139 113 l 1
 137 105 134 98 134 95 c 0
 127 76 124 61 124 51 c 0
 124 44 132 36 140 36 c 0
 149 36 164 46 181 63 c 0
 191 74 198 82 222 114 c 1
EndSplineSet
Ligature: 0 0 'liga' i uni0302
EndChar
StartChar: lacute
Encoding: 346 314 240
Width: 278
Flags: W
HStem: -11 43<89 132> 640 16<118 126.429>
VStem: 40 77<43 54>
DStem: 182 599 279 678 45 71 128 99
Fore
153 706 m 1
 315 866 l 2
 322 872 330 876 340 876 c 0
 360 876 376 860 376 840 c 0
 376 828 371 819 359 812 c 2
 188 706 l 1
 153 706 l 1
228 123 m 1
 241 114 l 1
 176 18 141 -11 89 -11 c 0
 57 -11 40 9 40 45 c 0
 40 50 42 60 45 71 c 2
 182 599 l 1
 185 608 186 614 186 617 c 0
 186 633 166 640 118 640 c 1
 118 656 l 1
 177 663 215 670 274 683 c 1
 279 678 l 1
 128 99 l 1
 127 97 126 92 125 89 c 0
 120 69 117 57 117 50 c 0
 117 39 122 32 132 32 c 0
 150 32 169 47 201 89 c 0
 210 101 219 112 228 123 c 1
EndSplineSet
Ligature: 0 0 'liga' l acutecomb
EndChar
StartChar: lcaron
Encoding: 347 318 241
Width: 278
Flags: W
HStem: -11 43<89 132> 640 16<118 126.429>
VStem: 40 77<43 54> 286 109<595 619>
DStem: 182 599 279 678 45 71 128 99
Fore
228 123 m 1
 241 114 l 1
 176 18 141 -11 89 -11 c 0
 57 -11 40 9 40 45 c 0
 40 50 42 60 45 71 c 2
 182 599 l 1
 185 608 186 614 186 617 c 0
 186 633 166 640 118 640 c 1
 118 656 l 1
 177 663 215 670 274 683 c 1
 279 678 l 1
 128 99 l 1
 127 97 126 92 125 89 c 0
 120 69 117 57 117 50 c 0
 117 39 122 32 132 32 c 0
 150 32 169 47 201 89 c 0
 210 101 219 112 228 123 c 1
265 436 m 1
 256 453 l 1
 308 488 331 515 331 542 c 0
 331 552 326 560 311 574 c 0
 292 591 286 602 286 619 c 0
 286 646 308 666 337 666 c 0
 370 666 395 635 395 595 c 0
 395 539 349 483 265 436 c 1
EndSplineSet
Ligature: 0 0 'liga' l uni030C
EndChar
StartChar: nacute
Encoding: 348 324 242
Width: 500
Flags: W
HStem: 0 21G<14 89> 390 51<337 376> 644 20G<446 461>
VStem: 287 75<45 56> 361 81<361 380>
DStem: 110 350 213 439 14 0 146 221 347 285 433 323 303 120 376 117
Fore
264 494 m 1xe0
 426 654 l 2
 433 660 441 664 451 664 c 0
 471 664 487 648 487 628 c 0
 487 616 482 607 470 600 c 2
 299 494 l 1
 264 494 l 1xe0
460 117 m 1
 474 104 l 1
 405 12 379 -9 334 -9 c 0
 301 -9 287 7 287 45 c 0xf0
 287 55 290 69 303 120 c 1
 347 285 l 2
 355 316 361 349 361 361 c 0
 361 379 352 390 337 390 c 0
 300 390 249 340 189 248 c 0
 145 180 136 158 89 0 c 1
 14 0 l 1
 110 350 l 1
 111 355 112 361 112 367 c 0
 112 387 99 393 48 394 c 1
 48 410 l 1
 135 426 156 430 210 441 c 1
 213 439 l 1
 146 221 l 1
 249 381 312 441 376 441 c 0
 415 441 442 416 442 380 c 0xe8
 442 366 438 344 433 323 c 1
 376 117 l 1
 362 61 362 61 362 54 c 0xf0
 362 46 370 38 378 38 c 0
 392 38 410 54 439 91 c 2
 460 117 l 1
EndSplineSet
Ligature: 0 0 'liga' n acutecomb
EndChar
StartChar: ncaron
Encoding: 349 328 243
Width: 500
Flags: W
HStem: 0 21G<14 89> 390 51<337 376> 641 20G<205 242 474 510>
VStem: 287 75<45 56> 361 81<361 380>
DStem: 110 350 213 439 14 0 146 221 347 285 433 323 303 120 376 117
Fore
510 661 m 1xe0
 347 492 l 1
 301 492 l 1
 205 661 l 1
 242 661 l 1
 332 556 l 1
 474 661 l 1
 510 661 l 1xe0
460 117 m 1
 474 104 l 1
 405 12 379 -9 334 -9 c 0
 301 -9 287 7 287 45 c 0xf0
 287 55 290 69 303 120 c 1
 347 285 l 2
 355 316 361 349 361 361 c 0
 361 379 352 390 337 390 c 0
 300 390 249 340 189 248 c 0
 145 180 136 158 89 0 c 1
 14 0 l 1
 110 350 l 1
 111 355 112 361 112 367 c 0
 112 387 99 393 48 394 c 1
 48 410 l 1
 135 426 156 430 210 441 c 1
 213 439 l 1
 146 221 l 1
 249 381 312 441 376 441 c 0
 415 441 442 416 442 380 c 0xe8
 442 366 438 344 433 323 c 1
 376 117 l 1
 362 61 362 61 362 54 c 0xf0
 362 46 370 38 378 38 c 0
 392 38 410 54 439 91 c 2
 460 117 l 1
EndSplineSet
Ligature: 0 0 'liga' n uni030C
EndChar
StartChar: ntilde
Encoding: 350 241 244
Width: 500
Flags: W
HStem: 0 21G<14 89> 390 51<337 376> 520 60<382 398> 564 59<230 250>
VStem: 287 75<45 56> 361 81<361 380>
DStem: 110 350 213 439 14 0 146 221 347 285 433 323 303 120 376 117
Fore
449 624 m 1xe0
 477 624 l 1
 463 557 430 520 382 520 c 0xe0
 370 520 351 525 325 535 c 0
 271 557 247 564 230 564 c 0
 205 564 189 549 179 517 c 1
 150 517 l 1
 170 594 198 623 250 623 c 0xd0
 272 623 298 616 336 599 c 0
 366 585 383 580 398 580 c 0
 425 580 438 591 449 624 c 1xe0
460 117 m 1
 474 104 l 1
 405 12 379 -9 334 -9 c 0
 301 -9 287 7 287 45 c 0xc8
 287 55 290 69 303 120 c 1
 347 285 l 2
 355 316 361 349 361 361 c 0
 361 379 352 390 337 390 c 0
 300 390 249 340 189 248 c 0
 145 180 136 158 89 0 c 1
 14 0 l 1
 110 350 l 1
 111 355 112 361 112 367 c 0
 112 387 99 393 48 394 c 1
 48 410 l 1
 135 426 156 430 210 441 c 1
 213 439 l 1
 146 221 l 1
 249 381 312 441 376 441 c 0
 415 441 442 416 442 380 c 0xc4
 442 366 438 344 433 323 c 1
 376 117 l 1
 362 61 362 61 362 54 c 0xc8
 362 46 370 38 378 38 c 0
 392 38 410 54 439 91 c 2
 460 117 l 1
EndSplineSet
Ligature: 0 0 'liga' n tildecomb
EndChar
StartChar: odieresis
Encoding: 351 246 245
Width: 500
Flags: W
HStem: -11 21<174 193> 420 21<305 325> 508 98<234 243 438 443>
VStem: 27 84<101 129> 191 98<548 566> 384 84<301 326> 391 98<548 566>
Fore
241 606 m 0xf8
 266 606 289 582 289 557 c 0
 289 530 267 508 240 508 c 0
 213 508 191 530 191 558 c 0
 191 584 213 606 241 606 c 0xf8
441 606 m 0
 466 606 489 582 489 557 c 0
 489 530 467 508 440 508 c 0
 413 508 391 530 391 558 c 0xfa
 391 584 413 606 441 606 c 0
325 441 m 0
 410 441 468 384 468 301 c 0xfc
 468 226 428 141 362 76 c 0
 304 19 240 -11 174 -11 c 0
 83 -11 27 43 27 129 c 0
 27 286 175 441 325 441 c 0
313 420 m 0
 270 420 228 390 189 334 c 0
 140 263 111 175 111 101 c 0
 111 46 142 10 189 10 c 0
 232 10 270 35 307 88 c 0
 351 153 384 253 384 326 c 0
 384 383 356 420 313 420 c 0
EndSplineSet
KernsSLIF: 116 -16 0 0 118 -18 0 0 119 -15 0 0 120 -33 0 0 121 -10 0 0
Ligature: 0 0 'liga' o uni0308
EndChar
StartChar: oacute
Encoding: 352 243 246
Width: 500
Flags: W
HStem: -11 21<174 191> 420 21<305 325> 644 20G<446 461>
VStem: 27 84<101 129> 384 84<301 326>
Fore
264 494 m 1
 426 654 l 2
 433 660 441 664 451 664 c 0
 471 664 487 648 487 628 c 0
 487 616 482 607 470 600 c 2
 299 494 l 1
 264 494 l 1
325 441 m 0
 410 441 468 384 468 301 c 0
 468 226 428 141 362 76 c 0
 304 19 240 -11 174 -11 c 0
 83 -11 27 43 27 129 c 0
 27 286 175 441 325 441 c 0
313 420 m 0
 270 420 228 390 189 334 c 0
 140 263 111 175 111 101 c 0
 111 46 142 10 189 10 c 0
 232 10 270 35 307 88 c 0
 351 153 384 253 384 326 c 0
 384 383 356 420 313 420 c 0
EndSplineSet
KernsSLIF: 118 -18 0 0 119 -15 0 0 121 -10 0 0
Ligature: 0 0 'liga' o acutecomb
EndChar
StartChar: ograve
Encoding: 353 242 247
Width: 500
Flags: W
HStem: -11 21<174 191> 420 21<305 325> 644 20G<229 246.5>
VStem: 27 84<101 129> 384 84<301 326>
Fore
363 492 m 1
 223 598 l 2
 210 608 204 618 204 630 c 0
 204 649 219 664 239 664 c 0
 254 664 265 657 278 641 c 2
 394 492 l 1
 363 492 l 1
325 441 m 0
 410 441 468 384 468 301 c 0
 468 226 428 141 362 76 c 0
 304 19 240 -11 174 -11 c 0
 83 -11 27 43 27 129 c 0
 27 286 175 441 325 441 c 0
313 420 m 0
 270 420 228 390 189 334 c 0
 140 263 111 175 111 101 c 0
 111 46 142 10 189 10 c 0
 232 10 270 35 307 88 c 0
 351 153 384 253 384 326 c 0
 384 383 356 420 313 420 c 0
EndSplineSet
KernsSLIF: 118 -18 0 0 119 -15 0 0 121 -10 0 0
Ligature: 0 0 'liga' o gravecomb
EndChar
StartChar: ocircumflex
Encoding: 354 244 248
Width: 500
Flags: W
HStem: -11 21<174 191> 420 21<305 325> 641 20G<321 370>
VStem: 27 84<101 129> 384 84<301 326>
Fore
370 661 m 1
 458 492 l 1
 422 492 l 1
 340 596 l 1
 203 492 l 1
 164 492 l 1
 321 661 l 1
 370 661 l 1
325 441 m 0
 410 441 468 384 468 301 c 0
 468 226 428 141 362 76 c 0
 304 19 240 -11 174 -11 c 0
 83 -11 27 43 27 129 c 0
 27 286 175 441 325 441 c 0
313 420 m 0
 270 420 228 390 189 334 c 0
 140 263 111 175 111 101 c 0
 111 46 142 10 189 10 c 0
 232 10 270 35 307 88 c 0
 351 153 384 253 384 326 c 0
 384 383 356 420 313 420 c 0
EndSplineSet
KernsSLIF: 116 -16 0 0
Ligature: 0 0 'liga' o uni0302
EndChar
StartChar: otilde
Encoding: 355 245 249
Width: 500
Flags: W
HStem: -11 21<174 191> 420 21<305 325> 520 60<401 417> 564 59<249 269>
VStem: 27 84<101 129> 384 84<301 326>
Fore
468 624 m 1xec
 496 624 l 1
 482 557 449 520 401 520 c 0xec
 389 520 370 525 344 535 c 0
 290 557 266 564 249 564 c 0
 224 564 208 549 198 517 c 1
 169 517 l 1
 189 594 217 623 269 623 c 0xdc
 291 623 317 616 355 599 c 0
 385 585 402 580 417 580 c 0
 444 580 457 591 468 624 c 1xec
325 441 m 0
 410 441 468 384 468 301 c 0
 468 226 428 141 362 76 c 0
 304 19 240 -11 174 -11 c 0
 83 -11 27 43 27 129 c 0
 27 286 175 441 325 441 c 0
313 420 m 0
 270 420 228 390 189 334 c 0
 140 263 111 175 111 101 c 0
 111 46 142 10 189 10 c 0
 232 10 270 35 307 88 c 0
 351 153 384 253 384 326 c 0
 384 383 356 420 313 420 c 0
EndSplineSet
Ligature: 0 0 'liga' o tildecomb
EndChar
StartChar: ohungarumlaut
Encoding: 356 337 250
Width: 500
Flags: W
HStem: -11 21<174 191> 420 21<305 325> 644 20G<359 374 529 544>
VStem: 27 84<101 129> 384 84<301 326>
Fore
177 494 m 1
 339 654 l 2
 346 660 354 664 364 664 c 0
 384 664 400 648 400 628 c 0
 400 616 395 607 383 600 c 2
 212 494 l 1
 177 494 l 1
347 494 m 1
 509 654 l 2
 516 660 524 664 534 664 c 0
 554 664 570 648 570 628 c 0
 570 616 565 607 553 600 c 2
 382 494 l 1
 347 494 l 1
325 441 m 0
 410 441 468 384 468 301 c 0
 468 226 428 141 362 76 c 0
 304 19 240 -11 174 -11 c 0
 83 -11 27 43 27 129 c 0
 27 286 175 441 325 441 c 0
313 420 m 0
 270 420 228 390 189 334 c 0
 140 263 111 175 111 101 c 0
 111 46 142 10 189 10 c 0
 232 10 270 35 307 88 c 0
 351 153 384 253 384 326 c 0
 384 383 356 420 313 420 c 0
EndSplineSet
Ligature: 0 0 'liga' o uni030B
EndChar
StartChar: racute
Encoding: 357 341 251
Width: 389
Flags: W
HStem: 0 21G<45 121> 376 65<314 365> 644 20G<390 405>
Fore
208 494 m 1
 370 654 l 2
 377 660 385 664 395 664 c 0
 415 664 431 648 431 628 c 0
 431 616 426 607 414 600 c 2
 243 494 l 1
 208 494 l 1
121 0 m 1
 45 0 l 1
 126 292 l 1
 142 360 142 360 142 374 c 0
 142 392 129 402 107 402 c 0
 100 402 97 402 73 397 c 1
 73 414 l 1
 146 426 155 428 228 441 c 1
 231 439 l 1
 178 222 l 1
 192 258 l 2
 208 298 248 357 289 399 c 0
 315 426 342 441 365 441 c 0
 393 441 412 420 412 389 c 0
 412 358 395 340 366 340 c 0
 346 340 338 345 330 362 c 0
 325 372 320 376 314 376 c 0
 297 376 269 345 236 289 c 0
 190 213 173 170 121 0 c 1
EndSplineSet
Ligature: 0 0 'liga' r acutecomb
EndChar
StartChar: sacute
Encoding: 358 347 252
Width: 389
Flags: W
HStem: -11 21<143 162> 8 138<36 56> 303 121<322 346> 418 23<226 245> 644 20G<390 405>
VStem: 109 73<331 364> 228 76<87 119>
Fore
208 494 m 1x0e
 370 654 l 2
 377 660 385 664 395 664 c 0
 415 664 431 648 431 628 c 0
 431 616 426 607 414 600 c 2
 243 494 l 1
 208 494 l 1x0e
36 146 m 1x4e
 52 146 l 1x4e
 68 51 99 10 154 10 c 0
 198 10 228 42 228 87 c 0
 228 116 211 151 172 202 c 0
 130 256 109 299 109 331 c 0
 109 398 157 441 230 441 c 0x9e
 246 441 261 439 286 431 c 0
 305 426 315 424 322 424 c 0
 336 424 344 428 352 442 c 1
 366 442 l 1
 346 303 l 1
 330 303 l 1x2e
 320 381 290 418 238 418 c 0
 203 418 182 397 182 364 c 0
 182 337 198 306 236 259 c 0
 283 201 304 157 304 119 c 0
 304 43 244 -11 160 -11 c 0x9e
 144 -11 127 -8 105 -1 c 0
 85 4 67 8 56 8 c 0
 46 8 40 3 32 -13 c 1
 16 -13 l 1
 36 146 l 1x4e
EndSplineSet
Ligature: 0 0 'liga' s acutecomb
EndChar
StartChar: scaron
Encoding: 359 353 253
Width: 389
Flags: W
HStem: -11 21<143 162> 8 138<36 56> 303 121<322 346> 418 23<226 247> 641 20G<149 186 418 454>
VStem: 109 73<331 364> 228 76<87 119>
Fore
454 661 m 1x0e
 291 492 l 1
 245 492 l 1
 149 661 l 1
 186 661 l 1
 276 556 l 1
 418 661 l 1
 454 661 l 1x0e
36 146 m 1x4e
 52 146 l 1x4e
 68 51 99 10 154 10 c 0
 198 10 228 42 228 87 c 0
 228 116 211 151 172 202 c 0
 130 256 109 299 109 331 c 0
 109 398 157 441 230 441 c 0x9e
 246 441 261 439 286 431 c 0
 305 426 315 424 322 424 c 0
 336 424 344 428 352 442 c 1
 366 442 l 1
 346 303 l 1
 330 303 l 1x2e
 320 381 290 418 238 418 c 0
 203 418 182 397 182 364 c 0
 182 337 198 306 236 259 c 0
 283 201 304 157 304 119 c 0
 304 43 244 -11 160 -11 c 0x9e
 144 -11 127 -8 105 -1 c 0
 85 4 67 8 56 8 c 0
 46 8 40 3 32 -13 c 1
 16 -13 l 1
 36 146 l 1x4e
EndSplineSet
Ligature: 0 0 'liga' s uni030C
EndChar
StartChar: scommaaccent
Encoding: 360 537 254
Width: 389
Flags: W
HStem: -11 21<143 162> 8 138<36 56> 303 121<322 346> 418 23<226 240>
VStem: 65 109<-111 -87> 109 73<331 364> 228 76<87 119>
Fore
36 146 m 1x46
 52 146 l 1x46
 68 51 99 10 154 10 c 0
 198 10 228 42 228 87 c 0
 228 116 211 151 172 202 c 0
 130 256 109 299 109 331 c 0
 109 398 157 441 230 441 c 0x96
 246 441 261 439 286 431 c 0
 305 426 315 424 322 424 c 0
 336 424 344 428 352 442 c 1
 366 442 l 1
 346 303 l 1
 330 303 l 1x26
 320 381 290 418 238 418 c 0
 203 418 182 397 182 364 c 0
 182 337 198 306 236 259 c 0
 283 201 304 157 304 119 c 0
 304 43 244 -11 160 -11 c 0x96
 144 -11 127 -8 105 -1 c 0
 85 4 67 8 56 8 c 0
 46 8 40 3 32 -13 c 1
 16 -13 l 1
 36 146 l 1x46
44 -270 m 1
 35 -253 l 1
 87 -218 110 -191 110 -164 c 0
 110 -154 105 -146 90 -132 c 0
 71 -115 65 -104 65 -87 c 0
 65 -60 87 -40 116 -40 c 0
 149 -40 174 -71 174 -111 c 0x0a
 174 -167 128 -223 44 -270 c 1
EndSplineSet
Ligature: 0 0 'liga' s uni0326
EndChar
StartChar: tcaron
Encoding: 361 357 255
Width: 278
Flags: W
HStem: -11 49<85 133> 396 32<216 291> 646 20G<305.5 336.5>
VStem: 37 81<27 58> 269 109<595 619>
DStem: 132 396 207 396 60 121 119 63
Fore
296 428 m 1
 291 396 l 1
 207 396 l 1
 119 63 l 2
 118 60 118 59 118 58 c 0
 118 46 124 38 133 38 c 0
 149 38 165 54 214 117 c 1
 227 110 l 1
 164 17 131 -11 85 -11 c 0
 58 -11 37 5 37 27 c 0
 37 35 45 70 54 100 c 0
 57 109 58 112 60 121 c 1
 132 396 l 1
 58 396 l 1
 57 399 57 401 57 402 c 0
 57 413 64 419 89 427 c 0
 121 436 183 486 222 537 c 0
 228 545 231 546 237 546 c 0
 242 546 245 543 245 536 c 0
 245 535 245 533 244 531 c 1
 216 428 l 1
 296 428 l 1
248 436 m 1
 239 453 l 1
 291 488 314 515 314 542 c 0
 314 552 309 560 294 574 c 0
 275 591 269 602 269 619 c 0
 269 646 291 666 320 666 c 0
 353 666 378 635 378 595 c 0
 378 539 332 483 248 436 c 1
EndSplineSet
Ligature: 0 0 'liga' t uni030C
EndChar
